<?xml version='1.0' encoding='UTF-8'?>
<svg version='1.1' xmlns='http://www.w3.org/2000/svg' xmlns:xlink='http://www.w3.org/1999/xlink' width='1920' height='1080' viewBox='0 0 1920 1080'>
<g data-obj-idx='0'><rect x='0' y='0' width='1920' height='1080' rx='0' ry='0' stroke='rgb(0,0,0)' stroke-width='0' /></g>
<g data-obj-idx='1'><g>
<line x1="716.0" y1="433.0" x2="724.0" y2="431.8" stroke="#888" stroke-width="1"/>
<text x="735.8" y="436.3" font-size="18" fill="#aaa" text-anchor="middle" font-family="sans-serif">-3</text>
<line x1="796.0" y1="468.9" x2="804.0" y2="467.7" stroke="#888" stroke-width="1"/>
<text x="815.8" y="472.2" font-size="18" fill="#aaa" text-anchor="middle" font-family="sans-serif">-2</text>
<line x1="1372.0" y1="476.2" x2="1379.3" y2="479.5" stroke="#888" stroke-width="1"/>
<text x="1390.3" y="490.7" font-size="18" fill="#aaa" text-anchor="middle" font-family="sans-serif">3</text>
<line x1="1233.5" y1="497.0" x2="1240.8" y2="500.2" stroke="#888" stroke-width="1"/>
<text x="1251.7" y="511.4" font-size="18" fill="#aaa" text-anchor="middle" font-family="sans-serif">2</text>
<line x1="876.0" y1="504.7" x2="884.0" y2="503.5" stroke="#888" stroke-width="1"/>
<text x="895.8" y="508.1" font-size="18" fill="#aaa" text-anchor="middle" font-family="sans-serif">-1</text>
<line x1="956.3" y1="847.5" x2="963.7" y2="850.7" stroke="#888" stroke-width="1"/>
<text x="974.6" y="861.9" font-size="18" fill="#aaa" text-anchor="middle" font-family="sans-serif">-2</text>
<line x1="1094.9" y1="517.7" x2="1102.2" y2="520.9" stroke="#888" stroke-width="1"/>
<text x="1113.2" y="532.1" font-size="18" fill="#aaa" text-anchor="middle" font-family="sans-serif">1</text>
<line x1="956.3" y1="692.9" x2="963.7" y2="696.2" stroke="#888" stroke-width="1"/>
<text x="974.6" y="707.4" font-size="18" fill="#aaa" text-anchor="middle" font-family="sans-serif">-1</text>
<line x1="720.0" y1="432.4" x2="1200.0" y2="647.6" stroke="#888" stroke-width="2"/>
<polygon points="1200.0,647.6 1191.4,647.2 1194.0,641.4" fill="#888" stroke="none"/>
<line x1="544.3" y1="602.1" x2="1375.7" y2="477.9" stroke="#888" stroke-width="2"/>
<polygon points="1375.7,477.9 1368.3,482.2 1367.3,475.9" fill="#888" stroke="none"/>
<line x1="960.0" y1="849.1" x2="960.0" y2="230.9" stroke="#888" stroke-width="2"/>
<polygon points="960.0,230.9 963.2,238.9 956.8,238.9" fill="#888" stroke="none"/>
<line x1="956.0" y1="540.6" x2="964.0" y2="539.4" stroke="#888" stroke-width="1"/>
<text x="975.8" y="543.9" font-size="18" fill="#aaa" text-anchor="middle" font-family="sans-serif">0</text>
<line x1="956.3" y1="538.4" x2="963.7" y2="541.6" stroke="#888" stroke-width="1"/>
<text x="974.6" y="552.8" font-size="18" fill="#aaa" text-anchor="middle" font-family="sans-serif">0</text>
<line x1="956.3" y1="538.4" x2="963.7" y2="541.6" stroke="#888" stroke-width="1"/>
<text x="974.6" y="552.8" font-size="18" fill="#aaa" text-anchor="middle" font-family="sans-serif">0</text>
<g>
<path d='M3.33-3.01C3.39-3.27 3.62-4.18 4.31-4.18C4.36-4.18 4.6-4.18 4.81-4.05C4.53-4 4.33-3.76 4.33-3.52C4.33-3.36 4.44-3.17 4.71-3.17C4.93-3.17 5.25-3.35 5.25-3.75C5.25-4.26 4.66-4.4 4.32-4.4C3.75-4.4 3.4-3.88 3.28-3.65C3.03-4.3 2.49-4.4 2.2-4.4C1.17-4.4 .597758-3.12 .597758-2.87C.597758-2.77 .697385-2.77 .71731-2.77C.797011-2.77 .826899-2.79 .846824-2.88C1.19-3.94 1.84-4.18 2.18-4.18C2.37-4.18 2.72-4.09 2.72-3.52C2.72-3.21 2.55-2.54 2.18-1.15C2.02-.52802 1.67-.109589 1.24-.109589C1.18-.109589 .946451-.109589 .737235-.239103C.986301-.288917 1.21-.498132 1.21-.777086C1.21-1.05 .986301-1.13 .836862-1.13C.537983-1.13 .288917-.86675 .288917-.547945C.288917-.089664 .787049 .109589 1.23 .109589C1.88 .109589 2.24-.587796 2.27-.647572C2.39-.278954 2.75 .109589 3.35 .109589C4.37 .109589 4.94-1.18 4.94-1.42C4.94-1.52 4.85-1.52 4.82-1.52C4.73-1.52 4.71-1.48 4.69-1.41C4.36-.348692 3.69-.109589 3.37-.109589C2.98-.109589 2.82-.428394 2.82-.767123C2.82-.986301 2.88-1.21 2.99-1.64L3.33-3.01Z' fill='rgb(170,170,170)' stroke='rgb(255,255,255)' stroke-width='0' transform='translate(1219.92,671.3) scale(4.36,4.36)' />
</g>
<g>
<path d='M4.84-3.8C4.88-3.94 4.88-3.96 4.88-4.02C4.88-4.2 4.74-4.29 4.59-4.29C4.49-4.29 4.33-4.23 4.24-4.08C4.22-4.03 4.14-3.73 4.1-3.55C4.03-3.29 3.97-3.02 3.91-2.75L3.46-.956413C3.42-.806974 2.99-.109589 2.33-.109589C1.82-.109589 1.71-.547945 1.71-.916563C1.71-1.37 1.88-1.99 2.22-2.87C2.38-3.28 2.42-3.39 2.42-3.59C2.42-4.03 2.1-4.4 1.6-4.4C.657534-4.4 .288917-2.96 .288917-2.87C.288917-2.77 .388543-2.77 .408468-2.77C.508095-2.77 .518057-2.79 .56787-2.95C.836862-3.89 1.24-4.18 1.57-4.18C1.65-4.18 1.82-4.18 1.82-3.87C1.82-3.62 1.72-3.36 1.65-3.17C1.26-2.11 1.08-1.54 1.08-1.08C1.08-.18929 1.7 .109589 2.29 .109589C2.68 .109589 3.02-.059776 3.3-.33873C3.17 .179328 3.05 .667497 2.65 1.2C2.39 1.53 2.01 1.82 1.55 1.82C1.41 1.82 .966376 1.79 .797011 1.4C.956413 1.4 1.09 1.4 1.23 1.29C1.33 1.2 1.42 1.07 1.42 .876712C1.42 .56787 1.16 .52802 1.06 .52802C.826899 .52802 .498132 .687422 .498132 1.18C.498132 1.67 .936488 2.04 1.55 2.04C2.58 2.04 3.61 1.14 3.89 .009963L4.84-3.8Z' fill='rgb(170,170,170)' stroke='rgb(255,255,255)' stroke-width='0' transform='translate(1419.84,474.75) scale(4.36,4.36)' />
</g>
<g>
<path d='M1.33-.826899C1.86-1.4 2.15-1.65 2.51-1.96C2.51-1.97 3.13-2.5 3.49-2.86C4.43-3.79 4.65-4.26 4.65-4.3C4.65-4.4 4.56-4.4 4.54-4.4C4.47-4.4 4.44-4.38 4.39-4.29C4.09-3.82 3.89-3.66 3.65-3.66S3.29-3.81 3.14-3.98C2.95-4.2 2.78-4.4 2.45-4.4C1.7-4.4 1.25-3.48 1.25-3.27C1.25-3.22 1.28-3.16 1.36-3.16S1.47-3.21 1.49-3.27C1.68-3.73 2.26-3.74 2.34-3.74C2.55-3.74 2.74-3.67 2.97-3.59C3.37-3.44 3.48-3.44 3.74-3.44C3.38-3.01 2.54-2.29 2.35-2.13L1.45-1.3C.777086-.627646 .428394-.059776 .428394 .009963C.428394 .109589 .52802 .109589 .547945 .109589C.627646 .109589 .647572 .089664 .707347-.019925C.936488-.368618 1.24-.637609 1.55-.637609C1.78-.637609 1.88-.547945 2.13-.259029C2.3-.049813 2.48 .109589 2.77 .109589C3.76 .109589 4.33-1.16 4.33-1.42C4.33-1.47 4.29-1.52 4.21-1.52C4.12-1.52 4.1-1.46 4.07-1.39C3.85-.747198 3.21-.557908 2.88-.557908C2.68-.557908 2.5-.617684 2.29-.687422C1.95-.816936 1.8-.856787 1.59-.856787C1.57-.856787 1.41-.856787 1.33-.826899Z' fill='rgb(170,170,170)' stroke='rgb(255,255,255)' stroke-width='0' transform='translate(948.92,178.45) scale(4.36,4.36)' />
</g>
<polyline points="720.0,454.2 724.8,465.5 729.6,476.7 734.4,487.7 739.2,498.6 744.0,509.2 748.8,519.6 753.6,529.8 758.4,539.6 763.2,549.1 768.0,558.3 772.8,567.1 777.6,575.5 782.4,583.5 787.2,591.0 792.0,598.1 796.8,604.7 801.6,610.8 806.4,616.4 811.2,621.4 816.0,626.0 820.8,629.9 825.6,633.4 830.4,636.3 835.2,638.6 840.0,640.4 844.8,641.6 849.6,642.3 854.4,642.4 859.2,642.0 864.0,641.0 868.8,639.5 873.6,637.6 878.4,635.1 883.2,632.2 888.0,628.8 892.8,625.0 897.6,620.7 902.4,616.1 907.2,611.1 912.0,605.7 916.8,600.1 921.6,594.2 926.4,588.0 931.2,581.5 936.0,574.9 940.8,568.1 945.6,561.2 950.4,554.2 955.2,547.1 960.0,540.0 964.8,532.9 969.6,525.8 974.4,518.8 979.2,511.9 984.0,505.1 988.8,498.5 993.6,492.0 998.4,485.8 1003.2,479.9 1008.0,474.3 1012.8,468.9 1017.6,463.9 1022.4,459.3 1027.2,455.0 1032.0,451.2 1036.8,447.8 1041.6,444.9 1046.4,442.4 1051.2,440.5 1056.0,439.0 1060.8,438.0 1065.6,437.6 1070.4,437.7 1075.2,438.4 1080.0,439.6 1084.8,441.4 1089.6,443.7 1094.4,446.6 1099.2,450.1 1104.0,454.0 1108.8,458.6 1113.6,463.6 1118.4,469.2 1123.2,475.3 1128.0,481.9 1132.8,489.0 1137.6,496.5 1142.4,504.5 1147.2,512.9 1152.0,521.7 1156.8,530.9 1161.6,540.4 1166.4,550.2 1171.2,560.4 1176.0,570.8 1180.8,581.4 1185.6,592.3 1190.4,603.3 1195.2,614.5 1200.0,625.8" fill="none" stroke="#83C167" stroke-width="3"/>
<line x1="956.3" y1="383.8" x2="963.7" y2="387.1" stroke="#888" stroke-width="1"/>
<text x="974.6" y="398.3" font-size="18" fill="#aaa" text-anchor="middle" font-family="sans-serif">1</text>
<line x1="817.8" y1="559.1" x2="825.1" y2="562.3" stroke="#888" stroke-width="1"/>
<text x="836.0" y="573.6" font-size="18" fill="#aaa" text-anchor="middle" font-family="sans-serif">-1</text>
<line x1="956.3" y1="229.3" x2="963.7" y2="232.5" stroke="#888" stroke-width="1"/>
<text x="974.6" y="243.7" font-size="18" fill="#aaa" text-anchor="middle" font-family="sans-serif">2</text>
<line x1="1036.0" y1="576.5" x2="1044.0" y2="575.3" stroke="#888" stroke-width="1"/>
<text x="1055.8" y="579.8" font-size="18" fill="#aaa" text-anchor="middle" font-family="sans-serif">1</text>
<line x1="679.2" y1="579.8" x2="686.5" y2="583.0" stroke="#888" stroke-width="1"/>
<text x="697.5" y="594.3" font-size="18" fill="#aaa" text-anchor="middle" font-family="sans-serif">-2</text>
<line x1="540.7" y1="600.5" x2="548.0" y2="603.8" stroke="#888" stroke-width="1"/>
<text x="558.9" y="615.0" font-size="18" fill="#aaa" text-anchor="middle" font-family="sans-serif">-3</text>
<line x1="1116.0" y1="612.3" x2="1124.0" y2="611.1" stroke="#888" stroke-width="1"/>
<text x="1135.8" y="615.7" font-size="18" fill="#aaa" text-anchor="middle" font-family="sans-serif">2</text>
<line x1="1196.0" y1="648.2" x2="1204.0" y2="647.0" stroke="#888" stroke-width="1"/>
<text x="1215.8" y="651.5" font-size="18" fill="#aaa" text-anchor="middle" font-family="sans-serif">3</text>
</g></g>
</svg>