<?xml version='1.0' encoding='UTF-8'?>
<svg version='1.1' xmlns='http://www.w3.org/2000/svg' xmlns:xlink='http://www.w3.org/1999/xlink' width='1920' height='1080' viewBox='0 0 1920 1080'>
<g data-obj-idx='0'><rect x='0' y='0' width='1920' height='1080' rx='0' ry='0' stroke='rgb(0,0,0)' stroke-width='0' /></g>
<g data-obj-idx='1'><g>
<line x1="636.0" y1="397.1" x2="644.0" y2="396.0" stroke="#888" stroke-width="1"/>
<text x="655.8" y="400.5" font-size="18" fill="#aaa" text-anchor="middle" font-family="sans-serif">-4</text>
<polygon points="1060.8,481.3 960.0,477.9 960.0,436.5 1063.5,440.0" fill="rgb(139,80,164)" fill-opacity="0.9" stroke="#333" stroke-width="0.3"/>
<polygon points="960.0,477.9 859.2,481.3 856.5,440.0 960.0,436.5" fill="rgb(108,52,132)" fill-opacity="0.9" stroke="#333" stroke-width="0.3"/>
<polygon points="1053.2,516.9 960.0,513.7 960.0,477.9 1060.8,481.3" fill="rgb(124,59,151)" fill-opacity="0.9" stroke="#333" stroke-width="0.3"/>
<polygon points="960.0,513.7 866.8,516.9 859.2,481.3 960.0,477.9" fill="rgb(150,86,177)" fill-opacity="0.9" stroke="#333" stroke-width="0.3"/>
<polygon points="1063.5,440.0 960.0,436.5 960.0,400.6 1060.8,404.0" fill="rgb(80,38,98)" fill-opacity="0.9" stroke="#333" stroke-width="0.3"/>
<polygon points="960.0,436.5 856.5,440.0 859.2,404.0 960.0,400.6" fill="rgb(95,54,111)" fill-opacity="0.9" stroke="#333" stroke-width="0.3"/>
<polygon points="859.2,481.3 765.4,491.4 760.0,450.3 856.5,440.0" fill="rgb(125,71,146)" fill-opacity="0.9" stroke="#333" stroke-width="0.3"/>
<polygon points="1154.6,491.4 1060.8,481.3 1063.5,440.0 1160.0,450.3" fill="rgb(112,54,137)" fill-opacity="0.9" stroke="#333" stroke-width="0.3"/>
<polygon points="866.8,516.9 780.0,526.2 765.4,491.4 859.2,481.3" fill="rgb(115,55,140)" fill-opacity="0.9" stroke="#333" stroke-width="0.3"/>
<polygon points="1140.0,526.2 1053.2,516.9 1060.8,481.3 1154.6,491.4" fill="rgb(154,88,181)" fill-opacity="0.9" stroke="#333" stroke-width="0.3"/>
<polygon points="856.5,440.0 760.0,450.3 765.4,414.1 859.2,404.0" fill="rgb(69,33,83)" fill-opacity="0.9" stroke="#333" stroke-width="0.3"/>
<polygon points="1160.0,450.3 1063.5,440.0 1060.8,404.0 1154.6,414.1" fill="rgb(100,57,117)" fill-opacity="0.9" stroke="#333" stroke-width="0.3"/>
<polygon points="960.0,534.5 877.2,537.3 866.8,516.9 960.0,513.7" fill="rgb(112,53,136)" fill-opacity="0.9" stroke="#333" stroke-width="0.3"/>
<polygon points="1042.8,537.3 960.0,534.5 960.0,513.7 1053.2,516.9" fill="rgb(140,80,164)" fill-opacity="0.9" stroke="#333" stroke-width="0.3"/>
<polygon points="1060.8,404.0 960.0,400.6 960.0,379.9 1053.2,383.1" fill="rgb(46,26,54)" fill-opacity="0.9" stroke="#333" stroke-width="0.3"/>
<polygon points="960.0,400.6 859.2,404.0 866.8,383.1 960.0,379.9" fill="rgb(40,19,49)" fill-opacity="0.9" stroke="#333" stroke-width="0.3"/>
<polygon points="877.2,537.3 800.0,545.5 780.0,526.2 866.8,516.9" fill="rgb(136,78,160)" fill-opacity="0.9" stroke="#333" stroke-width="0.3"/>
<polygon points="1120.0,545.5 1042.8,537.3 1053.2,516.9 1140.0,526.2" fill="rgb(113,54,137)" fill-opacity="0.9" stroke="#333" stroke-width="0.3"/>
<polygon points="859.2,404.0 765.4,414.1 780.0,392.4 866.8,383.1" fill="rgb(57,32,67)" fill-opacity="0.9" stroke="#333" stroke-width="0.3"/>
<polygon points="1154.6,414.1 1060.8,404.0 1053.2,383.1 1140.0,392.4" fill="rgb(37,18,45)" fill-opacity="0.9" stroke="#333" stroke-width="0.3"/>
<line x1="1510.6" y1="455.5" x2="1517.9" y2="458.8" stroke="#888" stroke-width="1"/>
<text x="1528.9" y="470.0" font-size="18" fill="#aaa" text-anchor="middle" font-family="sans-serif">4</text>
<polygon points="765.4,491.4 684.7,507.4 677.2,466.8 760.0,450.3" fill="rgb(89,43,109)" fill-opacity="0.9" stroke="#333" stroke-width="0.3"/>
<polygon points="1235.3,507.4 1154.6,491.4 1160.0,450.3 1242.8,466.8" fill="rgb(134,77,158)" fill-opacity="0.9" stroke="#333" stroke-width="0.3"/>
<polygon points="960.0,534.5 887.5,536.9 877.2,537.3 960.0,534.5" fill="rgb(102,58,119)" fill-opacity="0.9" stroke="#333" stroke-width="0.3"/>
<polygon points="1032.5,536.9 960.0,534.5 960.0,534.5 1042.8,537.3" fill="rgb(81,38,98)" fill-opacity="0.9" stroke="#333" stroke-width="0.3"/>
<polygon points="1053.2,383.1 960.0,379.9 960.0,379.9 1042.8,382.7" fill="rgb(81,38,98)" fill-opacity="0.9" stroke="#333" stroke-width="0.3"/>
<polygon points="960.0,379.9 866.8,383.1 877.2,382.7 960.0,379.9" fill="rgb(102,58,119)" fill-opacity="0.9" stroke="#333" stroke-width="0.3"/>
<polygon points="780.0,526.2 705.4,541.0 684.7,507.4 765.4,491.4" fill="rgb(133,76,156)" fill-opacity="0.9" stroke="#333" stroke-width="0.3"/>
<polygon points="1214.6,541.0 1140.0,526.2 1154.6,491.4 1235.3,507.4" fill="rgb(121,58,147)" fill-opacity="0.9" stroke="#333" stroke-width="0.3"/>
<polygon points="760.0,450.3 677.2,466.8 684.7,430.1 765.4,414.1" fill="rgb(71,41,84)" fill-opacity="0.9" stroke="#333" stroke-width="0.3"/>
<polygon points="1242.8,466.8 1160.0,450.3 1154.6,414.1 1235.3,430.1" fill="rgb(76,36,93)" fill-opacity="0.9" stroke="#333" stroke-width="0.3"/>
<polygon points="887.5,536.9 820.0,544.2 800.0,545.5 877.2,537.3" fill="rgb(84,40,102)" fill-opacity="0.9" stroke="#333" stroke-width="0.3"/>
<polygon points="1100.0,544.2 1032.5,536.9 1042.8,537.3 1120.0,545.5" fill="rgb(100,57,118)" fill-opacity="0.9" stroke="#333" stroke-width="0.3"/>
<polygon points="866.8,383.1 780.0,392.4 800.0,391.0 877.2,382.7" fill="rgb(84,40,102)" fill-opacity="0.9" stroke="#333" stroke-width="0.3"/>
<polygon points="1140.0,392.4 1053.2,383.1 1042.8,382.7 1120.0,391.0" fill="rgb(100,57,118)" fill-opacity="0.9" stroke="#333" stroke-width="0.3"/>
<polygon points="800.0,545.5 733.7,558.7 705.4,541.0 780.0,526.2" fill="rgb(107,51,130)" fill-opacity="0.9" stroke="#333" stroke-width="0.3"/>
<polygon points="1186.3,558.7 1120.0,545.5 1140.0,526.2 1214.6,541.0" fill="rgb(139,79,163)" fill-opacity="0.9" stroke="#333" stroke-width="0.3"/>
<polygon points="765.4,414.1 684.7,430.1 705.4,407.2 780.0,392.4" fill="rgb(54,26,66)" fill-opacity="0.9" stroke="#333" stroke-width="0.3"/>
<polygon points="1235.3,430.1 1154.6,414.1 1140.0,392.4 1214.6,407.2" fill="rgb(50,28,58)" fill-opacity="0.9" stroke="#333" stroke-width="0.3"/>
<line x1="796.0" y1="468.9" x2="804.0" y2="467.7" stroke="#888" stroke-width="1"/>
<text x="815.8" y="472.2" font-size="18" fill="#aaa" text-anchor="middle" font-family="sans-serif">-2</text>
<polygon points="960.0,513.7 895.1,516.0 887.5,536.9 960.0,534.5" fill="rgb(40,19,49)" fill-opacity="0.9" stroke="#333" stroke-width="0.3"/>
<polygon points="1024.9,516.0 960.0,513.7 960.0,534.5 1032.5,536.9" fill="rgb(46,26,54)" fill-opacity="0.9" stroke="#333" stroke-width="0.3"/>
<polygon points="960.0,379.9 877.2,382.7 887.5,403.1 960.0,400.6" fill="rgb(112,53,136)" fill-opacity="0.9" stroke="#333" stroke-width="0.3"/>
<polygon points="1042.8,382.7 960.0,379.9 960.0,400.6 1032.5,403.1" fill="rgb(140,80,164)" fill-opacity="0.9" stroke="#333" stroke-width="0.3"/>
<polygon points="895.1,516.0 834.6,522.4 820.0,544.2 887.5,536.9" fill="rgb(57,32,67)" fill-opacity="0.9" stroke="#333" stroke-width="0.3"/>
<polygon points="1085.4,522.4 1024.9,516.0 1032.5,536.9 1100.0,544.2" fill="rgb(37,18,45)" fill-opacity="0.9" stroke="#333" stroke-width="0.3"/>
<polygon points="820.0,544.2 762.0,555.7 733.7,558.7 800.0,545.5" fill="rgb(108,62,127)" fill-opacity="0.9" stroke="#333" stroke-width="0.3"/>
<polygon points="1158.0,555.7 1100.0,544.2 1120.0,545.5 1186.3,558.7" fill="rgb(82,39,100)" fill-opacity="0.9" stroke="#333" stroke-width="0.3"/>
<polygon points="877.2,382.7 800.0,391.0 820.0,410.3 887.5,403.1" fill="rgb(136,78,160)" fill-opacity="0.9" stroke="#333" stroke-width="0.3"/>
<polygon points="1120.0,391.0 1042.8,382.7 1032.5,403.1 1100.0,410.3" fill="rgb(113,54,137)" fill-opacity="0.9" stroke="#333" stroke-width="0.3"/>
<polygon points="780.0,392.4 705.4,407.2 733.7,404.2 800.0,391.0" fill="rgb(108,62,127)" fill-opacity="0.9" stroke="#333" stroke-width="0.3"/>
<polygon points="1214.6,407.2 1140.0,392.4 1120.0,391.0 1186.3,404.2" fill="rgb(82,39,100)" fill-opacity="0.9" stroke="#333" stroke-width="0.3"/>
<polygon points="1022.1,480.0 960.0,477.9 960.0,513.7 1024.9,516.0" fill="rgb(80,38,98)" fill-opacity="0.9" stroke="#333" stroke-width="0.3"/>
<polygon points="960.0,477.9 897.9,480.0 895.1,516.0 960.0,513.7" fill="rgb(95,54,111)" fill-opacity="0.9" stroke="#333" stroke-width="0.3"/>
<polygon points="960.0,400.6 887.5,403.1 895.1,438.7 960.0,436.5" fill="rgb(150,86,177)" fill-opacity="0.9" stroke="#333" stroke-width="0.3"/>
<polygon points="1032.5,403.1 960.0,400.6 960.0,436.5 1024.9,438.7" fill="rgb(124,59,151)" fill-opacity="0.9" stroke="#333" stroke-width="0.3"/>
<polygon points="684.7,507.4 622.9,528.3 613.6,488.2 677.2,466.8" fill="rgb(94,54,111)" fill-opacity="0.9" stroke="#333" stroke-width="0.3"/>
<polygon points="1297.1,528.3 1235.3,507.4 1242.8,466.8 1306.4,488.2" fill="rgb(100,48,122)" fill-opacity="0.9" stroke="#333" stroke-width="0.3"/>
<polygon points="705.4,541.0 648.2,560.3 622.9,528.3 684.7,507.4" fill="rgb(97,46,119)" fill-opacity="0.9" stroke="#333" stroke-width="0.3"/>
<polygon points="1271.8,560.3 1214.6,541.0 1235.3,507.4 1297.1,528.3" fill="rgb(143,82,168)" fill-opacity="0.9" stroke="#333" stroke-width="0.3"/>
<polygon points="1024.9,438.7 960.0,436.5 960.0,477.9 1022.1,480.0" fill="rgb(139,80,164)" fill-opacity="0.9" stroke="#333" stroke-width="0.3"/>
<polygon points="960.0,436.5 895.1,438.7 897.9,480.0 960.0,477.9" fill="rgb(108,52,132)" fill-opacity="0.9" stroke="#333" stroke-width="0.3"/>
<polygon points="677.2,466.8 613.6,488.2 622.9,451.0 684.7,430.1" fill="rgb(44,21,54)" fill-opacity="0.9" stroke="#333" stroke-width="0.3"/>
<polygon points="1306.4,488.2 1242.8,466.8 1235.3,430.1 1297.1,451.0" fill="rgb(85,49,100)" fill-opacity="0.9" stroke="#333" stroke-width="0.3"/>
<polygon points="897.9,480.0 840.0,486.2 834.6,522.4 895.1,516.0" fill="rgb(69,33,83)" fill-opacity="0.9" stroke="#333" stroke-width="0.3"/>
<polygon points="1080.0,486.2 1022.1,480.0 1024.9,516.0 1085.4,522.4" fill="rgb(100,57,117)" fill-opacity="0.9" stroke="#333" stroke-width="0.3"/>
<polygon points="887.5,403.1 820.0,410.3 834.6,445.2 895.1,438.7" fill="rgb(115,55,140)" fill-opacity="0.9" stroke="#333" stroke-width="0.3"/>
<polygon points="1100.0,410.3 1032.5,403.1 1024.9,438.7 1085.4,445.2" fill="rgb(154,88,181)" fill-opacity="0.9" stroke="#333" stroke-width="0.3"/>
<polygon points="733.7,558.7 682.9,575.9 648.2,560.3 705.4,541.0" fill="rgb(128,73,150)" fill-opacity="0.9" stroke="#333" stroke-width="0.3"/>
<polygon points="1237.1,575.9 1186.3,558.7 1214.6,541.0 1271.8,560.3" fill="rgb(110,52,133)" fill-opacity="0.9" stroke="#333" stroke-width="0.3"/>
<polygon points="834.6,522.4 782.7,532.8 762.0,555.7 820.0,544.2" fill="rgb(54,26,66)" fill-opacity="0.9" stroke="#333" stroke-width="0.3"/>
<polygon points="1137.3,532.8 1085.4,522.4 1100.0,544.2 1158.0,555.7" fill="rgb(50,28,58)" fill-opacity="0.9" stroke="#333" stroke-width="0.3"/>
<polygon points="895.1,438.7 834.6,445.2 840.0,486.2 897.9,480.0" fill="rgb(125,71,146)" fill-opacity="0.9" stroke="#333" stroke-width="0.3"/>
<polygon points="1085.4,445.2 1024.9,438.7 1022.1,480.0 1080.0,486.2" fill="rgb(112,54,137)" fill-opacity="0.9" stroke="#333" stroke-width="0.3"/>
<polygon points="800.0,391.0 733.7,404.2 762.0,421.8 820.0,410.3" fill="rgb(107,51,130)" fill-opacity="0.9" stroke="#333" stroke-width="0.3"/>
<polygon points="1186.3,404.2 1120.0,391.0 1100.0,410.3 1158.0,421.8" fill="rgb(139,79,163)" fill-opacity="0.9" stroke="#333" stroke-width="0.3"/>
<polygon points="684.7,430.1 622.9,451.0 648.2,426.5 705.4,407.2" fill="rgb(79,45,93)" fill-opacity="0.9" stroke="#333" stroke-width="0.3"/>
<polygon points="1297.1,451.0 1235.3,430.1 1214.6,407.2 1271.8,426.5" fill="rgb(46,22,56)" fill-opacity="0.9" stroke="#333" stroke-width="0.3"/>
<polygon points="762.0,555.7 717.5,570.7 682.9,575.9 733.7,558.7" fill="rgb(91,43,110)" fill-opacity="0.9" stroke="#333" stroke-width="0.3"/>
<polygon points="1202.5,570.7 1158.0,555.7 1186.3,558.7 1237.1,575.9" fill="rgb(104,60,122)" fill-opacity="0.9" stroke="#333" stroke-width="0.3"/>
<polygon points="840.0,486.2 790.3,496.1 782.7,532.8 834.6,522.4" fill="rgb(71,41,84)" fill-opacity="0.9" stroke="#333" stroke-width="0.3"/>
<polygon points="1129.7,496.1 1080.0,486.2 1085.4,522.4 1137.3,532.8" fill="rgb(76,36,93)" fill-opacity="0.9" stroke="#333" stroke-width="0.3"/>
<polygon points="820.0,410.3 762.0,421.8 782.7,455.5 834.6,445.2" fill="rgb(133,76,156)" fill-opacity="0.9" stroke="#333" stroke-width="0.3"/>
<polygon points="1158.0,421.8 1100.0,410.3 1085.4,445.2 1137.3,455.5" fill="rgb(121,58,147)" fill-opacity="0.9" stroke="#333" stroke-width="0.3"/>
<polygon points="834.6,445.2 782.7,455.5 790.3,496.1 840.0,486.2" fill="rgb(89,43,109)" fill-opacity="0.9" stroke="#333" stroke-width="0.3"/>
<polygon points="1137.3,455.5 1085.4,445.2 1080.0,486.2 1129.7,496.1" fill="rgb(134,77,158)" fill-opacity="0.9" stroke="#333" stroke-width="0.3"/>
<polygon points="705.4,407.2 648.2,426.5 682.9,421.3 733.7,404.2" fill="rgb(91,43,110)" fill-opacity="0.9" stroke="#333" stroke-width="0.3"/>
<polygon points="1271.8,426.5 1214.6,407.2 1186.3,404.2 1237.1,421.3" fill="rgb(104,60,122)" fill-opacity="0.9" stroke="#333" stroke-width="0.3"/>
<polygon points="782.7,532.8 742.9,546.2 717.5,570.7 762.0,555.7" fill="rgb(79,45,93)" fill-opacity="0.9" stroke="#333" stroke-width="0.3"/>
<polygon points="1177.1,546.2 1137.3,532.8 1158.0,555.7 1202.5,570.7" fill="rgb(46,22,56)" fill-opacity="0.9" stroke="#333" stroke-width="0.3"/>
<polygon points="733.7,404.2 682.9,421.3 717.5,436.8 762.0,421.8" fill="rgb(128,73,150)" fill-opacity="0.9" stroke="#333" stroke-width="0.3"/>
<polygon points="1237.1,421.3 1186.3,404.2 1158.0,421.8 1202.5,436.8" fill="rgb(110,52,133)" fill-opacity="0.9" stroke="#333" stroke-width="0.3"/>
<line x1="1233.5" y1="497.0" x2="1240.8" y2="500.2" stroke="#888" stroke-width="1"/>
<text x="1251.7" y="511.4" font-size="18" fill="#aaa" text-anchor="middle" font-family="sans-serif">2</text>
<polygon points="648.2,560.3 612.3,582.8 584.0,552.6 622.9,528.3" fill="rgb(107,61,126)" fill-opacity="0.9" stroke="#333" stroke-width="0.3"/>
<polygon points="1307.7,582.8 1271.8,560.3 1297.1,528.3 1336.0,552.6" fill="rgb(107,51,131)" fill-opacity="0.9" stroke="#333" stroke-width="0.3"/>
<polygon points="622.9,528.3 584.0,552.6 573.6,513.2 613.6,488.2" fill="rgb(61,29,74)" fill-opacity="0.9" stroke="#333" stroke-width="0.3"/>
<polygon points="1336.0,552.6 1297.1,528.3 1306.4,488.2 1346.4,513.2" fill="rgb(111,63,130)" fill-opacity="0.9" stroke="#333" stroke-width="0.3"/>
<polygon points="790.3,496.1 752.2,508.9 742.9,546.2 782.7,532.8" fill="rgb(44,21,54)" fill-opacity="0.9" stroke="#333" stroke-width="0.3"/>
<polygon points="1167.8,508.9 1129.7,496.1 1137.3,532.8 1177.1,546.2" fill="rgb(85,49,100)" fill-opacity="0.9" stroke="#333" stroke-width="0.3"/>
<polygon points="682.9,575.9 650.9,595.8 612.3,582.8 648.2,560.3" fill="rgb(99,47,120)" fill-opacity="0.9" stroke="#333" stroke-width="0.3"/>
<polygon points="1269.1,595.8 1237.1,575.9 1271.8,560.3 1307.7,582.8" fill="rgb(132,76,155)" fill-opacity="0.9" stroke="#333" stroke-width="0.3"/>
<polygon points="762.0,421.8 717.5,436.8 742.9,468.9 782.7,455.5" fill="rgb(97,46,119)" fill-opacity="0.9" stroke="#333" stroke-width="0.3"/>
<polygon points="1202.5,436.8 1158.0,421.8 1137.3,455.5 1177.1,468.9" fill="rgb(143,82,168)" fill-opacity="0.9" stroke="#333" stroke-width="0.3"/>
<polygon points="613.6,488.2 573.6,513.2 584.0,475.3 622.9,451.0" fill="rgb(56,32,66)" fill-opacity="0.9" stroke="#333" stroke-width="0.3"/>
<polygon points="1346.4,513.2 1306.4,488.2 1297.1,451.0 1336.0,475.3" fill="rgb(58,27,70)" fill-opacity="0.9" stroke="#333" stroke-width="0.3"/>
<polygon points="782.7,455.5 742.9,468.9 752.2,508.9 790.3,496.1" fill="rgb(94,54,111)" fill-opacity="0.9" stroke="#333" stroke-width="0.3"/>
<polygon points="1177.1,468.9 1137.3,455.5 1129.7,496.1 1167.8,508.9" fill="rgb(100,48,122)" fill-opacity="0.9" stroke="#333" stroke-width="0.3"/>
<polygon points="717.5,570.7 689.5,588.2 650.9,595.8 682.9,575.9" fill="rgb(117,67,138)" fill-opacity="0.9" stroke="#333" stroke-width="0.3"/>
<polygon points="1230.5,588.2 1202.5,570.7 1237.1,575.9 1269.1,595.8" fill="rgb(87,41,106)" fill-opacity="0.9" stroke="#333" stroke-width="0.3"/>
<polygon points="622.9,451.0 584.0,475.3 612.3,449.0 648.2,426.5" fill="rgb(75,36,91)" fill-opacity="0.9" stroke="#333" stroke-width="0.3"/>
<polygon points="1336.0,475.3 1297.1,451.0 1271.8,426.5 1307.7,449.0" fill="rgb(67,38,79)" fill-opacity="0.9" stroke="#333" stroke-width="0.3"/>
<polygon points="742.9,546.2 717.8,561.8 689.5,588.2 717.5,570.7" fill="rgb(75,36,91)" fill-opacity="0.9" stroke="#333" stroke-width="0.3"/>
<polygon points="1202.2,561.8 1177.1,546.2 1202.5,570.7 1230.5,588.2" fill="rgb(67,38,79)" fill-opacity="0.9" stroke="#333" stroke-width="0.3"/>
<polygon points="648.2,426.5 612.3,449.0 650.9,441.3 682.9,421.3" fill="rgb(117,67,138)" fill-opacity="0.9" stroke="#333" stroke-width="0.3"/>
<polygon points="1307.7,449.0 1271.8,426.5 1237.1,421.3 1269.1,441.3" fill="rgb(87,41,106)" fill-opacity="0.9" stroke="#333" stroke-width="0.3"/>
<polygon points="752.2,508.9 728.2,523.9 717.8,561.8 742.9,546.2" fill="rgb(56,32,66)" fill-opacity="0.9" stroke="#333" stroke-width="0.3"/>
<polygon points="1191.8,523.9 1167.8,508.9 1177.1,546.2 1202.2,561.8" fill="rgb(58,27,70)" fill-opacity="0.9" stroke="#333" stroke-width="0.3"/>
<polygon points="682.9,421.3 650.9,441.3 689.5,454.3 717.5,436.8" fill="rgb(99,47,120)" fill-opacity="0.9" stroke="#333" stroke-width="0.3"/>
<polygon points="1269.1,441.3 1237.1,421.3 1202.5,436.8 1230.5,454.3" fill="rgb(132,76,155)" fill-opacity="0.9" stroke="#333" stroke-width="0.3"/>
<polygon points="742.9,468.9 717.8,484.6 728.2,523.9 752.2,508.9" fill="rgb(61,29,74)" fill-opacity="0.9" stroke="#333" stroke-width="0.3"/>
<polygon points="1202.2,484.6 1177.1,468.9 1167.8,508.9 1191.8,523.9" fill="rgb(111,63,130)" fill-opacity="0.9" stroke="#333" stroke-width="0.3"/>
<polygon points="717.5,436.8 689.5,454.3 717.8,484.6 742.9,468.9" fill="rgb(107,61,126)" fill-opacity="0.9" stroke="#333" stroke-width="0.3"/>
<polygon points="1230.5,454.3 1202.5,436.8 1177.1,468.9 1202.2,484.6" fill="rgb(107,51,131)" fill-opacity="0.9" stroke="#333" stroke-width="0.3"/>
<line x1="956.3" y1="847.5" x2="963.7" y2="850.7" stroke="#888" stroke-width="1"/>
<text x="974.6" y="861.9" font-size="18" fill="#aaa" text-anchor="middle" font-family="sans-serif">-2</text>
<polygon points="650.9,595.8 640.0,617.3 600.0,606.9 612.3,582.8" fill="rgb(117,67,138)" fill-opacity="0.9" stroke="#333" stroke-width="0.3"/>
<polygon points="1280.0,617.3 1269.1,595.8 1307.7,582.8 1320.0,606.9" fill="rgb(103,49,125)" fill-opacity="0.9" stroke="#333" stroke-width="0.3"/>
<polygon points="612.3,582.8 600.0,606.9 570.7,578.6 584.0,552.6" fill="rgb(75,36,91)" fill-opacity="0.9" stroke="#333" stroke-width="0.3"/>
<polygon points="1320.0,606.9 1307.7,582.8 1336.0,552.6 1349.3,578.6" fill="rgb(121,69,142)" fill-opacity="0.9" stroke="#333" stroke-width="0.3"/>
<polygon points="689.5,588.2 680.0,606.9 640.0,617.3 650.9,595.8" fill="rgb(99,47,120)" fill-opacity="0.9" stroke="#333" stroke-width="0.3"/>
<polygon points="1240.0,606.9 1230.5,588.2 1269.1,595.8 1280.0,617.3" fill="rgb(112,64,132)" fill-opacity="0.9" stroke="#333" stroke-width="0.3"/>
<polygon points="584.0,552.6 570.7,578.6 560.0,540.0 573.6,513.2" fill="rgb(56,32,66)" fill-opacity="0.9" stroke="#333" stroke-width="0.3"/>
<polygon points="1349.3,578.6 1336.0,552.6 1346.4,513.2 1360.0,540.0" fill="rgb(76,36,92)" fill-opacity="0.9" stroke="#333" stroke-width="0.3"/>
<polygon points="717.8,561.8 709.3,578.6 680.0,606.9 689.5,588.2" fill="rgb(107,61,126)" fill-opacity="0.9" stroke="#333" stroke-width="0.3"/>
<polygon points="1210.7,578.6 1202.2,561.8 1230.5,588.2 1240.0,606.9" fill="rgb(64,30,78)" fill-opacity="0.9" stroke="#333" stroke-width="0.3"/>
<polygon points="573.6,513.2 560.0,540.0 570.7,501.4 584.0,475.3" fill="rgb(61,29,74)" fill-opacity="0.9" stroke="#333" stroke-width="0.3"/>
<polygon points="1360.0,540.0 1346.4,513.2 1336.0,475.3 1349.3,501.4" fill="rgb(55,31,64)" fill-opacity="0.9" stroke="#333" stroke-width="0.3"/>
<line x1="956.3" y1="692.9" x2="963.7" y2="696.2" stroke="#888" stroke-width="1"/>
<text x="974.6" y="707.4" font-size="18" fill="#aaa" text-anchor="middle" font-family="sans-serif">-1</text>
<polygon points="728.2,523.9 720.0,540.0 709.3,578.6 717.8,561.8" fill="rgb(61,29,74)" fill-opacity="0.9" stroke="#333" stroke-width="0.3"/>
<polygon points="1200.0,540.0 1191.8,523.9 1202.2,561.8 1210.7,578.6" fill="rgb(55,31,64)" fill-opacity="0.9" stroke="#333" stroke-width="0.3"/>
<polygon points="584.0,475.3 570.7,501.4 600.0,473.1 612.3,449.0" fill="rgb(107,61,126)" fill-opacity="0.9" stroke="#333" stroke-width="0.3"/>
<polygon points="1349.3,501.4 1336.0,475.3 1307.7,449.0 1320.0,473.1" fill="rgb(64,30,78)" fill-opacity="0.9" stroke="#333" stroke-width="0.3"/>
<polygon points="717.8,484.6 709.3,501.4 720.0,540.0 728.2,523.9" fill="rgb(56,32,66)" fill-opacity="0.9" stroke="#333" stroke-width="0.3"/>
<polygon points="1210.7,501.4 1202.2,484.6 1191.8,523.9 1200.0,540.0" fill="rgb(76,36,92)" fill-opacity="0.9" stroke="#333" stroke-width="0.3"/>
<polygon points="612.3,449.0 600.0,473.1 640.0,462.7 650.9,441.3" fill="rgb(99,47,120)" fill-opacity="0.9" stroke="#333" stroke-width="0.3"/>
<polygon points="1320.0,473.1 1307.7,449.0 1269.1,441.3 1280.0,462.7" fill="rgb(112,64,132)" fill-opacity="0.9" stroke="#333" stroke-width="0.3"/>
<polygon points="689.5,454.3 680.0,473.1 709.3,501.4 717.8,484.6" fill="rgb(75,36,91)" fill-opacity="0.9" stroke="#333" stroke-width="0.3"/>
<polygon points="1240.0,473.1 1230.5,454.3 1202.2,484.6 1210.7,501.4" fill="rgb(121,69,142)" fill-opacity="0.9" stroke="#333" stroke-width="0.3"/>
<polygon points="650.9,441.3 640.0,462.7 680.0,473.1 689.5,454.3" fill="rgb(117,67,138)" fill-opacity="0.9" stroke="#333" stroke-width="0.3"/>
<polygon points="1280.0,462.7 1269.1,441.3 1230.5,454.3 1240.0,473.1" fill="rgb(103,49,125)" fill-opacity="0.9" stroke="#333" stroke-width="0.3"/>
<line x1="640.0" y1="396.5" x2="1280.0" y2="683.5" stroke="#888" stroke-width="2"/>
<polygon points="1280.0,683.5 1271.4,683.1 1274.0,677.3" fill="#888" stroke="none"/>
<line x1="405.7" y1="622.8" x2="1514.3" y2="457.2" stroke="#888" stroke-width="2"/>
<polygon points="1514.3,457.2 1506.8,461.5 1505.9,455.2" fill="#888" stroke="none"/>
<line x1="960.0" y1="849.1" x2="960.0" y2="230.9" stroke="#888" stroke-width="2"/>
<polygon points="960.0,230.9 963.2,238.9 956.8,238.9" fill="#888" stroke="none"/>
<line x1="956.0" y1="540.6" x2="964.0" y2="539.4" stroke="#888" stroke-width="1"/>
<text x="975.8" y="543.9" font-size="18" fill="#aaa" text-anchor="middle" font-family="sans-serif">0</text>
<line x1="956.3" y1="538.4" x2="963.7" y2="541.6" stroke="#888" stroke-width="1"/>
<text x="974.6" y="552.8" font-size="18" fill="#aaa" text-anchor="middle" font-family="sans-serif">0</text>
<line x1="956.3" y1="538.4" x2="963.7" y2="541.6" stroke="#888" stroke-width="1"/>
<text x="974.6" y="552.8" font-size="18" fill="#aaa" text-anchor="middle" font-family="sans-serif">0</text>
<g>
<path d='M3.33-3.01C3.39-3.27 3.62-4.18 4.31-4.18C4.36-4.18 4.6-4.18 4.81-4.05C4.53-4 4.33-3.76 4.33-3.52C4.33-3.36 4.44-3.17 4.71-3.17C4.93-3.17 5.25-3.35 5.25-3.75C5.25-4.26 4.66-4.4 4.32-4.4C3.75-4.4 3.4-3.88 3.28-3.65C3.03-4.3 2.49-4.4 2.2-4.4C1.17-4.4 .597758-3.12 .597758-2.87C.597758-2.77 .697385-2.77 .71731-2.77C.797011-2.77 .826899-2.79 .846824-2.88C1.19-3.94 1.84-4.18 2.18-4.18C2.37-4.18 2.72-4.09 2.72-3.52C2.72-3.21 2.55-2.54 2.18-1.15C2.02-.52802 1.67-.109589 1.24-.109589C1.18-.109589 .946451-.109589 .737235-.239103C.986301-.288917 1.21-.498132 1.21-.777086C1.21-1.05 .986301-1.13 .836862-1.13C.537983-1.13 .288917-.86675 .288917-.547945C.288917-.089664 .787049 .109589 1.23 .109589C1.88 .109589 2.24-.587796 2.27-.647572C2.39-.278954 2.75 .109589 3.35 .109589C4.37 .109589 4.94-1.18 4.94-1.42C4.94-1.52 4.85-1.52 4.82-1.52C4.73-1.52 4.71-1.48 4.69-1.41C4.36-.348692 3.69-.109589 3.37-.109589C2.98-.109589 2.82-.428394 2.82-.767123C2.82-.986301 2.88-1.21 2.99-1.64L3.33-3.01Z' fill='rgb(170,170,170)' stroke='rgb(255,255,255)' stroke-width='0' transform='translate(1299.92,707.16) scale(4.36,4.36)' />
</g>
<g>
<path d='M4.84-3.8C4.88-3.94 4.88-3.96 4.88-4.02C4.88-4.2 4.74-4.29 4.59-4.29C4.49-4.29 4.33-4.23 4.24-4.08C4.22-4.03 4.14-3.73 4.1-3.55C4.03-3.29 3.97-3.02 3.91-2.75L3.46-.956413C3.42-.806974 2.99-.109589 2.33-.109589C1.82-.109589 1.71-.547945 1.71-.916563C1.71-1.37 1.88-1.99 2.22-2.87C2.38-3.28 2.42-3.39 2.42-3.59C2.42-4.03 2.1-4.4 1.6-4.4C.657534-4.4 .288917-2.96 .288917-2.87C.288917-2.77 .388543-2.77 .408468-2.77C.508095-2.77 .518057-2.79 .56787-2.95C.836862-3.89 1.24-4.18 1.57-4.18C1.65-4.18 1.82-4.18 1.82-3.87C1.82-3.62 1.72-3.36 1.65-3.17C1.26-2.11 1.08-1.54 1.08-1.08C1.08-.18929 1.7 .109589 2.29 .109589C2.68 .109589 3.02-.059776 3.3-.33873C3.17 .179328 3.05 .667497 2.65 1.2C2.39 1.53 2.01 1.82 1.55 1.82C1.41 1.82 .966376 1.79 .797011 1.4C.956413 1.4 1.09 1.4 1.23 1.29C1.33 1.2 1.42 1.07 1.42 .876712C1.42 .56787 1.16 .52802 1.06 .52802C.826899 .52802 .498132 .687422 .498132 1.18C.498132 1.67 .936488 2.04 1.55 2.04C2.58 2.04 3.61 1.14 3.89 .009963L4.84-3.8Z' fill='rgb(170,170,170)' stroke='rgb(255,255,255)' stroke-width='0' transform='translate(1558.41,454.04) scale(4.36,4.36)' />
</g>
<g>
<path d='M1.33-.826899C1.86-1.4 2.15-1.65 2.51-1.96C2.51-1.97 3.13-2.5 3.49-2.86C4.43-3.79 4.65-4.26 4.65-4.3C4.65-4.4 4.56-4.4 4.54-4.4C4.47-4.4 4.44-4.38 4.39-4.29C4.09-3.82 3.89-3.66 3.65-3.66S3.29-3.81 3.14-3.98C2.95-4.2 2.78-4.4 2.45-4.4C1.7-4.4 1.25-3.48 1.25-3.27C1.25-3.22 1.28-3.16 1.36-3.16S1.47-3.21 1.49-3.27C1.68-3.73 2.26-3.74 2.34-3.74C2.55-3.74 2.74-3.67 2.97-3.59C3.37-3.44 3.48-3.44 3.74-3.44C3.38-3.01 2.54-2.29 2.35-2.13L1.45-1.3C.777086-.627646 .428394-.059776 .428394 .009963C.428394 .109589 .52802 .109589 .547945 .109589C.627646 .109589 .647572 .089664 .707347-.019925C.936488-.368618 1.24-.637609 1.55-.637609C1.78-.637609 1.88-.547945 2.13-.259029C2.3-.049813 2.48 .109589 2.77 .109589C3.76 .109589 4.33-1.16 4.33-1.42C4.33-1.47 4.29-1.52 4.21-1.52C4.12-1.52 4.1-1.46 4.07-1.39C3.85-.747198 3.21-.557908 2.88-.557908C2.68-.557908 2.5-.617684 2.29-.687422C1.95-.816936 1.8-.856787 1.59-.856787C1.57-.856787 1.41-.856787 1.33-.826899Z' fill='rgb(170,170,170)' stroke='rgb(255,255,255)' stroke-width='0' transform='translate(948.92,178.45) scale(4.36,4.36)' />
</g>
<polygon points="680.0,606.9 689.5,625.7 650.9,638.7 640.0,617.3" fill="rgb(128,73,150)" fill-opacity="0.9" stroke="#333" stroke-width="0.3"/>
<polygon points="1230.5,625.7 1240.0,606.9 1280.0,617.3 1269.1,638.7" fill="rgb(95,45,115)" fill-opacity="0.9" stroke="#333" stroke-width="0.3"/>
<polygon points="709.3,578.6 717.8,595.4 689.5,625.7 680.0,606.9" fill="rgb(97,46,119)" fill-opacity="0.9" stroke="#333" stroke-width="0.3"/>
<polygon points="1202.2,595.4 1210.7,578.6 1240.0,606.9 1230.5,625.7" fill="rgb(93,53,109)" fill-opacity="0.9" stroke="#333" stroke-width="0.3"/>
<polygon points="640.0,617.3 650.9,638.7 612.3,631.0 600.0,606.9" fill="rgb(91,43,110)" fill-opacity="0.9" stroke="#333" stroke-width="0.3"/>
<polygon points="1269.1,638.7 1280.0,617.3 1320.0,606.9 1307.7,631.0" fill="rgb(123,70,144)" fill-opacity="0.9" stroke="#333" stroke-width="0.3"/>
<polygon points="720.0,540.0 728.2,556.1 717.8,595.4 709.3,578.6" fill="rgb(94,54,111)" fill-opacity="0.9" stroke="#333" stroke-width="0.3"/>
<polygon points="1191.8,556.1 1200.0,540.0 1210.7,578.6 1202.2,595.4" fill="rgb(45,21,55)" fill-opacity="0.9" stroke="#333" stroke-width="0.3"/>
<polygon points="600.0,606.9 612.3,631.0 584.0,604.7 570.7,578.6" fill="rgb(79,45,93)" fill-opacity="0.9" stroke="#333" stroke-width="0.3"/>
<polygon points="1307.7,631.0 1320.0,606.9 1349.3,578.6 1336.0,604.7" fill="rgb(86,41,105)" fill-opacity="0.9" stroke="#333" stroke-width="0.3"/>
<polygon points="709.3,501.4 717.8,518.2 728.2,556.1 720.0,540.0" fill="rgb(44,21,54)" fill-opacity="0.9" stroke="#333" stroke-width="0.3"/>
<polygon points="1202.2,518.2 1210.7,501.4 1200.0,540.0 1191.8,556.1" fill="rgb(75,43,89)" fill-opacity="0.9" stroke="#333" stroke-width="0.3"/>
<line x1="956.3" y1="383.8" x2="963.7" y2="387.1" stroke="#888" stroke-width="1"/>
<text x="974.6" y="398.3" font-size="18" fill="#aaa" text-anchor="middle" font-family="sans-serif">1</text>
<polygon points="570.7,578.6 584.0,604.7 573.6,566.8 560.0,540.0" fill="rgb(44,21,54)" fill-opacity="0.9" stroke="#333" stroke-width="0.3"/>
<polygon points="1336.0,604.7 1349.3,578.6 1360.0,540.0 1346.4,566.8" fill="rgb(75,43,89)" fill-opacity="0.9" stroke="#333" stroke-width="0.3"/>
<polygon points="680.0,473.1 689.5,491.8 717.8,518.2 709.3,501.4" fill="rgb(79,45,93)" fill-opacity="0.9" stroke="#333" stroke-width="0.3"/>
<polygon points="1230.5,491.8 1240.0,473.1 1210.7,501.4 1202.2,518.2" fill="rgb(86,41,105)" fill-opacity="0.9" stroke="#333" stroke-width="0.3"/>
<polygon points="560.0,540.0 573.6,566.8 584.0,527.4 570.7,501.4" fill="rgb(94,54,111)" fill-opacity="0.9" stroke="#333" stroke-width="0.3"/>
<polygon points="1346.4,566.8 1360.0,540.0 1349.3,501.4 1336.0,527.4" fill="rgb(45,21,55)" fill-opacity="0.9" stroke="#333" stroke-width="0.3"/>
<polygon points="640.0,462.7 650.9,484.2 689.5,491.8 680.0,473.1" fill="rgb(91,43,110)" fill-opacity="0.9" stroke="#333" stroke-width="0.3"/>
<polygon points="1269.1,484.2 1280.0,462.7 1240.0,473.1 1230.5,491.8" fill="rgb(123,70,144)" fill-opacity="0.9" stroke="#333" stroke-width="0.3"/>
<polygon points="570.7,501.4 584.0,527.4 612.3,497.2 600.0,473.1" fill="rgb(97,46,119)" fill-opacity="0.9" stroke="#333" stroke-width="0.3"/>
<polygon points="1336.0,527.4 1349.3,501.4 1320.0,473.1 1307.7,497.2" fill="rgb(93,53,109)" fill-opacity="0.9" stroke="#333" stroke-width="0.3"/>
<polygon points="600.0,473.1 612.3,497.2 650.9,484.2 640.0,462.7" fill="rgb(128,73,150)" fill-opacity="0.9" stroke="#333" stroke-width="0.3"/>
<polygon points="1307.7,497.2 1320.0,473.1 1280.0,462.7 1269.1,484.2" fill="rgb(95,45,115)" fill-opacity="0.9" stroke="#333" stroke-width="0.3"/>
<line x1="956.3" y1="229.3" x2="963.7" y2="232.5" stroke="#888" stroke-width="1"/>
<text x="974.6" y="243.7" font-size="18" fill="#aaa" text-anchor="middle" font-family="sans-serif">2</text>
<polygon points="717.8,595.4 742.9,611.1 717.5,643.2 689.5,625.7" fill="rgb(133,76,156)" fill-opacity="0.9" stroke="#333" stroke-width="0.3"/>
<polygon points="1177.1,611.1 1202.2,595.4 1230.5,625.7 1202.5,643.2" fill="rgb(86,41,105)" fill-opacity="0.9" stroke="#333" stroke-width="0.3"/>
<polygon points="728.2,556.1 752.2,571.1 742.9,611.1 717.8,595.4" fill="rgb(89,43,109)" fill-opacity="0.9" stroke="#333" stroke-width="0.3"/>
<polygon points="1167.8,571.1 1191.8,556.1 1202.2,595.4 1177.1,611.1" fill="rgb(75,43,89)" fill-opacity="0.9" stroke="#333" stroke-width="0.3"/>
<polygon points="689.5,625.7 717.5,643.2 682.9,658.7 650.9,638.7" fill="rgb(107,51,130)" fill-opacity="0.9" stroke="#333" stroke-width="0.3"/>
<polygon points="1202.5,643.2 1230.5,625.7 1269.1,638.7 1237.1,658.7" fill="rgb(123,70,144)" fill-opacity="0.9" stroke="#333" stroke-width="0.3"/>
<polygon points="717.8,518.2 742.9,533.8 752.2,571.1 728.2,556.1" fill="rgb(71,41,84)" fill-opacity="0.9" stroke="#333" stroke-width="0.3"/>
<polygon points="1177.1,533.8 1202.2,518.2 1191.8,556.1 1167.8,571.1" fill="rgb(45,21,55)" fill-opacity="0.9" stroke="#333" stroke-width="0.3"/>
<polygon points="650.9,638.7 682.9,658.7 648.2,653.5 612.3,631.0" fill="rgb(108,62,127)" fill-opacity="0.9" stroke="#333" stroke-width="0.3"/>
<polygon points="1237.1,658.7 1269.1,638.7 1307.7,631.0 1271.8,653.5" fill="rgb(95,45,115)" fill-opacity="0.9" stroke="#333" stroke-width="0.3"/>
<polygon points="689.5,491.8 717.5,509.3 742.9,533.8 717.8,518.2" fill="rgb(54,26,66)" fill-opacity="0.9" stroke="#333" stroke-width="0.3"/>
<polygon points="1202.5,509.3 1230.5,491.8 1202.2,518.2 1177.1,533.8" fill="rgb(93,53,109)" fill-opacity="0.9" stroke="#333" stroke-width="0.3"/>
<polygon points="612.3,631.0 648.2,653.5 622.9,629.0 584.0,604.7" fill="rgb(54,26,66)" fill-opacity="0.9" stroke="#333" stroke-width="0.3"/>
<polygon points="1271.8,653.5 1307.7,631.0 1336.0,604.7 1297.1,629.0" fill="rgb(93,53,109)" fill-opacity="0.9" stroke="#333" stroke-width="0.3"/>
<polygon points="650.9,484.2 682.9,504.1 717.5,509.3 689.5,491.8" fill="rgb(108,62,127)" fill-opacity="0.9" stroke="#333" stroke-width="0.3"/>
<polygon points="1237.1,504.1 1269.1,484.2 1230.5,491.8 1202.5,509.3" fill="rgb(95,45,115)" fill-opacity="0.9" stroke="#333" stroke-width="0.3"/>
<polygon points="752.2,571.1 790.3,583.9 782.7,624.5 742.9,611.1" fill="rgb(125,71,146)" fill-opacity="0.9" stroke="#333" stroke-width="0.3"/>
<polygon points="1129.7,583.9 1167.8,571.1 1177.1,611.1 1137.3,624.5" fill="rgb(76,36,92)" fill-opacity="0.9" stroke="#333" stroke-width="0.3"/>
<polygon points="584.0,604.7 622.9,629.0 613.6,591.8 573.6,566.8" fill="rgb(71,41,84)" fill-opacity="0.9" stroke="#333" stroke-width="0.3"/>
<polygon points="1297.1,629.0 1336.0,604.7 1346.4,566.8 1306.4,591.8" fill="rgb(45,21,55)" fill-opacity="0.9" stroke="#333" stroke-width="0.3"/>
<polygon points="742.9,611.1 782.7,624.5 762.0,658.2 717.5,643.2" fill="rgb(115,55,140)" fill-opacity="0.9" stroke="#333" stroke-width="0.3"/>
<polygon points="1137.3,624.5 1177.1,611.1 1202.5,643.2 1158.0,658.2" fill="rgb(121,69,142)" fill-opacity="0.9" stroke="#333" stroke-width="0.3"/>
<polygon points="612.3,497.2 648.2,519.7 682.9,504.1 650.9,484.2" fill="rgb(107,51,130)" fill-opacity="0.9" stroke="#333" stroke-width="0.3"/>
<polygon points="1271.8,519.7 1307.7,497.2 1269.1,484.2 1237.1,504.1" fill="rgb(123,70,144)" fill-opacity="0.9" stroke="#333" stroke-width="0.3"/>
<polygon points="742.9,533.8 782.7,547.2 790.3,583.9 752.2,571.1" fill="rgb(69,33,83)" fill-opacity="0.9" stroke="#333" stroke-width="0.3"/>
<polygon points="1137.3,547.2 1177.1,533.8 1167.8,571.1 1129.7,583.9" fill="rgb(55,31,64)" fill-opacity="0.9" stroke="#333" stroke-width="0.3"/>
<polygon points="573.6,566.8 613.6,591.8 622.9,551.7 584.0,527.4" fill="rgb(89,43,109)" fill-opacity="0.9" stroke="#333" stroke-width="0.3"/>
<polygon points="1306.4,591.8 1346.4,566.8 1336.0,527.4 1297.1,551.7" fill="rgb(75,43,89)" fill-opacity="0.9" stroke="#333" stroke-width="0.3"/>
<polygon points="584.0,527.4 622.9,551.7 648.2,519.7 612.3,497.2" fill="rgb(133,76,156)" fill-opacity="0.9" stroke="#333" stroke-width="0.3"/>
<polygon points="1297.1,551.7 1336.0,527.4 1307.7,497.2 1271.8,519.7" fill="rgb(86,41,105)" fill-opacity="0.9" stroke="#333" stroke-width="0.3"/>
<line x1="679.2" y1="579.8" x2="686.5" y2="583.0" stroke="#888" stroke-width="1"/>
<text x="697.5" y="594.3" font-size="18" fill="#aaa" text-anchor="middle" font-family="sans-serif">-2</text>
<polygon points="717.5,643.2 762.0,658.2 733.7,675.8 682.9,658.7" fill="rgb(136,78,160)" fill-opacity="0.9" stroke="#333" stroke-width="0.3"/>
<polygon points="1158.0,658.2 1202.5,643.2 1237.1,658.7 1186.3,675.8" fill="rgb(103,49,125)" fill-opacity="0.9" stroke="#333" stroke-width="0.3"/>
<polygon points="717.5,509.3 762.0,524.3 782.7,547.2 742.9,533.8" fill="rgb(57,32,67)" fill-opacity="0.9" stroke="#333" stroke-width="0.3"/>
<polygon points="1158.0,524.3 1202.5,509.3 1177.1,533.8 1137.3,547.2" fill="rgb(64,30,78)" fill-opacity="0.9" stroke="#333" stroke-width="0.3"/>
<polygon points="682.9,658.7 733.7,675.8 705.4,672.8 648.2,653.5" fill="rgb(84,40,102)" fill-opacity="0.9" stroke="#333" stroke-width="0.3"/>
<polygon points="1186.3,675.8 1237.1,658.7 1271.8,653.5 1214.6,672.8" fill="rgb(112,64,132)" fill-opacity="0.9" stroke="#333" stroke-width="0.3"/>
<polygon points="790.3,583.9 840.0,593.8 834.6,634.8 782.7,624.5" fill="rgb(108,52,132)" fill-opacity="0.9" stroke="#333" stroke-width="0.3"/>
<polygon points="1080.0,593.8 1129.7,583.9 1137.3,624.5 1085.4,634.8" fill="rgb(111,63,130)" fill-opacity="0.9" stroke="#333" stroke-width="0.3"/>
<polygon points="782.7,624.5 834.6,634.8 820.0,669.7 762.0,658.2" fill="rgb(150,86,177)" fill-opacity="0.9" stroke="#333" stroke-width="0.3"/>
<polygon points="1085.4,634.8 1137.3,624.5 1158.0,658.2 1100.0,669.7" fill="rgb(107,51,131)" fill-opacity="0.9" stroke="#333" stroke-width="0.3"/>
<polygon points="782.7,547.2 834.6,557.6 840.0,593.8 790.3,583.9" fill="rgb(95,54,111)" fill-opacity="0.9" stroke="#333" stroke-width="0.3"/>
<polygon points="1085.4,557.6 1137.3,547.2 1129.7,583.9 1080.0,593.8" fill="rgb(58,27,70)" fill-opacity="0.9" stroke="#333" stroke-width="0.3"/>
<polygon points="682.9,504.1 733.7,521.3 762.0,524.3 717.5,509.3" fill="rgb(84,40,102)" fill-opacity="0.9" stroke="#333" stroke-width="0.3"/>
<polygon points="1186.3,521.3 1237.1,504.1 1202.5,509.3 1158.0,524.3" fill="rgb(112,64,132)" fill-opacity="0.9" stroke="#333" stroke-width="0.3"/>
<polygon points="648.2,653.5 705.4,672.8 684.7,649.9 622.9,629.0" fill="rgb(57,32,67)" fill-opacity="0.9" stroke="#333" stroke-width="0.3"/>
<polygon points="1214.6,672.8 1271.8,653.5 1297.1,629.0 1235.3,649.9" fill="rgb(64,30,78)" fill-opacity="0.9" stroke="#333" stroke-width="0.3"/>
<polygon points="762.0,658.2 820.0,669.7 800.0,689.0 733.7,675.8" fill="rgb(112,53,136)" fill-opacity="0.9" stroke="#333" stroke-width="0.3"/>
<polygon points="1100.0,669.7 1158.0,658.2 1186.3,675.8 1120.0,689.0" fill="rgb(132,76,155)" fill-opacity="0.9" stroke="#333" stroke-width="0.3"/>
<polygon points="840.0,593.8 897.9,600.0 895.1,641.3 834.6,634.8" fill="rgb(139,80,164)" fill-opacity="0.9" stroke="#333" stroke-width="0.3"/>
<polygon points="1022.1,600.0 1080.0,593.8 1085.4,634.8 1024.9,641.3" fill="rgb(100,48,122)" fill-opacity="0.9" stroke="#333" stroke-width="0.3"/>
<polygon points="762.0,524.3 820.0,535.8 834.6,557.6 782.7,547.2" fill="rgb(40,19,49)" fill-opacity="0.9" stroke="#333" stroke-width="0.3"/>
<polygon points="1100.0,535.8 1158.0,524.3 1137.3,547.2 1085.4,557.6" fill="rgb(67,38,79)" fill-opacity="0.9" stroke="#333" stroke-width="0.3"/>
<polygon points="648.2,519.7 705.4,539.0 733.7,521.3 682.9,504.1" fill="rgb(136,78,160)" fill-opacity="0.9" stroke="#333" stroke-width="0.3"/>
<polygon points="1214.6,539.0 1271.8,519.7 1237.1,504.1 1186.3,521.3" fill="rgb(103,49,125)" fill-opacity="0.9" stroke="#333" stroke-width="0.3"/>
<polygon points="834.6,634.8 895.1,641.3 887.5,676.9 820.0,669.7" fill="rgb(124,59,151)" fill-opacity="0.9" stroke="#333" stroke-width="0.3"/>
<polygon points="1024.9,641.3 1085.4,634.8 1100.0,669.7 1032.5,676.9" fill="rgb(143,82,168)" fill-opacity="0.9" stroke="#333" stroke-width="0.3"/>
<polygon points="834.6,557.6 895.1,564.0 897.9,600.0 840.0,593.8" fill="rgb(80,38,98)" fill-opacity="0.9" stroke="#333" stroke-width="0.3"/>
<polygon points="1024.9,564.0 1085.4,557.6 1080.0,593.8 1022.1,600.0" fill="rgb(85,49,100)" fill-opacity="0.9" stroke="#333" stroke-width="0.3"/>
<polygon points="622.9,629.0 684.7,649.9 677.2,613.2 613.6,591.8" fill="rgb(69,33,83)" fill-opacity="0.9" stroke="#333" stroke-width="0.3"/>
<polygon points="1235.3,649.9 1297.1,629.0 1306.4,591.8 1242.8,613.2" fill="rgb(55,31,64)" fill-opacity="0.9" stroke="#333" stroke-width="0.3"/>
<polygon points="897.9,600.0 960.0,602.1 960.0,643.5 895.1,641.3" fill="rgb(112,54,137)" fill-opacity="0.9" stroke="#333" stroke-width="0.3"/>
<polygon points="960.0,602.1 1022.1,600.0 1024.9,641.3 960.0,643.5" fill="rgb(134,77,158)" fill-opacity="0.9" stroke="#333" stroke-width="0.3"/>
<polygon points="622.9,551.7 684.7,572.6 705.4,539.0 648.2,519.7" fill="rgb(115,55,140)" fill-opacity="0.9" stroke="#333" stroke-width="0.3"/>
<polygon points="1235.3,572.6 1297.1,551.7 1271.8,519.7 1214.6,539.0" fill="rgb(121,69,142)" fill-opacity="0.9" stroke="#333" stroke-width="0.3"/>
<polygon points="613.6,591.8 677.2,613.2 684.7,572.6 622.9,551.7" fill="rgb(125,71,146)" fill-opacity="0.9" stroke="#333" stroke-width="0.3"/>
<polygon points="1242.8,613.2 1306.4,591.8 1297.1,551.7 1235.3,572.6" fill="rgb(76,36,92)" fill-opacity="0.9" stroke="#333" stroke-width="0.3"/>
<polygon points="895.1,641.3 960.0,643.5 960.0,679.4 887.5,676.9" fill="rgb(154,88,181)" fill-opacity="0.9" stroke="#333" stroke-width="0.3"/>
<polygon points="960.0,643.5 1024.9,641.3 1032.5,676.9 960.0,679.4" fill="rgb(121,58,147)" fill-opacity="0.9" stroke="#333" stroke-width="0.3"/>
<polygon points="895.1,564.0 960.0,566.3 960.0,602.1 897.9,600.0" fill="rgb(100,57,117)" fill-opacity="0.9" stroke="#333" stroke-width="0.3"/>
<polygon points="960.0,566.3 1024.9,564.0 1022.1,600.0 960.0,602.1" fill="rgb(76,36,93)" fill-opacity="0.9" stroke="#333" stroke-width="0.3"/>
<polygon points="733.7,675.8 800.0,689.0 780.0,687.6 705.4,672.8" fill="rgb(102,58,119)" fill-opacity="0.9" stroke="#333" stroke-width="0.3"/>
<polygon points="1120.0,689.0 1186.3,675.8 1214.6,672.8 1140.0,687.6" fill="rgb(87,41,106)" fill-opacity="0.9" stroke="#333" stroke-width="0.3"/>
<polygon points="820.0,669.7 887.5,676.9 877.2,697.3 800.0,689.0" fill="rgb(140,80,164)" fill-opacity="0.9" stroke="#333" stroke-width="0.3"/>
<polygon points="1032.5,676.9 1100.0,669.7 1120.0,689.0 1042.8,697.3" fill="rgb(110,52,133)" fill-opacity="0.9" stroke="#333" stroke-width="0.3"/>
<polygon points="733.7,521.3 800.0,534.5 820.0,535.8 762.0,524.3" fill="rgb(102,58,119)" fill-opacity="0.9" stroke="#333" stroke-width="0.3"/>
<polygon points="1120.0,534.5 1186.3,521.3 1158.0,524.3 1100.0,535.8" fill="rgb(87,41,106)" fill-opacity="0.9" stroke="#333" stroke-width="0.3"/>
<polygon points="820.0,535.8 887.5,543.1 895.1,564.0 834.6,557.6" fill="rgb(46,26,54)" fill-opacity="0.9" stroke="#333" stroke-width="0.3"/>
<polygon points="1032.5,543.1 1100.0,535.8 1085.4,557.6 1024.9,564.0" fill="rgb(46,22,56)" fill-opacity="0.9" stroke="#333" stroke-width="0.3"/>
<polygon points="887.5,676.9 960.0,679.4 960.0,700.1 877.2,697.3" fill="rgb(113,54,137)" fill-opacity="0.9" stroke="#333" stroke-width="0.3"/>
<polygon points="960.0,679.4 1032.5,676.9 1042.8,697.3 960.0,700.1" fill="rgb(139,79,163)" fill-opacity="0.9" stroke="#333" stroke-width="0.3"/>
<polygon points="887.5,543.1 960.0,545.5 960.0,566.3 895.1,564.0" fill="rgb(37,18,45)" fill-opacity="0.9" stroke="#333" stroke-width="0.3"/>
<polygon points="960.0,545.5 1032.5,543.1 1024.9,564.0 960.0,566.3" fill="rgb(50,28,58)" fill-opacity="0.9" stroke="#333" stroke-width="0.3"/>
<line x1="1116.0" y1="612.3" x2="1124.0" y2="611.1" stroke="#888" stroke-width="1"/>
<text x="1135.8" y="615.7" font-size="18" fill="#aaa" text-anchor="middle" font-family="sans-serif">2</text>
<polygon points="705.4,672.8 780.0,687.6 765.4,665.9 684.7,649.9" fill="rgb(40,19,49)" fill-opacity="0.9" stroke="#333" stroke-width="0.3"/>
<polygon points="1140.0,687.6 1214.6,672.8 1235.3,649.9 1154.6,665.9" fill="rgb(67,38,79)" fill-opacity="0.9" stroke="#333" stroke-width="0.3"/>
<polygon points="705.4,539.0 780.0,553.8 800.0,534.5 733.7,521.3" fill="rgb(112,53,136)" fill-opacity="0.9" stroke="#333" stroke-width="0.3"/>
<polygon points="1140.0,553.8 1214.6,539.0 1186.3,521.3 1120.0,534.5" fill="rgb(132,76,155)" fill-opacity="0.9" stroke="#333" stroke-width="0.3"/>
<polygon points="800.0,689.0 877.2,697.3 866.8,696.9 780.0,687.6" fill="rgb(81,38,98)" fill-opacity="0.9" stroke="#333" stroke-width="0.3"/>
<polygon points="1042.8,697.3 1120.0,689.0 1140.0,687.6 1053.2,696.9" fill="rgb(104,60,122)" fill-opacity="0.9" stroke="#333" stroke-width="0.3"/>
<polygon points="800.0,534.5 877.2,542.7 887.5,543.1 820.0,535.8" fill="rgb(81,38,98)" fill-opacity="0.9" stroke="#333" stroke-width="0.3"/>
<polygon points="1042.8,542.7 1120.0,534.5 1100.0,535.8 1032.5,543.1" fill="rgb(104,60,122)" fill-opacity="0.9" stroke="#333" stroke-width="0.3"/>
<polygon points="684.7,649.9 765.4,665.9 760.0,629.7 677.2,613.2" fill="rgb(95,54,111)" fill-opacity="0.9" stroke="#333" stroke-width="0.3"/>
<polygon points="1154.6,665.9 1235.3,649.9 1242.8,613.2 1160.0,629.7" fill="rgb(58,27,70)" fill-opacity="0.9" stroke="#333" stroke-width="0.3"/>
<polygon points="684.7,572.6 765.4,588.6 780.0,553.8 705.4,539.0" fill="rgb(150,86,177)" fill-opacity="0.9" stroke="#333" stroke-width="0.3"/>
<polygon points="1154.6,588.6 1235.3,572.6 1214.6,539.0 1140.0,553.8" fill="rgb(107,51,131)" fill-opacity="0.9" stroke="#333" stroke-width="0.3"/>
<polygon points="877.2,697.3 960.0,700.1 960.0,700.1 866.8,696.9" fill="rgb(100,57,118)" fill-opacity="0.9" stroke="#333" stroke-width="0.3"/>
<polygon points="960.0,700.1 1042.8,697.3 1053.2,696.9 960.0,700.1" fill="rgb(82,39,100)" fill-opacity="0.9" stroke="#333" stroke-width="0.3"/>
<polygon points="877.2,542.7 960.0,545.5 960.0,545.5 887.5,543.1" fill="rgb(100,57,118)" fill-opacity="0.9" stroke="#333" stroke-width="0.3"/>
<polygon points="960.0,545.5 1042.8,542.7 1032.5,543.1 960.0,545.5" fill="rgb(82,39,100)" fill-opacity="0.9" stroke="#333" stroke-width="0.3"/>
<polygon points="677.2,613.2 760.0,629.7 765.4,588.6 684.7,572.6" fill="rgb(108,52,132)" fill-opacity="0.9" stroke="#333" stroke-width="0.3"/>
<polygon points="1160.0,629.7 1242.8,613.2 1235.3,572.6 1154.6,588.6" fill="rgb(111,63,130)" fill-opacity="0.9" stroke="#333" stroke-width="0.3"/>
<line x1="402.1" y1="621.2" x2="409.4" y2="624.5" stroke="#888" stroke-width="1"/>
<text x="420.3" y="635.7" font-size="18" fill="#aaa" text-anchor="middle" font-family="sans-serif">-4</text>
<polygon points="780.0,687.6 866.8,696.9 859.2,676.0 765.4,665.9" fill="rgb(46,26,54)" fill-opacity="0.9" stroke="#333" stroke-width="0.3"/>
<polygon points="1053.2,696.9 1140.0,687.6 1154.6,665.9 1060.8,676.0" fill="rgb(46,22,56)" fill-opacity="0.9" stroke="#333" stroke-width="0.3"/>
<polygon points="780.0,553.8 866.8,563.1 877.2,542.7 800.0,534.5" fill="rgb(140,80,164)" fill-opacity="0.9" stroke="#333" stroke-width="0.3"/>
<polygon points="1053.2,563.1 1140.0,553.8 1120.0,534.5 1042.8,542.7" fill="rgb(110,52,133)" fill-opacity="0.9" stroke="#333" stroke-width="0.3"/>
<polygon points="866.8,696.9 960.0,700.1 960.0,679.4 859.2,676.0" fill="rgb(37,18,45)" fill-opacity="0.9" stroke="#333" stroke-width="0.3"/>
<polygon points="960.0,700.1 1053.2,696.9 1060.8,676.0 960.0,679.4" fill="rgb(50,28,58)" fill-opacity="0.9" stroke="#333" stroke-width="0.3"/>
<polygon points="866.8,563.1 960.0,566.3 960.0,545.5 877.2,542.7" fill="rgb(113,54,137)" fill-opacity="0.9" stroke="#333" stroke-width="0.3"/>
<polygon points="960.0,566.3 1053.2,563.1 1042.8,542.7 960.0,545.5" fill="rgb(139,79,163)" fill-opacity="0.9" stroke="#333" stroke-width="0.3"/>
<polygon points="765.4,665.9 859.2,676.0 856.5,640.0 760.0,629.7" fill="rgb(80,38,98)" fill-opacity="0.9" stroke="#333" stroke-width="0.3"/>
<polygon points="1060.8,676.0 1154.6,665.9 1160.0,629.7 1063.5,640.0" fill="rgb(85,49,100)" fill-opacity="0.9" stroke="#333" stroke-width="0.3"/>
<polygon points="765.4,588.6 859.2,598.7 866.8,563.1 780.0,553.8" fill="rgb(124,59,151)" fill-opacity="0.9" stroke="#333" stroke-width="0.3"/>
<polygon points="1060.8,598.7 1154.6,588.6 1140.0,553.8 1053.2,563.1" fill="rgb(143,82,168)" fill-opacity="0.9" stroke="#333" stroke-width="0.3"/>
<polygon points="760.0,629.7 856.5,640.0 859.2,598.7 765.4,588.6" fill="rgb(139,80,164)" fill-opacity="0.9" stroke="#333" stroke-width="0.3"/>
<polygon points="1063.5,640.0 1160.0,629.7 1154.6,588.6 1060.8,598.7" fill="rgb(100,48,122)" fill-opacity="0.9" stroke="#333" stroke-width="0.3"/>
<polygon points="859.2,676.0 960.0,679.4 960.0,643.5 856.5,640.0" fill="rgb(100,57,117)" fill-opacity="0.9" stroke="#333" stroke-width="0.3"/>
<polygon points="960.0,679.4 1060.8,676.0 1063.5,640.0 960.0,643.5" fill="rgb(76,36,93)" fill-opacity="0.9" stroke="#333" stroke-width="0.3"/>
<polygon points="859.2,598.7 960.0,602.1 960.0,566.3 866.8,563.1" fill="rgb(154,88,181)" fill-opacity="0.9" stroke="#333" stroke-width="0.3"/>
<polygon points="960.0,602.1 1060.8,598.7 1053.2,563.1 960.0,566.3" fill="rgb(121,58,147)" fill-opacity="0.9" stroke="#333" stroke-width="0.3"/>
<polygon points="856.5,640.0 960.0,643.5 960.0,602.1 859.2,598.7" fill="rgb(112,54,137)" fill-opacity="0.9" stroke="#333" stroke-width="0.3"/>
<polygon points="960.0,643.5 1063.5,640.0 1060.8,598.7 960.0,602.1" fill="rgb(134,77,158)" fill-opacity="0.9" stroke="#333" stroke-width="0.3"/>
<line x1="1276.0" y1="684.0" x2="1284.0" y2="682.9" stroke="#888" stroke-width="1"/>
<text x="1295.8" y="687.4" font-size="18" fill="#aaa" text-anchor="middle" font-family="sans-serif">4</text>
</g></g>
</svg>