<?xml version='1.0' encoding='UTF-8'?>
<svg version='1.1' xmlns='http://www.w3.org/2000/svg' xmlns:xlink='http://www.w3.org/1999/xlink' width='1920' height='1080' viewBox='0 0 1920 1080'>
<g data-obj-idx='0'><rect x='0' y='0' width='1920' height='1080' rx='0' ry='0' stroke='rgb(0,0,0)' stroke-width='0' /></g>
<g data-obj-idx='1'><g>
<line x1="716.0" y1="433.0" x2="724.0" y2="431.8" stroke="#888" stroke-width="1"/>
<text x="735.8" y="436.3" font-size="18" fill="#aaa" text-anchor="middle" font-family="sans-serif">-3</text>
<line x1="796.0" y1="468.9" x2="804.0" y2="467.7" stroke="#888" stroke-width="1"/>
<text x="815.8" y="472.2" font-size="18" fill="#aaa" text-anchor="middle" font-family="sans-serif">-2</text>
<line x1="1372.0" y1="476.2" x2="1379.3" y2="479.5" stroke="#888" stroke-width="1"/>
<text x="1390.3" y="490.7" font-size="18" fill="#aaa" text-anchor="middle" font-family="sans-serif">3</text>
<polygon points="1006.6,630.2 936.5,629.0 934.9,645.3 1009.7,646.5" fill="rgb(119,62,21)" fill-opacity="0.8" stroke="#333" stroke-width="0.3"/>
<polygon points="936.5,629.0 870.0,634.9 864.0,651.5 934.9,645.3" fill="rgb(102,54,18)" fill-opacity="0.8" stroke="#333" stroke-width="0.3"/>
<polygon points="1003.5,613.9 938.1,612.8 936.5,629.0 1006.6,630.2" fill="rgb(119,62,21)" fill-opacity="0.8" stroke="#333" stroke-width="0.3"/>
<polygon points="1069.6,638.3 1006.6,630.2 1009.7,646.5 1076.9,655.1" fill="rgb(119,62,21)" fill-opacity="0.8" stroke="#333" stroke-width="0.3"/>
<polygon points="938.1,612.8 876.0,618.3 870.0,634.9 936.5,629.0" fill="rgb(102,54,18)" fill-opacity="0.8" stroke="#333" stroke-width="0.3"/>
<polygon points="1000.4,597.6 939.6,596.6 938.1,612.8 1003.5,613.9" fill="rgb(119,62,21)" fill-opacity="0.8" stroke="#333" stroke-width="0.3"/>
<polygon points="1062.3,621.4 1003.5,613.9 1006.6,630.2 1069.6,638.3" fill="rgb(119,62,21)" fill-opacity="0.8" stroke="#333" stroke-width="0.3"/>
<polygon points="939.6,596.6 882.0,601.6 876.0,618.3 938.1,612.8" fill="rgb(102,54,18)" fill-opacity="0.8" stroke="#333" stroke-width="0.3"/>
<polygon points="870.0,634.9 817.2,646.9 807.7,664.3 864.0,651.5" fill="rgb(80,42,14)" fill-opacity="0.8" stroke="#333" stroke-width="0.3"/>
<polygon points="1055.0,604.6 1000.4,597.6 1003.5,613.9 1062.3,621.4" fill="rgb(119,62,21)" fill-opacity="0.8" stroke="#333" stroke-width="0.3"/>
<polygon points="997.3,581.3 941.2,580.3 939.6,596.6 1000.4,597.6" fill="rgb(119,62,21)" fill-opacity="0.8" stroke="#333" stroke-width="0.3"/>
<polygon points="941.2,580.3 888.0,585.0 882.0,601.6 939.6,596.6" fill="rgb(102,54,18)" fill-opacity="0.8" stroke="#333" stroke-width="0.3"/>
<polygon points="876.0,618.3 826.7,629.4 817.2,646.9 870.0,634.9" fill="rgb(80,42,14)" fill-opacity="0.8" stroke="#333" stroke-width="0.3"/>
<polygon points="1115.9,651.9 1069.6,638.3 1076.9,655.1 1126.3,669.7" fill="rgb(102,54,18)" fill-opacity="0.8" stroke="#333" stroke-width="0.3"/>
<line x1="1233.5" y1="497.0" x2="1240.8" y2="500.2" stroke="#888" stroke-width="1"/>
<text x="1251.7" y="511.4" font-size="18" fill="#aaa" text-anchor="middle" font-family="sans-serif">2</text>
<polygon points="1047.7,587.7 997.3,581.3 1000.4,597.6 1055.0,604.6" fill="rgb(119,62,21)" fill-opacity="0.8" stroke="#333" stroke-width="0.3"/>
<polygon points="994.2,565.0 942.8,564.1 941.2,580.3 997.3,581.3" fill="rgb(119,62,21)" fill-opacity="0.8" stroke="#333" stroke-width="0.3"/>
<polygon points="882.0,601.6 836.2,612.0 826.7,629.4 876.0,618.3" fill="rgb(80,42,14)" fill-opacity="0.8" stroke="#333" stroke-width="0.3"/>
<polygon points="1105.5,634.2 1062.3,621.4 1069.6,638.3 1115.9,651.9" fill="rgb(102,54,18)" fill-opacity="0.8" stroke="#333" stroke-width="0.3"/>
<polygon points="942.8,564.1 894.0,568.4 888.0,585.0 941.2,580.3" fill="rgb(102,54,18)" fill-opacity="0.8" stroke="#333" stroke-width="0.3"/>
<polygon points="1040.4,570.9 994.2,565.0 997.3,581.3 1047.7,587.7" fill="rgb(119,62,21)" fill-opacity="0.8" stroke="#333" stroke-width="0.3"/>
<line x1="876.0" y1="504.7" x2="884.0" y2="503.5" stroke="#888" stroke-width="1"/>
<text x="895.8" y="508.1" font-size="18" fill="#aaa" text-anchor="middle" font-family="sans-serif">-1</text>
<polygon points="991.1,548.6 944.3,547.8 942.8,564.1 994.2,565.0" fill="rgb(119,62,21)" fill-opacity="0.8" stroke="#333" stroke-width="0.3"/>
<polygon points="888.0,585.0 845.8,594.6 836.2,612.0 882.0,601.6" fill="rgb(80,42,14)" fill-opacity="0.8" stroke="#333" stroke-width="0.3"/>
<polygon points="1095.1,616.4 1055.0,604.6 1062.3,621.4 1105.5,634.2" fill="rgb(102,54,18)" fill-opacity="0.8" stroke="#333" stroke-width="0.3"/>
<polygon points="944.3,547.8 900.0,551.7 894.0,568.4 942.8,564.1" fill="rgb(102,54,18)" fill-opacity="0.8" stroke="#333" stroke-width="0.3"/>
<polygon points="1033.1,554.0 991.1,548.6 994.2,565.0 1040.4,570.9" fill="rgb(119,62,21)" fill-opacity="0.8" stroke="#333" stroke-width="0.3"/>
<polygon points="1084.7,598.6 1047.7,587.7 1055.0,604.6 1095.1,616.4" fill="rgb(102,54,18)" fill-opacity="0.8" stroke="#333" stroke-width="0.3"/>
<polygon points="817.2,646.9 786.1,663.2 774.5,681.7 807.7,664.3" fill="rgb(119,62,21)" fill-opacity="0.8" stroke="#333" stroke-width="0.3"/>
<polygon points="894.0,568.4 855.3,577.2 845.8,594.6 888.0,585.0" fill="rgb(80,42,14)" fill-opacity="0.8" stroke="#333" stroke-width="0.3"/>
<polygon points="988.0,532.3 945.9,531.6 944.3,547.8 991.1,548.6" fill="rgb(119,62,21)" fill-opacity="0.8" stroke="#333" stroke-width="0.3"/>
<polygon points="945.9,531.6 906.0,535.1 900.0,551.7 944.3,547.8" fill="rgb(102,54,18)" fill-opacity="0.8" stroke="#333" stroke-width="0.3"/>
<polygon points="826.7,629.4 797.7,644.7 786.1,663.2 817.2,646.9" fill="rgb(119,62,21)" fill-opacity="0.8" stroke="#333" stroke-width="0.3"/>
<polygon points="1025.7,537.1 988.0,532.3 991.1,548.6 1033.1,554.0" fill="rgb(119,62,21)" fill-opacity="0.8" stroke="#333" stroke-width="0.3"/>
<polygon points="1074.3,580.9 1040.4,570.9 1047.7,587.7 1084.7,598.6" fill="rgb(102,54,18)" fill-opacity="0.8" stroke="#333" stroke-width="0.3"/>
<polygon points="900.0,551.7 864.8,559.7 855.3,577.2 894.0,568.4" fill="rgb(80,42,14)" fill-opacity="0.8" stroke="#333" stroke-width="0.3"/>
<polygon points="984.8,516.0 947.5,515.4 945.9,531.6 988.0,532.3" fill="rgb(119,62,21)" fill-opacity="0.8" stroke="#333" stroke-width="0.3"/>
<polygon points="836.2,612.0 809.3,626.1 797.7,644.7 826.7,629.4" fill="rgb(119,62,21)" fill-opacity="0.8" stroke="#333" stroke-width="0.3"/>
<polygon points="1138.5,669.1 1115.9,651.9 1126.3,669.7 1150.4,688.1" fill="rgb(80,42,14)" fill-opacity="0.8" stroke="#333" stroke-width="0.3"/>
<polygon points="947.5,515.4 912.0,518.5 906.0,535.1 945.9,531.6" fill="rgb(102,54,18)" fill-opacity="0.8" stroke="#333" stroke-width="0.3"/>
<polygon points="1063.9,563.1 1033.1,554.0 1040.4,570.9 1074.3,580.9" fill="rgb(102,54,18)" fill-opacity="0.8" stroke="#333" stroke-width="0.3"/>
<polygon points="1018.4,520.3 984.8,516.0 988.0,532.3 1025.7,537.1" fill="rgb(119,62,21)" fill-opacity="0.8" stroke="#333" stroke-width="0.3"/>
<polygon points="906.0,535.1 874.3,542.3 864.8,559.7 900.0,551.7" fill="rgb(80,42,14)" fill-opacity="0.8" stroke="#333" stroke-width="0.3"/>
<polygon points="1126.6,650.2 1105.5,634.2 1115.9,651.9 1138.5,669.1" fill="rgb(80,42,14)" fill-opacity="0.8" stroke="#333" stroke-width="0.3"/>
<polygon points="845.8,594.6 820.9,607.6 809.3,626.1 836.2,612.0" fill="rgb(119,62,21)" fill-opacity="0.8" stroke="#333" stroke-width="0.3"/>
<line x1="956.3" y1="847.5" x2="963.7" y2="850.7" stroke="#888" stroke-width="1"/>
<text x="974.6" y="861.9" font-size="18" fill="#aaa" text-anchor="middle" font-family="sans-serif">-2</text>
<polygon points="981.7,499.7 949.0,499.1 947.5,515.4 984.8,516.0" fill="rgb(119,62,21)" fill-opacity="0.8" stroke="#333" stroke-width="0.3"/>
<polygon points="1053.5,545.3 1025.7,537.1 1033.1,554.0 1063.9,563.1" fill="rgb(102,54,18)" fill-opacity="0.8" stroke="#333" stroke-width="0.3"/>
<polygon points="949.0,499.1 918.0,501.9 912.0,518.5 947.5,515.4" fill="rgb(102,54,18)" fill-opacity="0.8" stroke="#333" stroke-width="0.3"/>
<polygon points="1114.7,631.3 1095.1,616.4 1105.5,634.2 1126.6,650.2" fill="rgb(80,42,14)" fill-opacity="0.8" stroke="#333" stroke-width="0.3"/>
<line x1="1094.9" y1="517.7" x2="1102.2" y2="520.9" stroke="#888" stroke-width="1"/>
<text x="1113.2" y="532.1" font-size="18" fill="#aaa" text-anchor="middle" font-family="sans-serif">1</text>
<polygon points="855.3,577.2 832.5,589.1 820.9,607.6 845.8,594.6" fill="rgb(119,62,21)" fill-opacity="0.8" stroke="#333" stroke-width="0.3"/>
<polygon points="912.0,518.5 883.8,524.9 874.3,542.3 906.0,535.1" fill="rgb(80,42,14)" fill-opacity="0.8" stroke="#333" stroke-width="0.3"/>
<polygon points="1011.1,503.4 981.7,499.7 984.8,516.0 1018.4,520.3" fill="rgb(119,62,21)" fill-opacity="0.8" stroke="#333" stroke-width="0.3"/>
<polygon points="1102.8,612.4 1084.7,598.6 1095.1,616.4 1114.7,631.3" fill="rgb(80,42,14)" fill-opacity="0.8" stroke="#333" stroke-width="0.3"/>
<polygon points="1043.1,527.6 1018.4,520.3 1025.7,537.1 1053.5,545.3" fill="rgb(102,54,18)" fill-opacity="0.8" stroke="#333" stroke-width="0.3"/>
<polygon points="978.6,483.4 950.6,482.9 949.0,499.1 981.7,499.7" fill="rgb(119,62,21)" fill-opacity="0.8" stroke="#333" stroke-width="0.3"/>
<polygon points="864.8,559.7 844.1,570.6 832.5,589.1 855.3,577.2" fill="rgb(119,62,21)" fill-opacity="0.8" stroke="#333" stroke-width="0.3"/>
<polygon points="950.6,482.9 924.0,485.2 918.0,501.9 949.0,499.1" fill="rgb(102,54,18)" fill-opacity="0.8" stroke="#333" stroke-width="0.3"/>
<polygon points="918.0,501.9 893.4,507.4 883.8,524.9 912.0,518.5" fill="rgb(80,42,14)" fill-opacity="0.8" stroke="#333" stroke-width="0.3"/>
<polygon points="1090.9,593.5 1074.3,580.9 1084.7,598.6 1102.8,612.4" fill="rgb(80,42,14)" fill-opacity="0.8" stroke="#333" stroke-width="0.3"/>
<polygon points="1003.8,486.6 978.6,483.4 981.7,499.7 1011.1,503.4" fill="rgb(119,62,21)" fill-opacity="0.8" stroke="#333" stroke-width="0.3"/>
<polygon points="874.3,542.3 855.7,552.1 844.1,570.6 864.8,559.7" fill="rgb(119,62,21)" fill-opacity="0.8" stroke="#333" stroke-width="0.3"/>
<polygon points="1032.7,509.8 1011.1,503.4 1018.4,520.3 1043.1,527.6" fill="rgb(102,54,18)" fill-opacity="0.8" stroke="#333" stroke-width="0.3"/>
<polygon points="1079.0,574.6 1063.9,563.1 1074.3,580.9 1090.9,593.5" fill="rgb(80,42,14)" fill-opacity="0.8" stroke="#333" stroke-width="0.3"/>
<polygon points="786.1,663.2 781.5,681.3 769.6,701.0 774.5,681.7" fill="rgb(161,84,29)" fill-opacity="0.8" stroke="#333" stroke-width="0.3"/>
<polygon points="975.5,467.0 952.2,466.6 950.6,482.9 978.6,483.4" fill="rgb(119,62,21)" fill-opacity="0.8" stroke="#333" stroke-width="0.3"/>
<polygon points="924.0,485.2 902.9,490.0 893.4,507.4 918.0,501.9" fill="rgb(80,42,14)" fill-opacity="0.8" stroke="#333" stroke-width="0.3"/>
<polygon points="952.2,466.6 930.0,468.6 924.0,485.2 950.6,482.9" fill="rgb(102,54,18)" fill-opacity="0.8" stroke="#333" stroke-width="0.3"/>
<polygon points="883.8,524.9 867.3,533.6 855.7,552.1 874.3,542.3" fill="rgb(119,62,21)" fill-opacity="0.8" stroke="#333" stroke-width="0.3"/>
<polygon points="797.7,644.7 793.4,661.6 781.5,681.3 786.1,663.2" fill="rgb(161,84,29)" fill-opacity="0.8" stroke="#333" stroke-width="0.3"/>
<polygon points="996.5,469.7 975.5,467.0 978.6,483.4 1003.8,486.6" fill="rgb(119,62,21)" fill-opacity="0.8" stroke="#333" stroke-width="0.3"/>
<polygon points="1067.1,555.7 1053.5,545.3 1063.9,563.1 1079.0,574.6" fill="rgb(80,42,14)" fill-opacity="0.8" stroke="#333" stroke-width="0.3"/>
<line x1="956.3" y1="692.9" x2="963.7" y2="696.2" stroke="#888" stroke-width="1"/>
<text x="974.6" y="707.4" font-size="18" fill="#aaa" text-anchor="middle" font-family="sans-serif">-1</text>
<polygon points="1022.4,492.0 1003.8,486.6 1011.1,503.4 1032.7,509.8" fill="rgb(102,54,18)" fill-opacity="0.8" stroke="#333" stroke-width="0.3"/>
<polygon points="809.3,626.1 805.3,641.9 793.4,661.6 797.7,644.7" fill="rgb(161,84,29)" fill-opacity="0.8" stroke="#333" stroke-width="0.3"/>
<polygon points="893.4,507.4 878.9,515.1 867.3,533.6 883.8,524.9" fill="rgb(119,62,21)" fill-opacity="0.8" stroke="#333" stroke-width="0.3"/>
<polygon points="930.0,468.6 912.4,472.6 902.9,490.0 924.0,485.2" fill="rgb(80,42,14)" fill-opacity="0.8" stroke="#333" stroke-width="0.3"/>
<polygon points="1055.2,536.8 1043.1,527.6 1053.5,545.3 1067.1,555.7" fill="rgb(80,42,14)" fill-opacity="0.8" stroke="#333" stroke-width="0.3"/>
<polygon points="972.4,450.7 953.7,450.4 952.2,466.6 975.5,467.0" fill="rgb(119,62,21)" fill-opacity="0.8" stroke="#333" stroke-width="0.3"/>
<polygon points="820.9,607.6 817.2,622.1 805.3,641.9 809.3,626.1" fill="rgb(161,84,29)" fill-opacity="0.8" stroke="#333" stroke-width="0.3"/>
<polygon points="953.7,450.4 936.0,452.0 930.0,468.6 952.2,466.6" fill="rgb(102,54,18)" fill-opacity="0.8" stroke="#333" stroke-width="0.3"/>
<polygon points="1012.0,474.3 996.5,469.7 1003.8,486.6 1022.4,492.0" fill="rgb(102,54,18)" fill-opacity="0.8" stroke="#333" stroke-width="0.3"/>
<polygon points="989.2,452.9 972.4,450.7 975.5,467.0 996.5,469.7" fill="rgb(119,62,21)" fill-opacity="0.8" stroke="#333" stroke-width="0.3"/>
<polygon points="1133.9,687.3 1138.5,669.1 1150.4,688.1 1145.5,707.4" fill="rgb(119,62,21)" fill-opacity="0.8" stroke="#333" stroke-width="0.3"/>
<polygon points="832.5,589.1 829.1,602.4 817.2,622.1 820.9,607.6" fill="rgb(161,84,29)" fill-opacity="0.8" stroke="#333" stroke-width="0.3"/>
<polygon points="902.9,490.0 890.5,496.5 878.9,515.1 893.4,507.4" fill="rgb(119,62,21)" fill-opacity="0.8" stroke="#333" stroke-width="0.3"/>
<polygon points="1043.3,517.8 1032.7,509.8 1043.1,527.6 1055.2,536.8" fill="rgb(80,42,14)" fill-opacity="0.8" stroke="#333" stroke-width="0.3"/>
<polygon points="1122.3,667.2 1126.6,650.2 1138.5,669.1 1133.9,687.3" fill="rgb(119,62,21)" fill-opacity="0.8" stroke="#333" stroke-width="0.3"/>
<polygon points="844.1,570.6 841.0,582.7 829.1,602.4 832.5,589.1" fill="rgb(161,84,29)" fill-opacity="0.8" stroke="#333" stroke-width="0.3"/>
<polygon points="936.0,452.0 921.9,455.2 912.4,472.6 930.0,468.6" fill="rgb(80,42,14)" fill-opacity="0.8" stroke="#333" stroke-width="0.3"/>
<polygon points="1110.7,647.0 1114.7,631.3 1126.6,650.2 1122.3,667.2" fill="rgb(119,62,21)" fill-opacity="0.8" stroke="#333" stroke-width="0.3"/>
<polygon points="969.3,434.4 955.3,434.2 953.7,450.4 972.4,450.7" fill="rgb(119,62,21)" fill-opacity="0.8" stroke="#333" stroke-width="0.3"/>
<polygon points="1031.4,498.9 1022.4,492.0 1032.7,509.8 1043.3,517.8" fill="rgb(80,42,14)" fill-opacity="0.8" stroke="#333" stroke-width="0.3"/>
<polygon points="1001.6,456.5 989.2,452.9 996.5,469.7 1012.0,474.3" fill="rgb(102,54,18)" fill-opacity="0.8" stroke="#333" stroke-width="0.3"/>
<polygon points="855.7,552.1 852.9,563.0 841.0,582.7 844.1,570.6" fill="rgb(161,84,29)" fill-opacity="0.8" stroke="#333" stroke-width="0.3"/>
<polygon points="912.4,472.6 902.0,478.0 890.5,496.5 902.9,490.0" fill="rgb(119,62,21)" fill-opacity="0.8" stroke="#333" stroke-width="0.3"/>
<polygon points="955.3,434.2 942.0,435.3 936.0,452.0 953.7,450.4" fill="rgb(102,54,18)" fill-opacity="0.8" stroke="#333" stroke-width="0.3"/>
<polygon points="1099.1,626.9 1102.8,612.4 1114.7,631.3 1110.7,647.0" fill="rgb(119,62,21)" fill-opacity="0.8" stroke="#333" stroke-width="0.3"/>
<polygon points="981.9,436.0 969.3,434.4 972.4,450.7 989.2,452.9" fill="rgb(119,62,21)" fill-opacity="0.8" stroke="#333" stroke-width="0.3"/>
<polygon points="1087.5,606.8 1090.9,593.5 1102.8,612.4 1099.1,626.9" fill="rgb(119,62,21)" fill-opacity="0.8" stroke="#333" stroke-width="0.3"/>
<polygon points="867.3,533.6 864.8,543.2 852.9,563.0 855.7,552.1" fill="rgb(161,84,29)" fill-opacity="0.8" stroke="#333" stroke-width="0.3"/>
<polygon points="1019.5,480.0 1012.0,474.3 1022.4,492.0 1031.4,498.9" fill="rgb(80,42,14)" fill-opacity="0.8" stroke="#333" stroke-width="0.3"/>
<polygon points="942.0,435.3 931.4,437.7 921.9,455.2 936.0,452.0" fill="rgb(80,42,14)" fill-opacity="0.8" stroke="#333" stroke-width="0.3"/>
<polygon points="1075.9,586.7 1079.0,574.6 1090.9,593.5 1087.5,606.8" fill="rgb(119,62,21)" fill-opacity="0.8" stroke="#333" stroke-width="0.3"/>
<polygon points="921.9,455.2 913.6,459.5 902.0,478.0 912.4,472.6" fill="rgb(119,62,21)" fill-opacity="0.8" stroke="#333" stroke-width="0.3"/>
<polygon points="878.9,515.1 876.7,523.5 864.8,543.2 867.3,533.6" fill="rgb(161,84,29)" fill-opacity="0.8" stroke="#333" stroke-width="0.3"/>
<polygon points="991.2,438.7 981.9,436.0 989.2,452.9 1001.6,456.5" fill="rgb(102,54,18)" fill-opacity="0.8" stroke="#333" stroke-width="0.3"/>
<polygon points="1064.3,566.6 1067.1,555.7 1079.0,574.6 1075.9,586.7" fill="rgb(119,62,21)" fill-opacity="0.8" stroke="#333" stroke-width="0.3"/>
<line x1="720.0" y1="432.4" x2="1200.0" y2="647.6" stroke="#888" stroke-width="2"/>
<polygon points="1200.0,647.6 1191.4,647.2 1194.0,641.4" fill="#888" stroke="none"/>
<line x1="544.3" y1="602.1" x2="1375.7" y2="477.9" stroke="#888" stroke-width="2"/>
<polygon points="1375.7,477.9 1368.3,482.2 1367.3,475.9" fill="#888" stroke="none"/>
<line x1="960.0" y1="849.1" x2="960.0" y2="230.9" stroke="#888" stroke-width="2"/>
<polygon points="960.0,230.9 963.2,238.9 956.8,238.9" fill="#888" stroke="none"/>
<line x1="956.0" y1="540.6" x2="964.0" y2="539.4" stroke="#888" stroke-width="1"/>
<text x="975.8" y="543.9" font-size="18" fill="#aaa" text-anchor="middle" font-family="sans-serif">0</text>
<line x1="956.3" y1="538.4" x2="963.7" y2="541.6" stroke="#888" stroke-width="1"/>
<text x="974.6" y="552.8" font-size="18" fill="#aaa" text-anchor="middle" font-family="sans-serif">0</text>
<line x1="956.3" y1="538.4" x2="963.7" y2="541.6" stroke="#888" stroke-width="1"/>
<text x="974.6" y="552.8" font-size="18" fill="#aaa" text-anchor="middle" font-family="sans-serif">0</text>
<g>
<path d='M3.33-3.01C3.39-3.27 3.62-4.18 4.31-4.18C4.36-4.18 4.6-4.18 4.81-4.05C4.53-4 4.33-3.76 4.33-3.52C4.33-3.36 4.44-3.17 4.71-3.17C4.93-3.17 5.25-3.35 5.25-3.75C5.25-4.26 4.66-4.4 4.32-4.4C3.75-4.4 3.4-3.88 3.28-3.65C3.03-4.3 2.49-4.4 2.2-4.4C1.17-4.4 .597758-3.12 .597758-2.87C.597758-2.77 .697385-2.77 .71731-2.77C.797011-2.77 .826899-2.79 .846824-2.88C1.19-3.94 1.84-4.18 2.18-4.18C2.37-4.18 2.72-4.09 2.72-3.52C2.72-3.21 2.55-2.54 2.18-1.15C2.02-.52802 1.67-.109589 1.24-.109589C1.18-.109589 .946451-.109589 .737235-.239103C.986301-.288917 1.21-.498132 1.21-.777086C1.21-1.05 .986301-1.13 .836862-1.13C.537983-1.13 .288917-.86675 .288917-.547945C.288917-.089664 .787049 .109589 1.23 .109589C1.88 .109589 2.24-.587796 2.27-.647572C2.39-.278954 2.75 .109589 3.35 .109589C4.37 .109589 4.94-1.18 4.94-1.42C4.94-1.52 4.85-1.52 4.82-1.52C4.73-1.52 4.71-1.48 4.69-1.41C4.36-.348692 3.69-.109589 3.37-.109589C2.98-.109589 2.82-.428394 2.82-.767123C2.82-.986301 2.88-1.21 2.99-1.64L3.33-3.01Z' fill='rgb(170,170,170)' stroke='rgb(255,255,255)' stroke-width='0' transform='translate(1219.92,671.3) scale(4.36,4.36)' />
</g>
<g>
<path d='M4.84-3.8C4.88-3.94 4.88-3.96 4.88-4.02C4.88-4.2 4.74-4.29 4.59-4.29C4.49-4.29 4.33-4.23 4.24-4.08C4.22-4.03 4.14-3.73 4.1-3.55C4.03-3.29 3.97-3.02 3.91-2.75L3.46-.956413C3.42-.806974 2.99-.109589 2.33-.109589C1.82-.109589 1.71-.547945 1.71-.916563C1.71-1.37 1.88-1.99 2.22-2.87C2.38-3.28 2.42-3.39 2.42-3.59C2.42-4.03 2.1-4.4 1.6-4.4C.657534-4.4 .288917-2.96 .288917-2.87C.288917-2.77 .388543-2.77 .408468-2.77C.508095-2.77 .518057-2.79 .56787-2.95C.836862-3.89 1.24-4.18 1.57-4.18C1.65-4.18 1.82-4.18 1.82-3.87C1.82-3.62 1.72-3.36 1.65-3.17C1.26-2.11 1.08-1.54 1.08-1.08C1.08-.18929 1.7 .109589 2.29 .109589C2.68 .109589 3.02-.059776 3.3-.33873C3.17 .179328 3.05 .667497 2.65 1.2C2.39 1.53 2.01 1.82 1.55 1.82C1.41 1.82 .966376 1.79 .797011 1.4C.956413 1.4 1.09 1.4 1.23 1.29C1.33 1.2 1.42 1.07 1.42 .876712C1.42 .56787 1.16 .52802 1.06 .52802C.826899 .52802 .498132 .687422 .498132 1.18C.498132 1.67 .936488 2.04 1.55 2.04C2.58 2.04 3.61 1.14 3.89 .009963L4.84-3.8Z' fill='rgb(170,170,170)' stroke='rgb(255,255,255)' stroke-width='0' transform='translate(1419.84,474.75) scale(4.36,4.36)' />
</g>
<g>
<path d='M1.33-.826899C1.86-1.4 2.15-1.65 2.51-1.96C2.51-1.97 3.13-2.5 3.49-2.86C4.43-3.79 4.65-4.26 4.65-4.3C4.65-4.4 4.56-4.4 4.54-4.4C4.47-4.4 4.44-4.38 4.39-4.29C4.09-3.82 3.89-3.66 3.65-3.66S3.29-3.81 3.14-3.98C2.95-4.2 2.78-4.4 2.45-4.4C1.7-4.4 1.25-3.48 1.25-3.27C1.25-3.22 1.28-3.16 1.36-3.16S1.47-3.21 1.49-3.27C1.68-3.73 2.26-3.74 2.34-3.74C2.55-3.74 2.74-3.67 2.97-3.59C3.37-3.44 3.48-3.44 3.74-3.44C3.38-3.01 2.54-2.29 2.35-2.13L1.45-1.3C.777086-.627646 .428394-.059776 .428394 .009963C.428394 .109589 .52802 .109589 .547945 .109589C.627646 .109589 .647572 .089664 .707347-.019925C.936488-.368618 1.24-.637609 1.55-.637609C1.78-.637609 1.88-.547945 2.13-.259029C2.3-.049813 2.48 .109589 2.77 .109589C3.76 .109589 4.33-1.16 4.33-1.42C4.33-1.47 4.29-1.52 4.21-1.52C4.12-1.52 4.1-1.46 4.07-1.39C3.85-.747198 3.21-.557908 2.88-.557908C2.68-.557908 2.5-.617684 2.29-.687422C1.95-.816936 1.8-.856787 1.59-.856787C1.57-.856787 1.41-.856787 1.33-.826899Z' fill='rgb(170,170,170)' stroke='rgb(255,255,255)' stroke-width='0' transform='translate(948.92,178.45) scale(4.36,4.36)' />
</g>
<polygon points="966.2,418.1 956.9,417.9 955.3,434.2 969.3,434.4" fill="rgb(119,62,21)" fill-opacity="0.8" stroke="#333" stroke-width="0.3"/>
<polygon points="956.9,417.9 948.0,418.7 942.0,435.3 955.3,434.2" fill="rgb(102,54,18)" fill-opacity="0.8" stroke="#333" stroke-width="0.3"/>
<polygon points="1007.6,461.1 1001.6,456.5 1012.0,474.3 1019.5,480.0" fill="rgb(80,42,14)" fill-opacity="0.8" stroke="#333" stroke-width="0.3"/>
<polygon points="890.5,496.5 888.6,503.8 876.7,523.5 878.9,515.1" fill="rgb(161,84,29)" fill-opacity="0.8" stroke="#333" stroke-width="0.3"/>
<polygon points="974.6,419.2 966.2,418.1 969.3,434.4 981.9,436.0" fill="rgb(119,62,21)" fill-opacity="0.8" stroke="#333" stroke-width="0.3"/>
<polygon points="1052.7,546.4 1055.2,536.8 1067.1,555.7 1064.3,566.6" fill="rgb(119,62,21)" fill-opacity="0.8" stroke="#333" stroke-width="0.3"/>
<polygon points="931.4,437.7 925.2,441.0 913.6,459.5 921.9,455.2" fill="rgb(119,62,21)" fill-opacity="0.8" stroke="#333" stroke-width="0.3"/>
<polygon points="948.0,418.7 941.0,420.3 931.4,437.7 942.0,435.3" fill="rgb(80,42,14)" fill-opacity="0.8" stroke="#333" stroke-width="0.3"/>
<polygon points="1041.1,526.3 1043.3,517.8 1055.2,536.8 1052.7,546.4" fill="rgb(119,62,21)" fill-opacity="0.8" stroke="#333" stroke-width="0.3"/>
<polygon points="902.0,478.0 900.5,484.1 888.6,503.8 890.5,496.5" fill="rgb(161,84,29)" fill-opacity="0.8" stroke="#333" stroke-width="0.3"/>
<polygon points="980.8,421.0 974.6,419.2 981.9,436.0 991.2,438.7" fill="rgb(102,54,18)" fill-opacity="0.8" stroke="#333" stroke-width="0.3"/>
<polygon points="995.7,442.2 991.2,438.7 1001.6,456.5 1007.6,461.1" fill="rgb(80,42,14)" fill-opacity="0.8" stroke="#333" stroke-width="0.3"/>
<polygon points="1029.5,506.2 1031.4,498.9 1043.3,517.8 1041.1,526.3" fill="rgb(119,62,21)" fill-opacity="0.8" stroke="#333" stroke-width="0.3"/>
<polygon points="913.6,459.5 912.4,464.3 900.5,484.1 902.0,478.0" fill="rgb(161,84,29)" fill-opacity="0.8" stroke="#333" stroke-width="0.3"/>
<polygon points="941.0,420.3 936.8,422.5 925.2,441.0 931.4,437.7" fill="rgb(119,62,21)" fill-opacity="0.8" stroke="#333" stroke-width="0.3"/>
<polygon points="963.1,401.8 958.4,401.7 956.9,417.9 966.2,418.1" fill="rgb(119,62,21)" fill-opacity="0.8" stroke="#333" stroke-width="0.3"/>
<polygon points="1018.0,486.1 1019.5,480.0 1031.4,498.9 1029.5,506.2" fill="rgb(119,62,21)" fill-opacity="0.8" stroke="#333" stroke-width="0.3"/>
<polygon points="958.4,401.7 954.0,402.1 948.0,418.7 956.9,417.9" fill="rgb(102,54,18)" fill-opacity="0.8" stroke="#333" stroke-width="0.3"/>
<polygon points="781.5,681.3 804.1,698.5 793.7,719.4 769.6,701.0" fill="rgb(200,105,37)" fill-opacity="0.8" stroke="#333" stroke-width="0.3"/>
<polygon points="967.3,402.3 963.1,401.8 966.2,418.1 974.6,419.2" fill="rgb(119,62,21)" fill-opacity="0.8" stroke="#333" stroke-width="0.3"/>
<polygon points="983.8,423.3 980.8,421.0 991.2,438.7 995.7,442.2" fill="rgb(80,42,14)" fill-opacity="0.8" stroke="#333" stroke-width="0.3"/>
<polygon points="793.4,661.6 814.5,677.7 804.1,698.5 781.5,681.3" fill="rgb(200,105,37)" fill-opacity="0.8" stroke="#333" stroke-width="0.3"/>
<polygon points="925.2,441.0 924.3,444.6 912.4,464.3 913.6,459.5" fill="rgb(161,84,29)" fill-opacity="0.8" stroke="#333" stroke-width="0.3"/>
<polygon points="954.0,402.1 950.5,402.9 941.0,420.3 948.0,418.7" fill="rgb(80,42,14)" fill-opacity="0.8" stroke="#333" stroke-width="0.3"/>
<polygon points="805.3,641.9 824.9,656.8 814.5,677.7 793.4,661.6" fill="rgb(200,105,37)" fill-opacity="0.8" stroke="#333" stroke-width="0.3"/>
<polygon points="1006.4,465.9 1007.6,461.1 1019.5,480.0 1018.0,486.1" fill="rgb(119,62,21)" fill-opacity="0.8" stroke="#333" stroke-width="0.3"/>
<polygon points="817.2,622.1 835.3,635.9 824.9,656.8 805.3,641.9" fill="rgb(200,105,37)" fill-opacity="0.8" stroke="#333" stroke-width="0.3"/>
<polygon points="970.4,403.2 967.3,402.3 974.6,419.2 980.8,421.0" fill="rgb(102,54,18)" fill-opacity="0.8" stroke="#333" stroke-width="0.3"/>
<polygon points="829.1,602.4 845.7,615.0 835.3,635.9 817.2,622.1" fill="rgb(200,105,37)" fill-opacity="0.8" stroke="#333" stroke-width="0.3"/>
<polygon points="841.0,582.7 856.1,594.2 845.7,615.0 829.1,602.4" fill="rgb(200,105,37)" fill-opacity="0.8" stroke="#333" stroke-width="0.3"/>
<polygon points="994.8,445.8 995.7,442.2 1007.6,461.1 1006.4,465.9" fill="rgb(119,62,21)" fill-opacity="0.8" stroke="#333" stroke-width="0.3"/>
<polygon points="950.5,402.9 948.4,404.0 936.8,422.5 941.0,420.3" fill="rgb(119,62,21)" fill-opacity="0.8" stroke="#333" stroke-width="0.3"/>
<polygon points="936.8,422.5 936.2,424.9 924.3,444.6 925.2,441.0" fill="rgb(161,84,29)" fill-opacity="0.8" stroke="#333" stroke-width="0.3"/>
<polygon points="852.9,563.0 866.5,573.3 856.1,594.2 841.0,582.7" fill="rgb(200,105,37)" fill-opacity="0.8" stroke="#333" stroke-width="0.3"/>
<polygon points="971.9,404.4 970.4,403.2 980.8,421.0 983.8,423.3" fill="rgb(80,42,14)" fill-opacity="0.8" stroke="#333" stroke-width="0.3"/>
<polygon points="864.8,543.2 876.9,552.4 866.5,573.3 852.9,563.0" fill="rgb(200,105,37)" fill-opacity="0.8" stroke="#333" stroke-width="0.3"/>
<polygon points="876.7,523.5 887.3,531.6 876.9,552.4 864.8,543.2" fill="rgb(200,105,37)" fill-opacity="0.8" stroke="#333" stroke-width="0.3"/>
<polygon points="983.2,425.7 983.8,423.3 995.7,442.2 994.8,445.8" fill="rgb(119,62,21)" fill-opacity="0.8" stroke="#333" stroke-width="0.3"/>
<polygon points="888.6,503.8 897.6,510.7 887.3,531.6 876.7,523.5" fill="rgb(200,105,37)" fill-opacity="0.8" stroke="#333" stroke-width="0.3"/>
<polygon points="948.4,404.0 948.1,405.2 936.2,424.9 936.8,422.5" fill="rgb(161,84,29)" fill-opacity="0.8" stroke="#333" stroke-width="0.3"/>
<polygon points="900.5,484.1 908.0,489.8 897.6,510.7 888.6,503.8" fill="rgb(200,105,37)" fill-opacity="0.8" stroke="#333" stroke-width="0.3"/>
<polygon points="960.0,385.5 960.0,385.5 958.4,401.7 963.1,401.8" fill="rgb(119,62,21)" fill-opacity="0.8" stroke="#333" stroke-width="0.3"/>
<polygon points="960.0,385.5 960.0,385.5 954.0,402.1 958.4,401.7" fill="rgb(102,54,18)" fill-opacity="0.8" stroke="#333" stroke-width="0.3"/>
<polygon points="960.0,385.5 960.0,385.5 963.1,401.8 967.3,402.3" fill="rgb(119,62,21)" fill-opacity="0.8" stroke="#333" stroke-width="0.3"/>
<polygon points="960.0,385.5 960.0,385.5 950.5,402.9 954.0,402.1" fill="rgb(80,42,14)" fill-opacity="0.8" stroke="#333" stroke-width="0.3"/>
<polygon points="912.4,464.3 918.4,468.9 908.0,489.8 900.5,484.1" fill="rgb(200,105,37)" fill-opacity="0.8" stroke="#333" stroke-width="0.3"/>
<polygon points="971.6,405.6 971.9,404.4 983.8,423.3 983.2,425.7" fill="rgb(119,62,21)" fill-opacity="0.8" stroke="#333" stroke-width="0.3"/>
<polygon points="960.0,385.5 960.0,385.5 967.3,402.3 970.4,403.2" fill="rgb(102,54,18)" fill-opacity="0.8" stroke="#333" stroke-width="0.3"/>
<polygon points="924.3,444.6 928.8,448.1 918.4,468.9 912.4,464.3" fill="rgb(200,105,37)" fill-opacity="0.8" stroke="#333" stroke-width="0.3"/>
<polygon points="960.0,385.5 960.0,385.5 948.4,404.0 950.5,402.9" fill="rgb(119,62,21)" fill-opacity="0.8" stroke="#333" stroke-width="0.3"/>
<polygon points="960.0,385.5 960.0,385.5 970.4,403.2 971.9,404.4" fill="rgb(80,42,14)" fill-opacity="0.8" stroke="#333" stroke-width="0.3"/>
<polygon points="936.2,424.9 939.2,427.2 928.8,448.1 924.3,444.6" fill="rgb(200,105,37)" fill-opacity="0.8" stroke="#333" stroke-width="0.3"/>
<polygon points="960.0,385.5 960.0,385.5 948.1,405.2 948.4,404.0" fill="rgb(161,84,29)" fill-opacity="0.8" stroke="#333" stroke-width="0.3"/>
<polygon points="1102.8,703.6 1133.9,687.3 1145.5,707.4 1112.3,724.8" fill="rgb(161,84,29)" fill-opacity="0.8" stroke="#333" stroke-width="0.3"/>
<polygon points="948.1,405.2 949.6,406.3 939.2,427.2 936.2,424.9" fill="rgb(200,105,37)" fill-opacity="0.8" stroke="#333" stroke-width="0.3"/>
<polygon points="960.0,385.5 960.0,385.5 971.9,404.4 971.6,405.6" fill="rgb(119,62,21)" fill-opacity="0.8" stroke="#333" stroke-width="0.3"/>
<polygon points="1093.3,682.4 1122.3,667.2 1133.9,687.3 1102.8,703.6" fill="rgb(161,84,29)" fill-opacity="0.8" stroke="#333" stroke-width="0.3"/>
<polygon points="1083.8,661.2 1110.7,647.0 1122.3,667.2 1093.3,682.4" fill="rgb(161,84,29)" fill-opacity="0.8" stroke="#333" stroke-width="0.3"/>
<polygon points="1074.2,640.0 1099.1,626.9 1110.7,647.0 1083.8,661.2" fill="rgb(161,84,29)" fill-opacity="0.8" stroke="#333" stroke-width="0.3"/>
<polygon points="1064.7,618.8 1087.5,606.8 1099.1,626.9 1074.2,640.0" fill="rgb(161,84,29)" fill-opacity="0.8" stroke="#333" stroke-width="0.3"/>
<polygon points="1055.2,597.5 1075.9,586.7 1087.5,606.8 1064.7,618.8" fill="rgb(161,84,29)" fill-opacity="0.8" stroke="#333" stroke-width="0.3"/>
<polygon points="1045.7,576.3 1064.3,566.6 1075.9,586.7 1055.2,597.5" fill="rgb(161,84,29)" fill-opacity="0.8" stroke="#333" stroke-width="0.3"/>
<polygon points="1036.2,555.1 1052.7,546.4 1064.3,566.6 1045.7,576.3" fill="rgb(161,84,29)" fill-opacity="0.8" stroke="#333" stroke-width="0.3"/>
<polygon points="1026.6,533.9 1041.1,526.3 1052.7,546.4 1036.2,555.1" fill="rgb(161,84,29)" fill-opacity="0.8" stroke="#333" stroke-width="0.3"/>
<polygon points="1017.1,512.7 1029.5,506.2 1041.1,526.3 1026.6,533.9" fill="rgb(161,84,29)" fill-opacity="0.8" stroke="#333" stroke-width="0.3"/>
<polygon points="1007.6,491.5 1018.0,486.1 1029.5,506.2 1017.1,512.7" fill="rgb(161,84,29)" fill-opacity="0.8" stroke="#333" stroke-width="0.3"/>
<polygon points="960.0,385.5 960.0,385.5 949.6,406.3 948.1,405.2" fill="rgb(200,105,37)" fill-opacity="0.8" stroke="#333" stroke-width="0.3"/>
<polygon points="998.1,470.3 1006.4,465.9 1018.0,486.1 1007.6,491.5" fill="rgb(161,84,29)" fill-opacity="0.8" stroke="#333" stroke-width="0.3"/>
<polygon points="988.6,449.1 994.8,445.8 1006.4,465.9 998.1,470.3" fill="rgb(161,84,29)" fill-opacity="0.8" stroke="#333" stroke-width="0.3"/>
<polygon points="979.0,427.9 983.2,425.7 994.8,445.8 988.6,449.1" fill="rgb(161,84,29)" fill-opacity="0.8" stroke="#333" stroke-width="0.3"/>
<polygon points="969.5,406.7 971.6,405.6 983.2,425.7 979.0,427.9" fill="rgb(161,84,29)" fill-opacity="0.8" stroke="#333" stroke-width="0.3"/>
<polygon points="960.0,385.5 960.0,385.5 971.6,405.6 969.5,406.7" fill="rgb(161,84,29)" fill-opacity="0.8" stroke="#333" stroke-width="0.3"/>
<line x1="956.3" y1="383.8" x2="963.7" y2="387.1" stroke="#888" stroke-width="1"/>
<text x="974.6" y="398.3" font-size="18" fill="#aaa" text-anchor="middle" font-family="sans-serif">1</text>
<polygon points="960.0,385.5 960.0,385.5 952.7,407.2 949.6,406.3" fill="rgb(230,121,42)" fill-opacity="0.8" stroke="#333" stroke-width="0.3"/>
<polygon points="960.0,385.5 960.0,385.5 969.5,406.7 966.0,407.5" fill="rgb(200,105,37)" fill-opacity="0.8" stroke="#333" stroke-width="0.3"/>
<polygon points="960.0,385.5 960.0,385.5 956.9,407.8 952.7,407.2" fill="rgb(247,129,45)" fill-opacity="0.8" stroke="#333" stroke-width="0.3"/>
<polygon points="960.0,385.5 960.0,385.5 966.0,407.5 961.6,407.8" fill="rgb(230,121,42)" fill-opacity="0.8" stroke="#333" stroke-width="0.3"/>
<polygon points="960.0,385.5 960.0,385.5 961.6,407.8 956.9,407.8" fill="rgb(247,129,45)" fill-opacity="0.8" stroke="#333" stroke-width="0.3"/>
<polygon points="949.6,406.3 952.7,407.2 945.4,429.0 939.2,427.2" fill="rgb(230,121,42)" fill-opacity="0.8" stroke="#333" stroke-width="0.3"/>
<polygon points="966.0,407.5 969.5,406.7 979.0,427.9 972.0,429.5" fill="rgb(200,105,37)" fill-opacity="0.8" stroke="#333" stroke-width="0.3"/>
<polygon points="939.2,427.2 945.4,429.0 938.1,450.8 928.8,448.1" fill="rgb(230,121,42)" fill-opacity="0.8" stroke="#333" stroke-width="0.3"/>
<polygon points="952.7,407.2 956.9,407.8 953.8,430.1 945.4,429.0" fill="rgb(247,129,45)" fill-opacity="0.8" stroke="#333" stroke-width="0.3"/>
<polygon points="928.8,448.1 938.1,450.8 930.8,472.6 918.4,468.9" fill="rgb(230,121,42)" fill-opacity="0.8" stroke="#333" stroke-width="0.3"/>
<polygon points="961.6,407.8 966.0,407.5 972.0,429.5 963.1,430.2" fill="rgb(230,121,42)" fill-opacity="0.8" stroke="#333" stroke-width="0.3"/>
<polygon points="972.0,429.5 979.0,427.9 988.6,449.1 978.0,451.5" fill="rgb(200,105,37)" fill-opacity="0.8" stroke="#333" stroke-width="0.3"/>
<polygon points="956.9,407.8 961.6,407.8 963.1,430.2 953.8,430.1" fill="rgb(247,129,45)" fill-opacity="0.8" stroke="#333" stroke-width="0.3"/>
<polygon points="918.4,468.9 930.8,472.6 923.5,494.4 908.0,489.8" fill="rgb(230,121,42)" fill-opacity="0.8" stroke="#333" stroke-width="0.3"/>
<polygon points="978.0,451.5 988.6,449.1 998.1,470.3 984.0,473.5" fill="rgb(200,105,37)" fill-opacity="0.8" stroke="#333" stroke-width="0.3"/>
<polygon points="945.4,429.0 953.8,430.1 950.7,452.4 938.1,450.8" fill="rgb(247,129,45)" fill-opacity="0.8" stroke="#333" stroke-width="0.3"/>
<polygon points="908.0,489.8 923.5,494.4 916.2,516.1 897.6,510.7" fill="rgb(230,121,42)" fill-opacity="0.8" stroke="#333" stroke-width="0.3"/>
<polygon points="963.1,430.2 972.0,429.5 978.0,451.5 964.7,452.6" fill="rgb(230,121,42)" fill-opacity="0.8" stroke="#333" stroke-width="0.3"/>
<polygon points="897.6,510.7 916.2,516.1 908.9,537.9 887.3,531.6" fill="rgb(230,121,42)" fill-opacity="0.8" stroke="#333" stroke-width="0.3"/>
<polygon points="984.0,473.5 998.1,470.3 1007.6,491.5 990.0,495.5" fill="rgb(200,105,37)" fill-opacity="0.8" stroke="#333" stroke-width="0.3"/>
<polygon points="953.8,430.1 963.1,430.2 964.7,452.6 950.7,452.4" fill="rgb(247,129,45)" fill-opacity="0.8" stroke="#333" stroke-width="0.3"/>
<polygon points="887.3,531.6 908.9,537.9 901.6,559.7 876.9,552.4" fill="rgb(230,121,42)" fill-opacity="0.8" stroke="#333" stroke-width="0.3"/>
<polygon points="938.1,450.8 950.7,452.4 947.6,474.7 930.8,472.6" fill="rgb(247,129,45)" fill-opacity="0.8" stroke="#333" stroke-width="0.3"/>
<polygon points="990.0,495.5 1007.6,491.5 1017.1,512.7 996.0,517.5" fill="rgb(200,105,37)" fill-opacity="0.8" stroke="#333" stroke-width="0.3"/>
<polygon points="964.7,452.6 978.0,451.5 984.0,473.5 966.3,475.0" fill="rgb(230,121,42)" fill-opacity="0.8" stroke="#333" stroke-width="0.3"/>
<polygon points="876.9,552.4 901.6,559.7 894.3,581.5 866.5,573.3" fill="rgb(230,121,42)" fill-opacity="0.8" stroke="#333" stroke-width="0.3"/>
<polygon points="950.7,452.4 964.7,452.6 966.3,475.0 947.6,474.7" fill="rgb(247,129,45)" fill-opacity="0.8" stroke="#333" stroke-width="0.3"/>
<polygon points="996.0,517.5 1017.1,512.7 1026.6,533.9 1002.0,539.5" fill="rgb(200,105,37)" fill-opacity="0.8" stroke="#333" stroke-width="0.3"/>
<polygon points="866.5,573.3 894.3,581.5 886.9,603.3 856.1,594.2" fill="rgb(230,121,42)" fill-opacity="0.8" stroke="#333" stroke-width="0.3"/>
<polygon points="930.8,472.6 947.6,474.7 944.5,497.0 923.5,494.4" fill="rgb(247,129,45)" fill-opacity="0.8" stroke="#333" stroke-width="0.3"/>
<polygon points="856.1,594.2 886.9,603.3 879.6,625.1 845.7,615.0" fill="rgb(230,121,42)" fill-opacity="0.8" stroke="#333" stroke-width="0.3"/>
<polygon points="966.3,475.0 984.0,473.5 990.0,495.5 967.8,497.4" fill="rgb(230,121,42)" fill-opacity="0.8" stroke="#333" stroke-width="0.3"/>
<polygon points="1002.0,539.5 1026.6,533.9 1036.2,555.1 1008.0,561.5" fill="rgb(200,105,37)" fill-opacity="0.8" stroke="#333" stroke-width="0.3"/>
<polygon points="845.7,615.0 879.6,625.1 872.3,646.8 835.3,635.9" fill="rgb(230,121,42)" fill-opacity="0.8" stroke="#333" stroke-width="0.3"/>
<polygon points="923.5,494.4 944.5,497.0 941.4,519.4 916.2,516.1" fill="rgb(247,129,45)" fill-opacity="0.8" stroke="#333" stroke-width="0.3"/>
<polygon points="947.6,474.7 966.3,475.0 967.8,497.4 944.5,497.0" fill="rgb(247,129,45)" fill-opacity="0.8" stroke="#333" stroke-width="0.3"/>
<polygon points="1008.0,561.5 1036.2,555.1 1045.7,576.3 1014.0,583.5" fill="rgb(200,105,37)" fill-opacity="0.8" stroke="#333" stroke-width="0.3"/>
<polygon points="835.3,635.9 872.3,646.8 865.0,668.6 824.9,656.8" fill="rgb(230,121,42)" fill-opacity="0.8" stroke="#333" stroke-width="0.3"/>
<polygon points="967.8,497.4 990.0,495.5 996.0,517.5 969.4,519.8" fill="rgb(230,121,42)" fill-opacity="0.8" stroke="#333" stroke-width="0.3"/>
<polygon points="824.9,656.8 865.0,668.6 857.7,690.4 814.5,677.7" fill="rgb(230,121,42)" fill-opacity="0.8" stroke="#333" stroke-width="0.3"/>
<polygon points="1014.0,583.5 1045.7,576.3 1055.2,597.5 1020.0,605.5" fill="rgb(200,105,37)" fill-opacity="0.8" stroke="#333" stroke-width="0.3"/>
<polygon points="916.2,516.1 941.4,519.4 938.3,541.7 908.9,537.9" fill="rgb(247,129,45)" fill-opacity="0.8" stroke="#333" stroke-width="0.3"/>
<polygon points="814.5,677.7 857.7,690.4 850.4,712.2 804.1,698.5" fill="rgb(230,121,42)" fill-opacity="0.8" stroke="#333" stroke-width="0.3"/>
<polygon points="944.5,497.0 967.8,497.4 969.4,519.8 941.4,519.4" fill="rgb(247,129,45)" fill-opacity="0.8" stroke="#333" stroke-width="0.3"/>
<polygon points="1020.0,605.5 1055.2,597.5 1064.7,618.8 1026.0,627.5" fill="rgb(200,105,37)" fill-opacity="0.8" stroke="#333" stroke-width="0.3"/>
<line x1="817.8" y1="559.1" x2="825.1" y2="562.3" stroke="#888" stroke-width="1"/>
<text x="836.0" y="573.6" font-size="18" fill="#aaa" text-anchor="middle" font-family="sans-serif">-1</text>
<polygon points="804.1,698.5 850.4,712.2 843.1,734.0 793.7,719.4" fill="rgb(230,121,42)" fill-opacity="0.8" stroke="#333" stroke-width="0.3"/>
<polygon points="969.4,519.8 996.0,517.5 1002.0,539.5 971.0,542.2" fill="rgb(230,121,42)" fill-opacity="0.8" stroke="#333" stroke-width="0.3"/>
<polygon points="908.9,537.9 938.3,541.7 935.2,564.0 901.6,559.7" fill="rgb(247,129,45)" fill-opacity="0.8" stroke="#333" stroke-width="0.3"/>
<polygon points="1026.0,627.5 1064.7,618.8 1074.2,640.0 1032.0,649.6" fill="rgb(200,105,37)" fill-opacity="0.8" stroke="#333" stroke-width="0.3"/>
<polygon points="941.4,519.4 969.4,519.8 971.0,542.2 938.3,541.7" fill="rgb(247,129,45)" fill-opacity="0.8" stroke="#333" stroke-width="0.3"/>
<line x1="956.3" y1="229.3" x2="963.7" y2="232.5" stroke="#888" stroke-width="1"/>
<text x="974.6" y="243.7" font-size="18" fill="#aaa" text-anchor="middle" font-family="sans-serif">2</text>
<polygon points="971.0,542.2 1002.0,539.5 1008.0,561.5 972.5,564.6" fill="rgb(230,121,42)" fill-opacity="0.8" stroke="#333" stroke-width="0.3"/>
<polygon points="1032.0,649.6 1074.2,640.0 1083.8,661.2 1038.0,671.6" fill="rgb(200,105,37)" fill-opacity="0.8" stroke="#333" stroke-width="0.3"/>
<polygon points="901.6,559.7 935.2,564.0 932.0,586.3 894.3,581.5" fill="rgb(247,129,45)" fill-opacity="0.8" stroke="#333" stroke-width="0.3"/>
<polygon points="1038.0,671.6 1083.8,661.2 1093.3,682.4 1044.0,693.6" fill="rgb(200,105,37)" fill-opacity="0.8" stroke="#333" stroke-width="0.3"/>
<polygon points="938.3,541.7 971.0,542.2 972.5,564.6 935.2,564.0" fill="rgb(247,129,45)" fill-opacity="0.8" stroke="#333" stroke-width="0.3"/>
<polygon points="972.5,564.6 1008.0,561.5 1014.0,583.5 974.1,587.0" fill="rgb(230,121,42)" fill-opacity="0.8" stroke="#333" stroke-width="0.3"/>
<polygon points="894.3,581.5 932.0,586.3 928.9,608.6 886.9,603.3" fill="rgb(247,129,45)" fill-opacity="0.8" stroke="#333" stroke-width="0.3"/>
<polygon points="1044.0,693.6 1093.3,682.4 1102.8,703.6 1050.0,715.6" fill="rgb(200,105,37)" fill-opacity="0.8" stroke="#333" stroke-width="0.3"/>
<polygon points="1050.0,715.6 1102.8,703.6 1112.3,724.8 1056.0,737.6" fill="rgb(200,105,37)" fill-opacity="0.8" stroke="#333" stroke-width="0.3"/>
<polygon points="935.2,564.0 972.5,564.6 974.1,587.0 932.0,586.3" fill="rgb(247,129,45)" fill-opacity="0.8" stroke="#333" stroke-width="0.3"/>
<polygon points="886.9,603.3 928.9,608.6 925.8,631.0 879.6,625.1" fill="rgb(247,129,45)" fill-opacity="0.8" stroke="#333" stroke-width="0.3"/>
<polygon points="974.1,587.0 1014.0,583.5 1020.0,605.5 975.7,609.4" fill="rgb(230,121,42)" fill-opacity="0.8" stroke="#333" stroke-width="0.3"/>
<polygon points="879.6,625.1 925.8,631.0 922.7,653.3 872.3,646.8" fill="rgb(247,129,45)" fill-opacity="0.8" stroke="#333" stroke-width="0.3"/>
<polygon points="932.0,586.3 974.1,587.0 975.7,609.4 928.9,608.6" fill="rgb(247,129,45)" fill-opacity="0.8" stroke="#333" stroke-width="0.3"/>
<polygon points="975.7,609.4 1020.0,605.5 1026.0,627.5 977.2,631.8" fill="rgb(230,121,42)" fill-opacity="0.8" stroke="#333" stroke-width="0.3"/>
<polygon points="872.3,646.8 922.7,653.3 919.6,675.6 865.0,668.6" fill="rgb(247,129,45)" fill-opacity="0.8" stroke="#333" stroke-width="0.3"/>
<polygon points="977.2,631.8 1026.0,627.5 1032.0,649.6 978.8,654.2" fill="rgb(230,121,42)" fill-opacity="0.8" stroke="#333" stroke-width="0.3"/>
<polygon points="928.9,608.6 975.7,609.4 977.2,631.8 925.8,631.0" fill="rgb(247,129,45)" fill-opacity="0.8" stroke="#333" stroke-width="0.3"/>
<polygon points="865.0,668.6 919.6,675.6 916.5,697.9 857.7,690.4" fill="rgb(247,129,45)" fill-opacity="0.8" stroke="#333" stroke-width="0.3"/>
<polygon points="978.8,654.2 1032.0,649.6 1038.0,671.6 980.4,676.6" fill="rgb(230,121,42)" fill-opacity="0.8" stroke="#333" stroke-width="0.3"/>
<polygon points="925.8,631.0 977.2,631.8 978.8,654.2 922.7,653.3" fill="rgb(247,129,45)" fill-opacity="0.8" stroke="#333" stroke-width="0.3"/>
<polygon points="857.7,690.4 916.5,697.9 913.4,720.2 850.4,712.2" fill="rgb(247,129,45)" fill-opacity="0.8" stroke="#333" stroke-width="0.3"/>
<polygon points="980.4,676.6 1038.0,671.6 1044.0,693.6 981.9,699.0" fill="rgb(230,121,42)" fill-opacity="0.8" stroke="#333" stroke-width="0.3"/>
<polygon points="922.7,653.3 978.8,654.2 980.4,676.6 919.6,675.6" fill="rgb(247,129,45)" fill-opacity="0.8" stroke="#333" stroke-width="0.3"/>
<polygon points="850.4,712.2 913.4,720.2 910.3,742.5 843.1,734.0" fill="rgb(247,129,45)" fill-opacity="0.8" stroke="#333" stroke-width="0.3"/>
<polygon points="981.9,699.0 1044.0,693.6 1050.0,715.6 983.5,721.4" fill="rgb(230,121,42)" fill-opacity="0.8" stroke="#333" stroke-width="0.3"/>
<polygon points="919.6,675.6 980.4,676.6 981.9,699.0 916.5,697.9" fill="rgb(247,129,45)" fill-opacity="0.8" stroke="#333" stroke-width="0.3"/>
<polygon points="983.5,721.4 1050.0,715.6 1056.0,737.6 985.1,743.8" fill="rgb(230,121,42)" fill-opacity="0.8" stroke="#333" stroke-width="0.3"/>
<polygon points="916.5,697.9 981.9,699.0 983.5,721.4 913.4,720.2" fill="rgb(247,129,45)" fill-opacity="0.8" stroke="#333" stroke-width="0.3"/>
<line x1="1036.0" y1="576.5" x2="1044.0" y2="575.3" stroke="#888" stroke-width="1"/>
<text x="1055.8" y="579.8" font-size="18" fill="#aaa" text-anchor="middle" font-family="sans-serif">1</text>
<polygon points="913.4,720.2 983.5,721.4 985.1,743.8 910.3,742.5" fill="rgb(247,129,45)" fill-opacity="0.8" stroke="#333" stroke-width="0.3"/>
<line x1="679.2" y1="579.8" x2="686.5" y2="583.0" stroke="#888" stroke-width="1"/>
<text x="697.5" y="594.3" font-size="18" fill="#aaa" text-anchor="middle" font-family="sans-serif">-2</text>
<line x1="540.7" y1="600.5" x2="548.0" y2="603.8" stroke="#888" stroke-width="1"/>
<text x="558.9" y="615.0" font-size="18" fill="#aaa" text-anchor="middle" font-family="sans-serif">-3</text>
<line x1="1116.0" y1="612.3" x2="1124.0" y2="611.1" stroke="#888" stroke-width="1"/>
<text x="1135.8" y="615.7" font-size="18" fill="#aaa" text-anchor="middle" font-family="sans-serif">2</text>
<line x1="1196.0" y1="648.2" x2="1204.0" y2="647.0" stroke="#888" stroke-width="1"/>
<text x="1215.8" y="651.5" font-size="18" fill="#aaa" text-anchor="middle" font-family="sans-serif">3</text>
</g></g>
</svg>