<?xml version='1.0' encoding='UTF-8'?>
<svg version='1.1' xmlns='http://www.w3.org/2000/svg' xmlns:xlink='http://www.w3.org/1999/xlink' width='1920' height='1080' viewBox='0 0 1920 1080'>
<g data-obj-idx='0'><rect x='0' y='0' width='1920' height='1080' rx='0' ry='0' stroke='rgb(0,0,0)' stroke-width='0' /></g>
<g data-obj-idx='1'><g>
<line x1="716.0" y1="433.0" x2="724.0" y2="431.8" stroke="#888" stroke-width="1"/>
<text x="735.8" y="436.3" font-size="18" fill="#aaa" text-anchor="middle" font-family="sans-serif">-3</text>
<line x1="796.0" y1="468.9" x2="804.0" y2="467.7" stroke="#888" stroke-width="1"/>
<text x="815.8" y="472.2" font-size="18" fill="#aaa" text-anchor="middle" font-family="sans-serif">-2</text>
<line x1="1372.0" y1="476.2" x2="1379.3" y2="479.5" stroke="#888" stroke-width="1"/>
<text x="1390.3" y="490.7" font-size="18" fill="#aaa" text-anchor="middle" font-family="sans-serif">3</text>
<polygon points="1001.4,654.5 939.1,653.5 939.1,634.2 1001.4,635.2" fill="rgb(69,153,173)" fill-opacity="0.8" stroke="#333" stroke-width="0.3"/>
<polygon points="1001.4,635.2 939.1,634.2 939.1,614.9 1001.4,615.9" fill="rgb(69,153,173)" fill-opacity="0.8" stroke="#333" stroke-width="0.3"/>
<polygon points="939.1,653.5 880.0,658.7 880.0,639.4 939.1,634.2" fill="rgb(62,139,157)" fill-opacity="0.8" stroke="#333" stroke-width="0.3"/>
<polygon points="1001.4,615.9 939.1,614.9 939.1,595.5 1001.4,596.6" fill="rgb(69,153,173)" fill-opacity="0.8" stroke="#333" stroke-width="0.3"/>
<polygon points="939.1,634.2 880.0,639.4 880.0,620.0 939.1,614.9" fill="rgb(62,139,157)" fill-opacity="0.8" stroke="#333" stroke-width="0.3"/>
<polygon points="1057.4,661.7 1001.4,654.5 1001.4,635.2 1057.4,642.4" fill="rgb(69,153,173)" fill-opacity="0.8" stroke="#333" stroke-width="0.3"/>
<polygon points="1001.4,596.6 939.1,595.5 939.1,576.2 1001.4,577.3" fill="rgb(69,153,173)" fill-opacity="0.8" stroke="#333" stroke-width="0.3"/>
<polygon points="939.1,614.9 880.0,620.0 880.0,600.7 939.1,595.5" fill="rgb(62,139,157)" fill-opacity="0.8" stroke="#333" stroke-width="0.3"/>
<polygon points="1057.4,642.4 1001.4,635.2 1001.4,615.9 1057.4,623.1" fill="rgb(69,153,173)" fill-opacity="0.8" stroke="#333" stroke-width="0.3"/>
<polygon points="1001.4,577.3 939.1,576.2 939.1,556.9 1001.4,558.0" fill="rgb(69,153,173)" fill-opacity="0.8" stroke="#333" stroke-width="0.3"/>
<polygon points="939.1,595.5 880.0,600.7 880.0,581.4 939.1,576.2" fill="rgb(62,139,157)" fill-opacity="0.8" stroke="#333" stroke-width="0.3"/>
<polygon points="1057.4,623.1 1001.4,615.9 1001.4,596.6 1057.4,603.7" fill="rgb(69,153,173)" fill-opacity="0.8" stroke="#333" stroke-width="0.3"/>
<polygon points="1001.4,558.0 939.1,556.9 939.1,537.6 1001.4,538.6" fill="rgb(69,153,173)" fill-opacity="0.8" stroke="#333" stroke-width="0.3"/>
<polygon points="939.1,576.2 880.0,581.4 880.0,562.1 939.1,556.9" fill="rgb(62,139,157)" fill-opacity="0.8" stroke="#333" stroke-width="0.3"/>
<polygon points="1057.4,603.7 1001.4,596.6 1001.4,577.3 1057.4,584.4" fill="rgb(69,153,173)" fill-opacity="0.8" stroke="#333" stroke-width="0.3"/>
<polygon points="1001.4,538.6 939.1,537.6 939.1,518.3 1001.4,519.3" fill="rgb(69,153,173)" fill-opacity="0.8" stroke="#333" stroke-width="0.3"/>
<polygon points="939.1,556.9 880.0,562.1 880.0,542.8 939.1,537.6" fill="rgb(62,139,157)" fill-opacity="0.8" stroke="#333" stroke-width="0.3"/>
<line x1="1233.5" y1="497.0" x2="1240.8" y2="500.2" stroke="#888" stroke-width="1"/>
<text x="1251.7" y="511.4" font-size="18" fill="#aaa" text-anchor="middle" font-family="sans-serif">2</text>
<polygon points="1057.4,584.4 1001.4,577.3 1001.4,558.0 1057.4,565.1" fill="rgb(69,153,173)" fill-opacity="0.8" stroke="#333" stroke-width="0.3"/>
<polygon points="1001.4,519.3 939.1,518.3 939.1,498.9 1001.4,500.0" fill="rgb(69,153,173)" fill-opacity="0.8" stroke="#333" stroke-width="0.3"/>
<polygon points="880.0,658.7 833.1,669.3 833.1,650.0 880.0,639.4" fill="rgb(50,112,127)" fill-opacity="0.8" stroke="#333" stroke-width="0.3"/>
<polygon points="939.1,537.6 880.0,542.8 880.0,523.5 939.1,518.3" fill="rgb(62,139,157)" fill-opacity="0.8" stroke="#333" stroke-width="0.3"/>
<polygon points="1057.4,565.1 1001.4,558.0 1001.4,538.6 1057.4,545.8" fill="rgb(69,153,173)" fill-opacity="0.8" stroke="#333" stroke-width="0.3"/>
<polygon points="1001.4,500.0 939.1,498.9 939.1,479.6 1001.4,480.7" fill="rgb(69,153,173)" fill-opacity="0.8" stroke="#333" stroke-width="0.3"/>
<polygon points="880.0,639.4 833.1,650.0 833.1,630.7 880.0,620.0" fill="rgb(50,112,127)" fill-opacity="0.8" stroke="#333" stroke-width="0.3"/>
<polygon points="939.1,518.3 880.0,523.5 880.0,504.1 939.1,498.9" fill="rgb(62,139,157)" fill-opacity="0.8" stroke="#333" stroke-width="0.3"/>
<polygon points="1057.4,545.8 1001.4,538.6 1001.4,519.3 1057.4,526.5" fill="rgb(69,153,173)" fill-opacity="0.8" stroke="#333" stroke-width="0.3"/>
<polygon points="1001.4,480.7 939.1,479.6 939.1,460.3 1001.4,461.4" fill="rgb(69,153,173)" fill-opacity="0.8" stroke="#333" stroke-width="0.3"/>
<polygon points="880.0,620.0 833.1,630.7 833.1,611.4 880.0,600.7" fill="rgb(50,112,127)" fill-opacity="0.8" stroke="#333" stroke-width="0.3"/>
<polygon points="939.1,498.9 880.0,504.1 880.0,484.8 939.1,479.6" fill="rgb(62,139,157)" fill-opacity="0.8" stroke="#333" stroke-width="0.3"/>
<polygon points="1098.6,673.8 1057.4,661.7 1057.4,642.4 1098.6,654.5" fill="rgb(62,139,157)" fill-opacity="0.8" stroke="#333" stroke-width="0.3"/>
<polygon points="1057.4,526.5 1001.4,519.3 1001.4,500.0 1057.4,507.1" fill="rgb(69,153,173)" fill-opacity="0.8" stroke="#333" stroke-width="0.3"/>
<polygon points="1001.4,461.4 939.1,460.3 939.1,441.0 1001.4,442.0" fill="rgb(69,153,173)" fill-opacity="0.8" stroke="#333" stroke-width="0.3"/>
<polygon points="880.0,600.7 833.1,611.4 833.1,592.1 880.0,581.4" fill="rgb(50,112,127)" fill-opacity="0.8" stroke="#333" stroke-width="0.3"/>
<polygon points="939.1,479.6 880.0,484.8 880.0,465.5 939.1,460.3" fill="rgb(62,139,157)" fill-opacity="0.8" stroke="#333" stroke-width="0.3"/>
<line x1="876.0" y1="504.7" x2="884.0" y2="503.5" stroke="#888" stroke-width="1"/>
<text x="895.8" y="508.1" font-size="18" fill="#aaa" text-anchor="middle" font-family="sans-serif">-1</text>
<polygon points="1098.6,654.5 1057.4,642.4 1057.4,623.1 1098.6,635.2" fill="rgb(62,139,157)" fill-opacity="0.8" stroke="#333" stroke-width="0.3"/>
<polygon points="1057.4,507.1 1001.4,500.0 1001.4,480.7 1057.4,487.8" fill="rgb(69,153,173)" fill-opacity="0.8" stroke="#333" stroke-width="0.3"/>
<polygon points="1001.4,442.0 939.1,441.0 939.1,421.7 1001.4,422.7" fill="rgb(69,153,173)" fill-opacity="0.8" stroke="#333" stroke-width="0.3"/>
<polygon points="880.0,581.4 833.1,592.1 833.1,572.7 880.0,562.1" fill="rgb(50,112,127)" fill-opacity="0.8" stroke="#333" stroke-width="0.3"/>
<polygon points="939.1,460.3 880.0,465.5 880.0,446.2 939.1,441.0" fill="rgb(62,139,157)" fill-opacity="0.8" stroke="#333" stroke-width="0.3"/>
<polygon points="1098.6,635.2 1057.4,623.1 1057.4,603.7 1098.6,615.9" fill="rgb(62,139,157)" fill-opacity="0.8" stroke="#333" stroke-width="0.3"/>
<polygon points="1057.4,487.8 1001.4,480.7 1001.4,461.4 1057.4,468.5" fill="rgb(69,153,173)" fill-opacity="0.8" stroke="#333" stroke-width="0.3"/>
<polygon points="1001.4,422.7 939.1,421.7 939.1,402.4 1001.4,403.4" fill="rgb(69,153,173)" fill-opacity="0.8" stroke="#333" stroke-width="0.3"/>
<polygon points="880.0,562.1 833.1,572.7 833.1,553.4 880.0,542.8" fill="rgb(50,112,127)" fill-opacity="0.8" stroke="#333" stroke-width="0.3"/>
<polygon points="939.1,441.0 880.0,446.2 880.0,426.9 939.1,421.7" fill="rgb(62,139,157)" fill-opacity="0.8" stroke="#333" stroke-width="0.3"/>
<polygon points="1098.6,615.9 1057.4,603.7 1057.4,584.4 1098.6,596.6" fill="rgb(62,139,157)" fill-opacity="0.8" stroke="#333" stroke-width="0.3"/>
<polygon points="1057.4,468.5 1001.4,461.4 1001.4,442.0 1057.4,449.2" fill="rgb(69,153,173)" fill-opacity="0.8" stroke="#333" stroke-width="0.3"/>
<polygon points="1001.4,403.4 939.1,402.4 939.1,383.0 1001.4,384.1" fill="rgb(69,153,173)" fill-opacity="0.8" stroke="#333" stroke-width="0.3"/>
<polygon points="880.0,542.8 833.1,553.4 833.1,534.1 880.0,523.5" fill="rgb(50,112,127)" fill-opacity="0.8" stroke="#333" stroke-width="0.3"/>
<polygon points="939.1,421.7 880.0,426.9 880.0,407.5 939.1,402.4" fill="rgb(62,139,157)" fill-opacity="0.8" stroke="#333" stroke-width="0.3"/>
<polygon points="1098.6,596.6 1057.4,584.4 1057.4,565.1 1098.6,577.3" fill="rgb(62,139,157)" fill-opacity="0.8" stroke="#333" stroke-width="0.3"/>
<polygon points="1057.4,449.2 1001.4,442.0 1001.4,422.7 1057.4,429.9" fill="rgb(69,153,173)" fill-opacity="0.8" stroke="#333" stroke-width="0.3"/>
<polygon points="1001.4,384.1 939.1,383.0 939.1,363.7 1001.4,364.8" fill="rgb(69,153,173)" fill-opacity="0.8" stroke="#333" stroke-width="0.3"/>
<polygon points="880.0,523.5 833.1,534.1 833.1,514.8 880.0,504.1" fill="rgb(50,112,127)" fill-opacity="0.8" stroke="#333" stroke-width="0.3"/>
<polygon points="939.1,402.4 880.0,407.5 880.0,388.2 939.1,383.0" fill="rgb(62,139,157)" fill-opacity="0.8" stroke="#333" stroke-width="0.3"/>
<polygon points="1098.6,577.3 1057.4,565.1 1057.4,545.8 1098.6,557.9" fill="rgb(62,139,157)" fill-opacity="0.8" stroke="#333" stroke-width="0.3"/>
<polygon points="1057.4,429.9 1001.4,422.7 1001.4,403.4 1057.4,410.6" fill="rgb(69,153,173)" fill-opacity="0.8" stroke="#333" stroke-width="0.3"/>
<polygon points="1001.4,364.8 939.1,363.7 939.1,344.4 1001.4,345.5" fill="rgb(69,153,173)" fill-opacity="0.8" stroke="#333" stroke-width="0.3"/>
<polygon points="880.0,504.1 833.1,514.8 833.1,495.5 880.0,484.8" fill="rgb(50,112,127)" fill-opacity="0.8" stroke="#333" stroke-width="0.3"/>
<polygon points="939.1,383.0 880.0,388.2 880.0,368.9 939.1,363.7" fill="rgb(62,139,157)" fill-opacity="0.8" stroke="#333" stroke-width="0.3"/>
<polygon points="1098.6,557.9 1057.4,545.8 1057.4,526.5 1098.6,538.6" fill="rgb(62,139,157)" fill-opacity="0.8" stroke="#333" stroke-width="0.3"/>
<polygon points="1057.4,410.6 1001.4,403.4 1001.4,384.1 1057.4,391.2" fill="rgb(69,153,173)" fill-opacity="0.8" stroke="#333" stroke-width="0.3"/>
<polygon points="880.0,484.8 833.1,495.5 833.1,476.2 880.0,465.5" fill="rgb(50,112,127)" fill-opacity="0.8" stroke="#333" stroke-width="0.3"/>
<polygon points="833.1,669.3 805.5,683.8 805.5,664.5 833.1,650.0" fill="rgb(34,77,87)" fill-opacity="0.8" stroke="#333" stroke-width="0.3"/>
<polygon points="939.1,363.7 880.0,368.9 880.0,349.6 939.1,344.4" fill="rgb(62,139,157)" fill-opacity="0.8" stroke="#333" stroke-width="0.3"/>
<polygon points="1098.6,538.6 1057.4,526.5 1057.4,507.1 1098.6,519.3" fill="rgb(62,139,157)" fill-opacity="0.8" stroke="#333" stroke-width="0.3"/>
<polygon points="1057.4,391.2 1001.4,384.1 1001.4,364.8 1057.4,371.9" fill="rgb(69,153,173)" fill-opacity="0.8" stroke="#333" stroke-width="0.3"/>
<polygon points="880.0,465.5 833.1,476.2 833.1,456.8 880.0,446.2" fill="rgb(50,112,127)" fill-opacity="0.8" stroke="#333" stroke-width="0.3"/>
<polygon points="833.1,650.0 805.5,664.5 805.5,645.2 833.1,630.7" fill="rgb(34,77,87)" fill-opacity="0.8" stroke="#333" stroke-width="0.3"/>
<polygon points="1098.6,519.3 1057.4,507.1 1057.4,487.8 1098.6,500.0" fill="rgb(62,139,157)" fill-opacity="0.8" stroke="#333" stroke-width="0.3"/>
<polygon points="1057.4,371.9 1001.4,364.8 1001.4,345.5 1057.4,352.6" fill="rgb(69,153,173)" fill-opacity="0.8" stroke="#333" stroke-width="0.3"/>
<polygon points="880.0,446.2 833.1,456.8 833.1,437.5 880.0,426.9" fill="rgb(50,112,127)" fill-opacity="0.8" stroke="#333" stroke-width="0.3"/>
<polygon points="833.1,630.7 805.5,645.2 805.5,625.9 833.1,611.4" fill="rgb(34,77,87)" fill-opacity="0.8" stroke="#333" stroke-width="0.3"/>
<polygon points="1098.6,500.0 1057.4,487.8 1057.4,468.5 1098.6,480.7" fill="rgb(62,139,157)" fill-opacity="0.8" stroke="#333" stroke-width="0.3"/>
<polygon points="880.0,426.9 833.1,437.5 833.1,418.2 880.0,407.5" fill="rgb(50,112,127)" fill-opacity="0.8" stroke="#333" stroke-width="0.3"/>
<polygon points="833.1,611.4 805.5,625.9 805.5,606.6 833.1,592.1" fill="rgb(34,77,87)" fill-opacity="0.8" stroke="#333" stroke-width="0.3"/>
<polygon points="1118.6,689.1 1098.6,673.8 1098.6,654.5 1118.6,669.8" fill="rgb(50,112,127)" fill-opacity="0.8" stroke="#333" stroke-width="0.3"/>
<polygon points="1098.6,480.7 1057.4,468.5 1057.4,449.2 1098.6,461.3" fill="rgb(62,139,157)" fill-opacity="0.8" stroke="#333" stroke-width="0.3"/>
<polygon points="880.0,407.5 833.1,418.2 833.1,398.9 880.0,388.2" fill="rgb(50,112,127)" fill-opacity="0.8" stroke="#333" stroke-width="0.3"/>
<polygon points="833.1,592.1 805.5,606.6 805.5,587.2 833.1,572.7" fill="rgb(34,77,87)" fill-opacity="0.8" stroke="#333" stroke-width="0.3"/>
<line x1="956.3" y1="847.5" x2="963.7" y2="850.7" stroke="#888" stroke-width="1"/>
<text x="974.6" y="861.9" font-size="18" fill="#aaa" text-anchor="middle" font-family="sans-serif">-2</text>
<polygon points="1118.6,669.8 1098.6,654.5 1098.6,635.2 1118.6,650.5" fill="rgb(50,112,127)" fill-opacity="0.8" stroke="#333" stroke-width="0.3"/>
<polygon points="1098.6,461.3 1057.4,449.2 1057.4,429.9 1098.6,442.0" fill="rgb(62,139,157)" fill-opacity="0.8" stroke="#333" stroke-width="0.3"/>
<polygon points="880.0,388.2 833.1,398.9 833.1,379.6 880.0,368.9" fill="rgb(50,112,127)" fill-opacity="0.8" stroke="#333" stroke-width="0.3"/>
<polygon points="833.1,572.7 805.5,587.2 805.5,567.9 833.1,553.4" fill="rgb(34,77,87)" fill-opacity="0.8" stroke="#333" stroke-width="0.3"/>
<line x1="1094.9" y1="517.7" x2="1102.2" y2="520.9" stroke="#888" stroke-width="1"/>
<text x="1113.2" y="532.1" font-size="18" fill="#aaa" text-anchor="middle" font-family="sans-serif">1</text>
<polygon points="1118.6,650.5 1098.6,635.2 1098.6,615.9 1118.6,631.2" fill="rgb(50,112,127)" fill-opacity="0.8" stroke="#333" stroke-width="0.3"/>
<polygon points="1098.6,442.0 1057.4,429.9 1057.4,410.6 1098.6,422.7" fill="rgb(62,139,157)" fill-opacity="0.8" stroke="#333" stroke-width="0.3"/>
<polygon points="880.0,368.9 833.1,379.6 833.1,360.2 880.0,349.6" fill="rgb(50,112,127)" fill-opacity="0.8" stroke="#333" stroke-width="0.3"/>
<polygon points="833.1,553.4 805.5,567.9 805.5,548.6 833.1,534.1" fill="rgb(34,77,87)" fill-opacity="0.8" stroke="#333" stroke-width="0.3"/>
<polygon points="1118.6,631.2 1098.6,615.9 1098.6,596.6 1118.6,611.9" fill="rgb(50,112,127)" fill-opacity="0.8" stroke="#333" stroke-width="0.3"/>
<polygon points="1098.6,422.7 1057.4,410.6 1057.4,391.2 1098.6,403.4" fill="rgb(62,139,157)" fill-opacity="0.8" stroke="#333" stroke-width="0.3"/>
<polygon points="833.1,534.1 805.5,548.6 805.5,529.3 833.1,514.8" fill="rgb(34,77,87)" fill-opacity="0.8" stroke="#333" stroke-width="0.3"/>
<polygon points="1118.6,611.9 1098.6,596.6 1098.6,577.3 1118.6,592.6" fill="rgb(50,112,127)" fill-opacity="0.8" stroke="#333" stroke-width="0.3"/>
<polygon points="1098.6,403.4 1057.4,391.2 1057.4,371.9 1098.6,384.1" fill="rgb(62,139,157)" fill-opacity="0.8" stroke="#333" stroke-width="0.3"/>
<polygon points="833.1,514.8 805.5,529.3 805.5,510.0 833.1,495.5" fill="rgb(34,77,87)" fill-opacity="0.8" stroke="#333" stroke-width="0.3"/>
<polygon points="1118.6,592.6 1098.6,577.3 1098.6,557.9 1118.6,573.2" fill="rgb(50,112,127)" fill-opacity="0.8" stroke="#333" stroke-width="0.3"/>
<polygon points="1098.6,384.1 1057.4,371.9 1057.4,352.6 1098.6,364.7" fill="rgb(62,139,157)" fill-opacity="0.8" stroke="#333" stroke-width="0.3"/>
<polygon points="833.1,495.5 805.5,510.0 805.5,490.6 833.1,476.2" fill="rgb(34,77,87)" fill-opacity="0.8" stroke="#333" stroke-width="0.3"/>
<polygon points="1118.6,573.2 1098.6,557.9 1098.6,538.6 1118.6,553.9" fill="rgb(50,112,127)" fill-opacity="0.8" stroke="#333" stroke-width="0.3"/>
<polygon points="833.1,476.2 805.5,490.6 805.5,471.3 833.1,456.8" fill="rgb(34,77,87)" fill-opacity="0.8" stroke="#333" stroke-width="0.3"/>
<polygon points="1118.6,553.9 1098.6,538.6 1098.6,519.3 1118.6,534.6" fill="rgb(50,112,127)" fill-opacity="0.8" stroke="#333" stroke-width="0.3"/>
<polygon points="833.1,456.8 805.5,471.3 805.5,452.0 833.1,437.5" fill="rgb(34,77,87)" fill-opacity="0.8" stroke="#333" stroke-width="0.3"/>
<polygon points="805.5,683.8 801.4,700.0 801.4,680.6 805.5,664.5" fill="rgb(34,77,87)" fill-opacity="0.8" stroke="#333" stroke-width="0.3"/>
<polygon points="1118.6,534.6 1098.6,519.3 1098.6,500.0 1118.6,515.3" fill="rgb(50,112,127)" fill-opacity="0.8" stroke="#333" stroke-width="0.3"/>
<polygon points="833.1,437.5 805.5,452.0 805.5,432.7 833.1,418.2" fill="rgb(34,77,87)" fill-opacity="0.8" stroke="#333" stroke-width="0.3"/>
<polygon points="805.5,664.5 801.4,680.6 801.4,661.3 805.5,645.2" fill="rgb(34,77,87)" fill-opacity="0.8" stroke="#333" stroke-width="0.3"/>
<line x1="956.3" y1="692.9" x2="963.7" y2="696.2" stroke="#888" stroke-width="1"/>
<text x="974.6" y="707.4" font-size="18" fill="#aaa" text-anchor="middle" font-family="sans-serif">-1</text>
<polygon points="1118.6,515.3 1098.6,500.0 1098.6,480.7 1118.6,496.0" fill="rgb(50,112,127)" fill-opacity="0.8" stroke="#333" stroke-width="0.3"/>
<polygon points="833.1,418.2 805.5,432.7 805.5,413.4 833.1,398.9" fill="rgb(34,77,87)" fill-opacity="0.8" stroke="#333" stroke-width="0.3"/>
<polygon points="805.5,645.2 801.4,661.3 801.4,642.0 805.5,625.9" fill="rgb(34,77,87)" fill-opacity="0.8" stroke="#333" stroke-width="0.3"/>
<polygon points="1118.6,496.0 1098.6,480.7 1098.6,461.3 1118.6,476.6" fill="rgb(50,112,127)" fill-opacity="0.8" stroke="#333" stroke-width="0.3"/>
<polygon points="833.1,398.9 805.5,413.4 805.5,394.1 833.1,379.6" fill="rgb(34,77,87)" fill-opacity="0.8" stroke="#333" stroke-width="0.3"/>
<polygon points="805.5,625.9 801.4,642.0 801.4,622.7 805.5,606.6" fill="rgb(34,77,87)" fill-opacity="0.8" stroke="#333" stroke-width="0.3"/>
<polygon points="1118.6,476.6 1098.6,461.3 1098.6,442.0 1118.6,457.3" fill="rgb(50,112,127)" fill-opacity="0.8" stroke="#333" stroke-width="0.3"/>
<polygon points="1114.5,705.3 1118.6,689.1 1118.6,669.8 1114.5,685.9" fill="rgb(34,77,87)" fill-opacity="0.8" stroke="#333" stroke-width="0.3"/>
<polygon points="833.1,379.6 805.5,394.1 805.5,374.7 833.1,360.2" fill="rgb(34,77,87)" fill-opacity="0.8" stroke="#333" stroke-width="0.3"/>
<polygon points="805.5,606.6 801.4,622.7 801.4,603.4 805.5,587.2" fill="rgb(34,77,87)" fill-opacity="0.8" stroke="#333" stroke-width="0.3"/>
<polygon points="1118.6,457.3 1098.6,442.0 1098.6,422.7 1118.6,438.0" fill="rgb(50,112,127)" fill-opacity="0.8" stroke="#333" stroke-width="0.3"/>
<polygon points="1114.5,685.9 1118.6,669.8 1118.6,650.5 1114.5,666.6" fill="rgb(34,77,87)" fill-opacity="0.8" stroke="#333" stroke-width="0.3"/>
<polygon points="805.5,587.2 801.4,603.4 801.4,584.0 805.5,567.9" fill="rgb(34,77,87)" fill-opacity="0.8" stroke="#333" stroke-width="0.3"/>
<polygon points="1118.6,438.0 1098.6,422.7 1098.6,403.4 1118.6,418.7" fill="rgb(50,112,127)" fill-opacity="0.8" stroke="#333" stroke-width="0.3"/>
<polygon points="1114.5,666.6 1118.6,650.5 1118.6,631.2 1114.5,647.3" fill="rgb(34,77,87)" fill-opacity="0.8" stroke="#333" stroke-width="0.3"/>
<polygon points="805.5,567.9 801.4,584.0 801.4,564.7 805.5,548.6" fill="rgb(34,77,87)" fill-opacity="0.8" stroke="#333" stroke-width="0.3"/>
<polygon points="1118.6,418.7 1098.6,403.4 1098.6,384.1 1118.6,399.4" fill="rgb(50,112,127)" fill-opacity="0.8" stroke="#333" stroke-width="0.3"/>
<polygon points="1114.5,647.3 1118.6,631.2 1118.6,611.9 1114.5,628.0" fill="rgb(34,77,87)" fill-opacity="0.8" stroke="#333" stroke-width="0.3"/>
<polygon points="805.5,548.6 801.4,564.7 801.4,545.4 805.5,529.3" fill="rgb(34,77,87)" fill-opacity="0.8" stroke="#333" stroke-width="0.3"/>
<polygon points="1118.6,399.4 1098.6,384.1 1098.6,364.7 1118.6,380.0" fill="rgb(50,112,127)" fill-opacity="0.8" stroke="#333" stroke-width="0.3"/>
<polygon points="1114.5,628.0 1118.6,611.9 1118.6,592.6 1114.5,608.7" fill="rgb(34,77,87)" fill-opacity="0.8" stroke="#333" stroke-width="0.3"/>
<polygon points="805.5,529.3 801.4,545.4 801.4,526.1 805.5,510.0" fill="rgb(34,77,87)" fill-opacity="0.8" stroke="#333" stroke-width="0.3"/>
<polygon points="1114.5,608.7 1118.6,592.6 1118.6,573.2 1114.5,589.4" fill="rgb(34,77,87)" fill-opacity="0.8" stroke="#333" stroke-width="0.3"/>
<polygon points="805.5,510.0 801.4,526.1 801.4,506.8 805.5,490.6" fill="rgb(34,77,87)" fill-opacity="0.8" stroke="#333" stroke-width="0.3"/>
<line x1="720.0" y1="432.4" x2="1200.0" y2="647.6" stroke="#888" stroke-width="2"/>
<polygon points="1200.0,647.6 1191.4,647.2 1194.0,641.4" fill="#888" stroke="none"/>
<line x1="544.3" y1="602.1" x2="1375.7" y2="477.9" stroke="#888" stroke-width="2"/>
<polygon points="1375.7,477.9 1368.3,482.2 1367.3,475.9" fill="#888" stroke="none"/>
<line x1="960.0" y1="849.1" x2="960.0" y2="230.9" stroke="#888" stroke-width="2"/>
<polygon points="960.0,230.9 963.2,238.9 956.8,238.9" fill="#888" stroke="none"/>
<line x1="956.0" y1="540.6" x2="964.0" y2="539.4" stroke="#888" stroke-width="1"/>
<text x="975.8" y="543.9" font-size="18" fill="#aaa" text-anchor="middle" font-family="sans-serif">0</text>
<line x1="956.3" y1="538.4" x2="963.7" y2="541.6" stroke="#888" stroke-width="1"/>
<text x="974.6" y="552.8" font-size="18" fill="#aaa" text-anchor="middle" font-family="sans-serif">0</text>
<line x1="956.3" y1="538.4" x2="963.7" y2="541.6" stroke="#888" stroke-width="1"/>
<text x="974.6" y="552.8" font-size="18" fill="#aaa" text-anchor="middle" font-family="sans-serif">0</text>
<g>
<path d='M3.33-3.01C3.39-3.27 3.62-4.18 4.31-4.18C4.36-4.18 4.6-4.18 4.81-4.05C4.53-4 4.33-3.76 4.33-3.52C4.33-3.36 4.44-3.17 4.71-3.17C4.93-3.17 5.25-3.35 5.25-3.75C5.25-4.26 4.66-4.4 4.32-4.4C3.75-4.4 3.4-3.88 3.28-3.65C3.03-4.3 2.49-4.4 2.2-4.4C1.17-4.4 .597758-3.12 .597758-2.87C.597758-2.77 .697385-2.77 .71731-2.77C.797011-2.77 .826899-2.79 .846824-2.88C1.19-3.94 1.84-4.18 2.18-4.18C2.37-4.18 2.72-4.09 2.72-3.52C2.72-3.21 2.55-2.54 2.18-1.15C2.02-.52802 1.67-.109589 1.24-.109589C1.18-.109589 .946451-.109589 .737235-.239103C.986301-.288917 1.21-.498132 1.21-.777086C1.21-1.05 .986301-1.13 .836862-1.13C.537983-1.13 .288917-.86675 .288917-.547945C.288917-.089664 .787049 .109589 1.23 .109589C1.88 .109589 2.24-.587796 2.27-.647572C2.39-.278954 2.75 .109589 3.35 .109589C4.37 .109589 4.94-1.18 4.94-1.42C4.94-1.52 4.85-1.52 4.82-1.52C4.73-1.52 4.71-1.48 4.69-1.41C4.36-.348692 3.69-.109589 3.37-.109589C2.98-.109589 2.82-.428394 2.82-.767123C2.82-.986301 2.88-1.21 2.99-1.64L3.33-3.01Z' fill='rgb(170,170,170)' stroke='rgb(255,255,255)' stroke-width='0' transform='translate(1219.92,671.3) scale(4.36,4.36)' />
</g>
<g>
<path d='M4.84-3.8C4.88-3.94 4.88-3.96 4.88-4.02C4.88-4.2 4.74-4.29 4.59-4.29C4.49-4.29 4.33-4.23 4.24-4.08C4.22-4.03 4.14-3.73 4.1-3.55C4.03-3.29 3.97-3.02 3.91-2.75L3.46-.956413C3.42-.806974 2.99-.109589 2.33-.109589C1.82-.109589 1.71-.547945 1.71-.916563C1.71-1.37 1.88-1.99 2.22-2.87C2.38-3.28 2.42-3.39 2.42-3.59C2.42-4.03 2.1-4.4 1.6-4.4C.657534-4.4 .288917-2.96 .288917-2.87C.288917-2.77 .388543-2.77 .408468-2.77C.508095-2.77 .518057-2.79 .56787-2.95C.836862-3.89 1.24-4.18 1.57-4.18C1.65-4.18 1.82-4.18 1.82-3.87C1.82-3.62 1.72-3.36 1.65-3.17C1.26-2.11 1.08-1.54 1.08-1.08C1.08-.18929 1.7 .109589 2.29 .109589C2.68 .109589 3.02-.059776 3.3-.33873C3.17 .179328 3.05 .667497 2.65 1.2C2.39 1.53 2.01 1.82 1.55 1.82C1.41 1.82 .966376 1.79 .797011 1.4C.956413 1.4 1.09 1.4 1.23 1.29C1.33 1.2 1.42 1.07 1.42 .876712C1.42 .56787 1.16 .52802 1.06 .52802C.826899 .52802 .498132 .687422 .498132 1.18C.498132 1.67 .936488 2.04 1.55 2.04C2.58 2.04 3.61 1.14 3.89 .009963L4.84-3.8Z' fill='rgb(170,170,170)' stroke='rgb(255,255,255)' stroke-width='0' transform='translate(1419.84,474.75) scale(4.36,4.36)' />
</g>
<g>
<path d='M1.33-.826899C1.86-1.4 2.15-1.65 2.51-1.96C2.51-1.97 3.13-2.5 3.49-2.86C4.43-3.79 4.65-4.26 4.65-4.3C4.65-4.4 4.56-4.4 4.54-4.4C4.47-4.4 4.44-4.38 4.39-4.29C4.09-3.82 3.89-3.66 3.65-3.66S3.29-3.81 3.14-3.98C2.95-4.2 2.78-4.4 2.45-4.4C1.7-4.4 1.25-3.48 1.25-3.27C1.25-3.22 1.28-3.16 1.36-3.16S1.47-3.21 1.49-3.27C1.68-3.73 2.26-3.74 2.34-3.74C2.55-3.74 2.74-3.67 2.97-3.59C3.37-3.44 3.48-3.44 3.74-3.44C3.38-3.01 2.54-2.29 2.35-2.13L1.45-1.3C.777086-.627646 .428394-.059776 .428394 .009963C.428394 .109589 .52802 .109589 .547945 .109589C.627646 .109589 .647572 .089664 .707347-.019925C.936488-.368618 1.24-.637609 1.55-.637609C1.78-.637609 1.88-.547945 2.13-.259029C2.3-.049813 2.48 .109589 2.77 .109589C3.76 .109589 4.33-1.16 4.33-1.42C4.33-1.47 4.29-1.52 4.21-1.52C4.12-1.52 4.1-1.46 4.07-1.39C3.85-.747198 3.21-.557908 2.88-.557908C2.68-.557908 2.5-.617684 2.29-.687422C1.95-.816936 1.8-.856787 1.59-.856787C1.57-.856787 1.41-.856787 1.33-.826899Z' fill='rgb(170,170,170)' stroke='rgb(255,255,255)' stroke-width='0' transform='translate(948.92,178.45) scale(4.36,4.36)' />
</g>
<polygon points="1114.5,589.4 1118.6,573.2 1118.6,553.9 1114.5,570.0" fill="rgb(34,77,87)" fill-opacity="0.8" stroke="#333" stroke-width="0.3"/>
<polygon points="805.5,490.6 801.4,506.8 801.4,487.4 805.5,471.3" fill="rgb(34,77,87)" fill-opacity="0.8" stroke="#333" stroke-width="0.3"/>
<polygon points="1114.5,570.0 1118.6,553.9 1118.6,534.6 1114.5,550.7" fill="rgb(34,77,87)" fill-opacity="0.8" stroke="#333" stroke-width="0.3"/>
<polygon points="805.5,471.3 801.4,487.4 801.4,468.1 805.5,452.0" fill="rgb(34,77,87)" fill-opacity="0.8" stroke="#333" stroke-width="0.3"/>
<polygon points="801.4,700.0 821.4,715.3 821.4,695.9 801.4,680.6" fill="rgb(50,112,127)" fill-opacity="0.8" stroke="#333" stroke-width="0.3"/>
<polygon points="1114.5,550.7 1118.6,534.6 1118.6,515.3 1114.5,531.4" fill="rgb(34,77,87)" fill-opacity="0.8" stroke="#333" stroke-width="0.3"/>
<polygon points="805.5,452.0 801.4,468.1 801.4,448.8 805.5,432.7" fill="rgb(34,77,87)" fill-opacity="0.8" stroke="#333" stroke-width="0.3"/>
<polygon points="801.4,680.6 821.4,695.9 821.4,676.6 801.4,661.3" fill="rgb(50,112,127)" fill-opacity="0.8" stroke="#333" stroke-width="0.3"/>
<polygon points="1114.5,531.4 1118.6,515.3 1118.6,496.0 1114.5,512.1" fill="rgb(34,77,87)" fill-opacity="0.8" stroke="#333" stroke-width="0.3"/>
<polygon points="805.5,432.7 801.4,448.8 801.4,429.5 805.5,413.4" fill="rgb(34,77,87)" fill-opacity="0.8" stroke="#333" stroke-width="0.3"/>
<polygon points="801.4,661.3 821.4,676.6 821.4,657.3 801.4,642.0" fill="rgb(50,112,127)" fill-opacity="0.8" stroke="#333" stroke-width="0.3"/>
<polygon points="1114.5,512.1 1118.6,496.0 1118.6,476.6 1114.5,492.8" fill="rgb(34,77,87)" fill-opacity="0.8" stroke="#333" stroke-width="0.3"/>
<polygon points="805.5,413.4 801.4,429.5 801.4,410.2 805.5,394.1" fill="rgb(34,77,87)" fill-opacity="0.8" stroke="#333" stroke-width="0.3"/>
<polygon points="801.4,642.0 821.4,657.3 821.4,638.0 801.4,622.7" fill="rgb(50,112,127)" fill-opacity="0.8" stroke="#333" stroke-width="0.3"/>
<polygon points="1114.5,492.8 1118.6,476.6 1118.6,457.3 1114.5,473.4" fill="rgb(34,77,87)" fill-opacity="0.8" stroke="#333" stroke-width="0.3"/>
<polygon points="1086.9,719.8 1114.5,705.3 1114.5,685.9 1086.9,700.4" fill="rgb(34,77,87)" fill-opacity="0.8" stroke="#333" stroke-width="0.3"/>
<polygon points="805.5,394.1 801.4,410.2 801.4,390.9 805.5,374.7" fill="rgb(34,77,87)" fill-opacity="0.8" stroke="#333" stroke-width="0.3"/>
<polygon points="801.4,622.7 821.4,638.0 821.4,618.7 801.4,603.4" fill="rgb(50,112,127)" fill-opacity="0.8" stroke="#333" stroke-width="0.3"/>
<polygon points="1114.5,473.4 1118.6,457.3 1118.6,438.0 1114.5,454.1" fill="rgb(34,77,87)" fill-opacity="0.8" stroke="#333" stroke-width="0.3"/>
<polygon points="1086.9,700.4 1114.5,685.9 1114.5,666.6 1086.9,681.1" fill="rgb(34,77,87)" fill-opacity="0.8" stroke="#333" stroke-width="0.3"/>
<polygon points="801.4,603.4 821.4,618.7 821.4,599.3 801.4,584.0" fill="rgb(50,112,127)" fill-opacity="0.8" stroke="#333" stroke-width="0.3"/>
<polygon points="1114.5,454.1 1118.6,438.0 1118.6,418.7 1114.5,434.8" fill="rgb(34,77,87)" fill-opacity="0.8" stroke="#333" stroke-width="0.3"/>
<polygon points="1086.9,681.1 1114.5,666.6 1114.5,647.3 1086.9,661.8" fill="rgb(34,77,87)" fill-opacity="0.8" stroke="#333" stroke-width="0.3"/>
<polygon points="801.4,584.0 821.4,599.3 821.4,580.0 801.4,564.7" fill="rgb(50,112,127)" fill-opacity="0.8" stroke="#333" stroke-width="0.3"/>
<line x1="956.3" y1="383.8" x2="963.7" y2="387.1" stroke="#888" stroke-width="1"/>
<text x="974.6" y="398.3" font-size="18" fill="#aaa" text-anchor="middle" font-family="sans-serif">1</text>
<polygon points="1114.5,434.8 1118.6,418.7 1118.6,399.4 1114.5,415.5" fill="rgb(34,77,87)" fill-opacity="0.8" stroke="#333" stroke-width="0.3"/>
<polygon points="1086.9,661.8 1114.5,647.3 1114.5,628.0 1086.9,642.5" fill="rgb(34,77,87)" fill-opacity="0.8" stroke="#333" stroke-width="0.3"/>
<polygon points="801.4,564.7 821.4,580.0 821.4,560.7 801.4,545.4" fill="rgb(50,112,127)" fill-opacity="0.8" stroke="#333" stroke-width="0.3"/>
<polygon points="1114.5,415.5 1118.6,399.4 1118.6,380.0 1114.5,396.2" fill="rgb(34,77,87)" fill-opacity="0.8" stroke="#333" stroke-width="0.3"/>
<polygon points="1086.9,642.5 1114.5,628.0 1114.5,608.7 1086.9,623.2" fill="rgb(34,77,87)" fill-opacity="0.8" stroke="#333" stroke-width="0.3"/>
<polygon points="801.4,545.4 821.4,560.7 821.4,541.4 801.4,526.1" fill="rgb(50,112,127)" fill-opacity="0.8" stroke="#333" stroke-width="0.3"/>
<polygon points="1086.9,623.2 1114.5,608.7 1114.5,589.4 1086.9,603.8" fill="rgb(34,77,87)" fill-opacity="0.8" stroke="#333" stroke-width="0.3"/>
<polygon points="801.4,526.1 821.4,541.4 821.4,522.1 801.4,506.8" fill="rgb(50,112,127)" fill-opacity="0.8" stroke="#333" stroke-width="0.3"/>
<polygon points="1086.9,603.8 1114.5,589.4 1114.5,570.0 1086.9,584.5" fill="rgb(34,77,87)" fill-opacity="0.8" stroke="#333" stroke-width="0.3"/>
<polygon points="821.4,715.3 862.6,727.4 862.6,708.1 821.4,695.9" fill="rgb(62,139,157)" fill-opacity="0.8" stroke="#333" stroke-width="0.3"/>
<polygon points="801.4,506.8 821.4,522.1 821.4,502.7 801.4,487.4" fill="rgb(50,112,127)" fill-opacity="0.8" stroke="#333" stroke-width="0.3"/>
<polygon points="1086.9,584.5 1114.5,570.0 1114.5,550.7 1086.9,565.2" fill="rgb(34,77,87)" fill-opacity="0.8" stroke="#333" stroke-width="0.3"/>
<polygon points="821.4,695.9 862.6,708.1 862.6,688.8 821.4,676.6" fill="rgb(62,139,157)" fill-opacity="0.8" stroke="#333" stroke-width="0.3"/>
<polygon points="801.4,487.4 821.4,502.7 821.4,483.4 801.4,468.1" fill="rgb(50,112,127)" fill-opacity="0.8" stroke="#333" stroke-width="0.3"/>
<polygon points="1086.9,565.2 1114.5,550.7 1114.5,531.4 1086.9,545.9" fill="rgb(34,77,87)" fill-opacity="0.8" stroke="#333" stroke-width="0.3"/>
<polygon points="821.4,676.6 862.6,688.8 862.6,669.4 821.4,657.3" fill="rgb(62,139,157)" fill-opacity="0.8" stroke="#333" stroke-width="0.3"/>
<polygon points="801.4,468.1 821.4,483.4 821.4,464.1 801.4,448.8" fill="rgb(50,112,127)" fill-opacity="0.8" stroke="#333" stroke-width="0.3"/>
<polygon points="1086.9,545.9 1114.5,531.4 1114.5,512.1 1086.9,526.6" fill="rgb(34,77,87)" fill-opacity="0.8" stroke="#333" stroke-width="0.3"/>
<polygon points="1040.0,730.4 1086.9,719.8 1086.9,700.4 1040.0,711.1" fill="rgb(50,112,127)" fill-opacity="0.8" stroke="#333" stroke-width="0.3"/>
<polygon points="821.4,657.3 862.6,669.4 862.6,650.1 821.4,638.0" fill="rgb(62,139,157)" fill-opacity="0.8" stroke="#333" stroke-width="0.3"/>
<polygon points="801.4,448.8 821.4,464.1 821.4,444.8 801.4,429.5" fill="rgb(50,112,127)" fill-opacity="0.8" stroke="#333" stroke-width="0.3"/>
<line x1="817.8" y1="559.1" x2="825.1" y2="562.3" stroke="#888" stroke-width="1"/>
<text x="836.0" y="573.6" font-size="18" fill="#aaa" text-anchor="middle" font-family="sans-serif">-1</text>
<polygon points="1086.9,526.6 1114.5,512.1 1114.5,492.8 1086.9,507.3" fill="rgb(34,77,87)" fill-opacity="0.8" stroke="#333" stroke-width="0.3"/>
<polygon points="1040.0,711.1 1086.9,700.4 1086.9,681.1 1040.0,691.8" fill="rgb(50,112,127)" fill-opacity="0.8" stroke="#333" stroke-width="0.3"/>
<polygon points="821.4,638.0 862.6,650.1 862.6,630.8 821.4,618.7" fill="rgb(62,139,157)" fill-opacity="0.8" stroke="#333" stroke-width="0.3"/>
<polygon points="801.4,429.5 821.4,444.8 821.4,425.5 801.4,410.2" fill="rgb(50,112,127)" fill-opacity="0.8" stroke="#333" stroke-width="0.3"/>
<line x1="956.3" y1="229.3" x2="963.7" y2="232.5" stroke="#888" stroke-width="1"/>
<text x="974.6" y="243.7" font-size="18" fill="#aaa" text-anchor="middle" font-family="sans-serif">2</text>
<polygon points="1086.9,507.3 1114.5,492.8 1114.5,473.4 1086.9,487.9" fill="rgb(34,77,87)" fill-opacity="0.8" stroke="#333" stroke-width="0.3"/>
<polygon points="1040.0,691.8 1086.9,681.1 1086.9,661.8 1040.0,672.5" fill="rgb(50,112,127)" fill-opacity="0.8" stroke="#333" stroke-width="0.3"/>
<polygon points="821.4,618.7 862.6,630.8 862.6,611.5 821.4,599.3" fill="rgb(62,139,157)" fill-opacity="0.8" stroke="#333" stroke-width="0.3"/>
<polygon points="801.4,410.2 821.4,425.5 821.4,406.2 801.4,390.9" fill="rgb(50,112,127)" fill-opacity="0.8" stroke="#333" stroke-width="0.3"/>
<polygon points="1086.9,487.9 1114.5,473.4 1114.5,454.1 1086.9,468.6" fill="rgb(34,77,87)" fill-opacity="0.8" stroke="#333" stroke-width="0.3"/>
<polygon points="1040.0,672.5 1086.9,661.8 1086.9,642.5 1040.0,653.1" fill="rgb(50,112,127)" fill-opacity="0.8" stroke="#333" stroke-width="0.3"/>
<polygon points="821.4,599.3 862.6,611.5 862.6,592.2 821.4,580.0" fill="rgb(62,139,157)" fill-opacity="0.8" stroke="#333" stroke-width="0.3"/>
<polygon points="1086.9,468.6 1114.5,454.1 1114.5,434.8 1086.9,449.3" fill="rgb(34,77,87)" fill-opacity="0.8" stroke="#333" stroke-width="0.3"/>
<polygon points="1040.0,653.1 1086.9,642.5 1086.9,623.2 1040.0,633.8" fill="rgb(50,112,127)" fill-opacity="0.8" stroke="#333" stroke-width="0.3"/>
<polygon points="862.6,727.4 918.6,734.5 918.6,715.2 862.6,708.1" fill="rgb(69,153,173)" fill-opacity="0.8" stroke="#333" stroke-width="0.3"/>
<polygon points="821.4,580.0 862.6,592.2 862.6,572.9 821.4,560.7" fill="rgb(62,139,157)" fill-opacity="0.8" stroke="#333" stroke-width="0.3"/>
<polygon points="1086.9,449.3 1114.5,434.8 1114.5,415.5 1086.9,430.0" fill="rgb(34,77,87)" fill-opacity="0.8" stroke="#333" stroke-width="0.3"/>
<polygon points="1040.0,633.8 1086.9,623.2 1086.9,603.8 1040.0,614.5" fill="rgb(50,112,127)" fill-opacity="0.8" stroke="#333" stroke-width="0.3"/>
<polygon points="862.6,708.1 918.6,715.2 918.6,695.9 862.6,688.8" fill="rgb(69,153,173)" fill-opacity="0.8" stroke="#333" stroke-width="0.3"/>
<polygon points="821.4,560.7 862.6,572.9 862.6,553.5 821.4,541.4" fill="rgb(62,139,157)" fill-opacity="0.8" stroke="#333" stroke-width="0.3"/>
<polygon points="980.9,735.6 1040.0,730.4 1040.0,711.1 980.9,716.3" fill="rgb(62,139,157)" fill-opacity="0.8" stroke="#333" stroke-width="0.3"/>
<polygon points="1086.9,430.0 1114.5,415.5 1114.5,396.2 1086.9,410.7" fill="rgb(34,77,87)" fill-opacity="0.8" stroke="#333" stroke-width="0.3"/>
<polygon points="1040.0,614.5 1086.9,603.8 1086.9,584.5 1040.0,595.2" fill="rgb(50,112,127)" fill-opacity="0.8" stroke="#333" stroke-width="0.3"/>
<polygon points="862.6,688.8 918.6,695.9 918.6,676.6 862.6,669.4" fill="rgb(69,153,173)" fill-opacity="0.8" stroke="#333" stroke-width="0.3"/>
<polygon points="821.4,541.4 862.6,553.5 862.6,534.2 821.4,522.1" fill="rgb(62,139,157)" fill-opacity="0.8" stroke="#333" stroke-width="0.3"/>
<polygon points="980.9,716.3 1040.0,711.1 1040.0,691.8 980.9,697.0" fill="rgb(62,139,157)" fill-opacity="0.8" stroke="#333" stroke-width="0.3"/>
<polygon points="1040.0,595.2 1086.9,584.5 1086.9,565.2 1040.0,575.9" fill="rgb(50,112,127)" fill-opacity="0.8" stroke="#333" stroke-width="0.3"/>
<polygon points="918.6,734.5 980.9,735.6 980.9,716.3 918.6,715.2" fill="rgb(69,153,173)" fill-opacity="0.8" stroke="#333" stroke-width="0.3"/>
<polygon points="862.6,669.4 918.6,676.6 918.6,657.3 862.6,650.1" fill="rgb(69,153,173)" fill-opacity="0.8" stroke="#333" stroke-width="0.3"/>
<polygon points="821.4,522.1 862.6,534.2 862.6,514.9 821.4,502.7" fill="rgb(62,139,157)" fill-opacity="0.8" stroke="#333" stroke-width="0.3"/>
<polygon points="980.9,697.0 1040.0,691.8 1040.0,672.5 980.9,677.6" fill="rgb(62,139,157)" fill-opacity="0.8" stroke="#333" stroke-width="0.3"/>
<polygon points="1040.0,575.9 1086.9,565.2 1086.9,545.9 1040.0,556.5" fill="rgb(50,112,127)" fill-opacity="0.8" stroke="#333" stroke-width="0.3"/>
<polygon points="918.6,715.2 980.9,716.3 980.9,697.0 918.6,695.9" fill="rgb(69,153,173)" fill-opacity="0.8" stroke="#333" stroke-width="0.3"/>
<polygon points="862.6,650.1 918.6,657.3 918.6,638.0 862.6,630.8" fill="rgb(69,153,173)" fill-opacity="0.8" stroke="#333" stroke-width="0.3"/>
<polygon points="821.4,502.7 862.6,514.9 862.6,495.6 821.4,483.4" fill="rgb(62,139,157)" fill-opacity="0.8" stroke="#333" stroke-width="0.3"/>
<polygon points="980.9,677.6 1040.0,672.5 1040.0,653.1 980.9,658.3" fill="rgb(62,139,157)" fill-opacity="0.8" stroke="#333" stroke-width="0.3"/>
<polygon points="1040.0,556.5 1086.9,545.9 1086.9,526.6 1040.0,537.2" fill="rgb(50,112,127)" fill-opacity="0.8" stroke="#333" stroke-width="0.3"/>
<polygon points="918.6,695.9 980.9,697.0 980.9,677.6 918.6,676.6" fill="rgb(69,153,173)" fill-opacity="0.8" stroke="#333" stroke-width="0.3"/>
<polygon points="862.6,630.8 918.6,638.0 918.6,618.6 862.6,611.5" fill="rgb(69,153,173)" fill-opacity="0.8" stroke="#333" stroke-width="0.3"/>
<polygon points="821.4,483.4 862.6,495.6 862.6,476.3 821.4,464.1" fill="rgb(62,139,157)" fill-opacity="0.8" stroke="#333" stroke-width="0.3"/>
<polygon points="980.9,658.3 1040.0,653.1 1040.0,633.8 980.9,639.0" fill="rgb(62,139,157)" fill-opacity="0.8" stroke="#333" stroke-width="0.3"/>
<polygon points="1040.0,537.2 1086.9,526.6 1086.9,507.3 1040.0,517.9" fill="rgb(50,112,127)" fill-opacity="0.8" stroke="#333" stroke-width="0.3"/>
<polygon points="918.6,676.6 980.9,677.6 980.9,658.3 918.6,657.3" fill="rgb(69,153,173)" fill-opacity="0.8" stroke="#333" stroke-width="0.3"/>
<polygon points="862.6,611.5 918.6,618.6 918.6,599.3 862.6,592.2" fill="rgb(69,153,173)" fill-opacity="0.8" stroke="#333" stroke-width="0.3"/>
<polygon points="821.4,464.1 862.6,476.3 862.6,456.9 821.4,444.8" fill="rgb(62,139,157)" fill-opacity="0.8" stroke="#333" stroke-width="0.3"/>
<polygon points="980.9,639.0 1040.0,633.8 1040.0,614.5 980.9,619.7" fill="rgb(62,139,157)" fill-opacity="0.8" stroke="#333" stroke-width="0.3"/>
<polygon points="1040.0,517.9 1086.9,507.3 1086.9,487.9 1040.0,498.6" fill="rgb(50,112,127)" fill-opacity="0.8" stroke="#333" stroke-width="0.3"/>
<polygon points="918.6,657.3 980.9,658.3 980.9,639.0 918.6,638.0" fill="rgb(69,153,173)" fill-opacity="0.8" stroke="#333" stroke-width="0.3"/>
<polygon points="862.6,592.2 918.6,599.3 918.6,580.0 862.6,572.9" fill="rgb(69,153,173)" fill-opacity="0.8" stroke="#333" stroke-width="0.3"/>
<polygon points="821.4,444.8 862.6,456.9 862.6,437.6 821.4,425.5" fill="rgb(62,139,157)" fill-opacity="0.8" stroke="#333" stroke-width="0.3"/>
<line x1="1036.0" y1="576.5" x2="1044.0" y2="575.3" stroke="#888" stroke-width="1"/>
<text x="1055.8" y="579.8" font-size="18" fill="#aaa" text-anchor="middle" font-family="sans-serif">1</text>
<polygon points="980.9,619.7 1040.0,614.5 1040.0,595.2 980.9,600.4" fill="rgb(62,139,157)" fill-opacity="0.8" stroke="#333" stroke-width="0.3"/>
<polygon points="1040.0,498.6 1086.9,487.9 1086.9,468.6 1040.0,479.3" fill="rgb(50,112,127)" fill-opacity="0.8" stroke="#333" stroke-width="0.3"/>
<polygon points="918.6,638.0 980.9,639.0 980.9,619.7 918.6,618.6" fill="rgb(69,153,173)" fill-opacity="0.8" stroke="#333" stroke-width="0.3"/>
<polygon points="862.6,572.9 918.6,580.0 918.6,560.7 862.6,553.5" fill="rgb(69,153,173)" fill-opacity="0.8" stroke="#333" stroke-width="0.3"/>
<polygon points="821.4,425.5 862.6,437.6 862.6,418.3 821.4,406.2" fill="rgb(62,139,157)" fill-opacity="0.8" stroke="#333" stroke-width="0.3"/>
<polygon points="980.9,600.4 1040.0,595.2 1040.0,575.9 980.9,581.1" fill="rgb(62,139,157)" fill-opacity="0.8" stroke="#333" stroke-width="0.3"/>
<polygon points="1040.0,479.3 1086.9,468.6 1086.9,449.3 1040.0,460.0" fill="rgb(50,112,127)" fill-opacity="0.8" stroke="#333" stroke-width="0.3"/>
<polygon points="918.6,618.6 980.9,619.7 980.9,600.4 918.6,599.3" fill="rgb(69,153,173)" fill-opacity="0.8" stroke="#333" stroke-width="0.3"/>
<polygon points="862.6,553.5 918.6,560.7 918.6,541.4 862.6,534.2" fill="rgb(69,153,173)" fill-opacity="0.8" stroke="#333" stroke-width="0.3"/>
<polygon points="980.9,581.1 1040.0,575.9 1040.0,556.5 980.9,561.7" fill="rgb(62,139,157)" fill-opacity="0.8" stroke="#333" stroke-width="0.3"/>
<polygon points="1040.0,460.0 1086.9,449.3 1086.9,430.0 1040.0,440.6" fill="rgb(50,112,127)" fill-opacity="0.8" stroke="#333" stroke-width="0.3"/>
<polygon points="918.6,599.3 980.9,600.4 980.9,581.1 918.6,580.0" fill="rgb(69,153,173)" fill-opacity="0.8" stroke="#333" stroke-width="0.3"/>
<polygon points="862.6,534.2 918.6,541.4 918.6,522.0 862.6,514.9" fill="rgb(69,153,173)" fill-opacity="0.8" stroke="#333" stroke-width="0.3"/>
<polygon points="980.9,561.7 1040.0,556.5 1040.0,537.2 980.9,542.4" fill="rgb(62,139,157)" fill-opacity="0.8" stroke="#333" stroke-width="0.3"/>
<polygon points="1040.0,440.6 1086.9,430.0 1086.9,410.7 1040.0,421.3" fill="rgb(50,112,127)" fill-opacity="0.8" stroke="#333" stroke-width="0.3"/>
<polygon points="918.6,580.0 980.9,581.1 980.9,561.7 918.6,560.7" fill="rgb(69,153,173)" fill-opacity="0.8" stroke="#333" stroke-width="0.3"/>
<polygon points="862.6,514.9 918.6,522.0 918.6,502.7 862.6,495.6" fill="rgb(69,153,173)" fill-opacity="0.8" stroke="#333" stroke-width="0.3"/>
<line x1="679.2" y1="579.8" x2="686.5" y2="583.0" stroke="#888" stroke-width="1"/>
<text x="697.5" y="594.3" font-size="18" fill="#aaa" text-anchor="middle" font-family="sans-serif">-2</text>
<polygon points="980.9,542.4 1040.0,537.2 1040.0,517.9 980.9,523.1" fill="rgb(62,139,157)" fill-opacity="0.8" stroke="#333" stroke-width="0.3"/>
<polygon points="918.6,560.7 980.9,561.7 980.9,542.4 918.6,541.4" fill="rgb(69,153,173)" fill-opacity="0.8" stroke="#333" stroke-width="0.3"/>
<polygon points="862.6,495.6 918.6,502.7 918.6,483.4 862.6,476.3" fill="rgb(69,153,173)" fill-opacity="0.8" stroke="#333" stroke-width="0.3"/>
<polygon points="980.9,523.1 1040.0,517.9 1040.0,498.6 980.9,503.8" fill="rgb(62,139,157)" fill-opacity="0.8" stroke="#333" stroke-width="0.3"/>
<polygon points="918.6,541.4 980.9,542.4 980.9,523.1 918.6,522.0" fill="rgb(69,153,173)" fill-opacity="0.8" stroke="#333" stroke-width="0.3"/>
<polygon points="862.6,476.3 918.6,483.4 918.6,464.1 862.6,456.9" fill="rgb(69,153,173)" fill-opacity="0.8" stroke="#333" stroke-width="0.3"/>
<polygon points="980.9,503.8 1040.0,498.6 1040.0,479.3 980.9,484.5" fill="rgb(62,139,157)" fill-opacity="0.8" stroke="#333" stroke-width="0.3"/>
<polygon points="918.6,522.0 980.9,523.1 980.9,503.8 918.6,502.7" fill="rgb(69,153,173)" fill-opacity="0.8" stroke="#333" stroke-width="0.3"/>
<polygon points="862.6,456.9 918.6,464.1 918.6,444.8 862.6,437.6" fill="rgb(69,153,173)" fill-opacity="0.8" stroke="#333" stroke-width="0.3"/>
<polygon points="980.9,484.5 1040.0,479.3 1040.0,460.0 980.9,465.1" fill="rgb(62,139,157)" fill-opacity="0.8" stroke="#333" stroke-width="0.3"/>
<polygon points="918.6,502.7 980.9,503.8 980.9,484.5 918.6,483.4" fill="rgb(69,153,173)" fill-opacity="0.8" stroke="#333" stroke-width="0.3"/>
<polygon points="862.6,437.6 918.6,444.8 918.6,425.5 862.6,418.3" fill="rgb(69,153,173)" fill-opacity="0.8" stroke="#333" stroke-width="0.3"/>
<polygon points="980.9,465.1 1040.0,460.0 1040.0,440.6 980.9,445.8" fill="rgb(62,139,157)" fill-opacity="0.8" stroke="#333" stroke-width="0.3"/>
<polygon points="918.6,483.4 980.9,484.5 980.9,465.1 918.6,464.1" fill="rgb(69,153,173)" fill-opacity="0.8" stroke="#333" stroke-width="0.3"/>
<polygon points="980.9,445.8 1040.0,440.6 1040.0,421.3 980.9,426.5" fill="rgb(62,139,157)" fill-opacity="0.8" stroke="#333" stroke-width="0.3"/>
<polygon points="918.6,464.1 980.9,465.1 980.9,445.8 918.6,444.8" fill="rgb(69,153,173)" fill-opacity="0.8" stroke="#333" stroke-width="0.3"/>
<polygon points="918.6,444.8 980.9,445.8 980.9,426.5 918.6,425.5" fill="rgb(69,153,173)" fill-opacity="0.8" stroke="#333" stroke-width="0.3"/>
<line x1="540.7" y1="600.5" x2="548.0" y2="603.8" stroke="#888" stroke-width="1"/>
<text x="558.9" y="615.0" font-size="18" fill="#aaa" text-anchor="middle" font-family="sans-serif">-3</text>
<line x1="1116.0" y1="612.3" x2="1124.0" y2="611.1" stroke="#888" stroke-width="1"/>
<text x="1135.8" y="615.7" font-size="18" fill="#aaa" text-anchor="middle" font-family="sans-serif">2</text>
<line x1="1196.0" y1="648.2" x2="1204.0" y2="647.0" stroke="#888" stroke-width="1"/>
<text x="1215.8" y="651.5" font-size="18" fill="#aaa" text-anchor="middle" font-family="sans-serif">3</text>
</g></g>
</svg>