<?xml version='1.0' encoding='UTF-8'?>
<svg version='1.1' xmlns='http://www.w3.org/2000/svg' xmlns:xlink='http://www.w3.org/1999/xlink' width='1920' height='1080' viewBox='0 0 1920 1080'>
<g data-obj-idx='0'><rect x='0' y='0' width='1920' height='1080' rx='0' ry='0' stroke='rgb(0,0,0)' stroke-width='0' /></g>
<g data-obj-idx='1'><g>
<line x1="796.0" y1="468.9" x2="804.0" y2="467.7" stroke="#888" stroke-width="1"/>
<text x="815.8" y="472.2" font-size="18" fill="#aaa" text-anchor="middle" font-family="sans-serif">-2</text>
<line x1="1233.5" y1="497.0" x2="1240.8" y2="500.2" stroke="#888" stroke-width="1"/>
<text x="1251.7" y="511.4" font-size="18" fill="#aaa" text-anchor="middle" font-family="sans-serif">2</text>
<line x1="876.0" y1="504.7" x2="884.0" y2="503.5" stroke="#888" stroke-width="1"/>
<text x="895.8" y="508.1" font-size="18" fill="#aaa" text-anchor="middle" font-family="sans-serif">-1</text>
<line x1="1094.9" y1="517.7" x2="1102.2" y2="520.9" stroke="#888" stroke-width="1"/>
<text x="1113.2" y="532.1" font-size="18" fill="#aaa" text-anchor="middle" font-family="sans-serif">1</text>
<line x1="956.3" y1="692.9" x2="963.7" y2="696.2" stroke="#888" stroke-width="1"/>
<text x="974.6" y="707.4" font-size="18" fill="#aaa" text-anchor="middle" font-family="sans-serif">-1</text>
<line x1="956.3" y1="615.6" x2="963.7" y2="618.9" stroke="#888" stroke-width="1"/>
<text x="974.6" y="630.1" font-size="18" fill="#aaa" text-anchor="middle" font-family="sans-serif">-0.5</text>
<line x1="800.0" y1="468.3" x2="1120.0" y2="611.7" stroke="#888" stroke-width="2"/>
<polygon points="1120.0,611.7 1111.4,611.4 1114.0,605.5" fill="#888" stroke="none"/>
<line x1="682.9" y1="581.4" x2="1237.1" y2="498.6" stroke="#888" stroke-width="2"/>
<polygon points="1237.1,498.6 1229.7,502.9 1228.7,496.6" fill="#888" stroke="none"/>
<line x1="956.0" y1="540.6" x2="964.0" y2="539.4" stroke="#888" stroke-width="1"/>
<text x="975.8" y="543.9" font-size="18" fill="#aaa" text-anchor="middle" font-family="sans-serif">0</text>
<line x1="956.3" y1="538.4" x2="963.7" y2="541.6" stroke="#888" stroke-width="1"/>
<text x="974.6" y="552.8" font-size="18" fill="#aaa" text-anchor="middle" font-family="sans-serif">0</text>
<line x1="956.3" y1="538.4" x2="963.7" y2="541.6" stroke="#888" stroke-width="1"/>
<text x="974.6" y="552.8" font-size="18" fill="#aaa" text-anchor="middle" font-family="sans-serif">0</text>
<g>
<path d='M3.33-3.01C3.39-3.27 3.62-4.18 4.31-4.18C4.36-4.18 4.6-4.18 4.81-4.05C4.53-4 4.33-3.76 4.33-3.52C4.33-3.36 4.44-3.17 4.71-3.17C4.93-3.17 5.25-3.35 5.25-3.75C5.25-4.26 4.66-4.4 4.32-4.4C3.75-4.4 3.4-3.88 3.28-3.65C3.03-4.3 2.49-4.4 2.2-4.4C1.17-4.4 .597758-3.12 .597758-2.87C.597758-2.77 .697385-2.77 .71731-2.77C.797011-2.77 .826899-2.79 .846824-2.88C1.19-3.94 1.84-4.18 2.18-4.18C2.37-4.18 2.72-4.09 2.72-3.52C2.72-3.21 2.55-2.54 2.18-1.15C2.02-.52802 1.67-.109589 1.24-.109589C1.18-.109589 .946451-.109589 .737235-.239103C.986301-.288917 1.21-.498132 1.21-.777086C1.21-1.05 .986301-1.13 .836862-1.13C.537983-1.13 .288917-.86675 .288917-.547945C.288917-.089664 .787049 .109589 1.23 .109589C1.88 .109589 2.24-.587796 2.27-.647572C2.39-.278954 2.75 .109589 3.35 .109589C4.37 .109589 4.94-1.18 4.94-1.42C4.94-1.52 4.85-1.52 4.82-1.52C4.73-1.52 4.71-1.48 4.69-1.41C4.36-.348692 3.69-.109589 3.37-.109589C2.98-.109589 2.82-.428394 2.82-.767123C2.82-.986301 2.88-1.21 2.99-1.64L3.33-3.01Z' fill='rgb(170,170,170)' stroke='rgb(255,255,255)' stroke-width='0' transform='translate(1139.92,635.43) scale(4.36,4.36)' />
</g>
<g>
<path d='M4.84-3.8C4.88-3.94 4.88-3.96 4.88-4.02C4.88-4.2 4.74-4.29 4.59-4.29C4.49-4.29 4.33-4.23 4.24-4.08C4.22-4.03 4.14-3.73 4.1-3.55C4.03-3.29 3.97-3.02 3.91-2.75L3.46-.956413C3.42-.806974 2.99-.109589 2.33-.109589C1.82-.109589 1.71-.547945 1.71-.916563C1.71-1.37 1.88-1.99 2.22-2.87C2.38-3.28 2.42-3.39 2.42-3.59C2.42-4.03 2.1-4.4 1.6-4.4C.657534-4.4 .288917-2.96 .288917-2.87C.288917-2.77 .388543-2.77 .408468-2.77C.508095-2.77 .518057-2.79 .56787-2.95C.836862-3.89 1.24-4.18 1.57-4.18C1.65-4.18 1.82-4.18 1.82-3.87C1.82-3.62 1.72-3.36 1.65-3.17C1.26-2.11 1.08-1.54 1.08-1.08C1.08-.18929 1.7 .109589 2.29 .109589C2.68 .109589 3.02-.059776 3.3-.33873C3.17 .179328 3.05 .667497 2.65 1.2C2.39 1.53 2.01 1.82 1.55 1.82C1.41 1.82 .966376 1.79 .797011 1.4C.956413 1.4 1.09 1.4 1.23 1.29C1.33 1.2 1.42 1.07 1.42 .876712C1.42 .56787 1.16 .52802 1.06 .52802C.826899 .52802 .498132 .687422 .498132 1.18C.498132 1.67 .936488 2.04 1.55 2.04C2.58 2.04 3.61 1.14 3.89 .009963L4.84-3.8Z' fill='rgb(170,170,170)' stroke='rgb(255,255,255)' stroke-width='0' transform='translate(1281.28,495.46) scale(4.36,4.36)' />
</g>
<g>
<path d='M1.33-.826899C1.86-1.4 2.15-1.65 2.51-1.96C2.51-1.97 3.13-2.5 3.49-2.86C4.43-3.79 4.65-4.26 4.65-4.3C4.65-4.4 4.56-4.4 4.54-4.4C4.47-4.4 4.44-4.38 4.39-4.29C4.09-3.82 3.89-3.66 3.65-3.66S3.29-3.81 3.14-3.98C2.95-4.2 2.78-4.4 2.45-4.4C1.7-4.4 1.25-3.48 1.25-3.27C1.25-3.22 1.28-3.16 1.36-3.16S1.47-3.21 1.49-3.27C1.68-3.73 2.26-3.74 2.34-3.74C2.55-3.74 2.74-3.67 2.97-3.59C3.37-3.44 3.48-3.44 3.74-3.44C3.38-3.01 2.54-2.29 2.35-2.13L1.45-1.3C.777086-.627646 .428394-.059776 .428394 .009963C.428394 .109589 .52802 .109589 .547945 .109589C.627646 .109589 .647572 .089664 .707347-.019925C.936488-.368618 1.24-.637609 1.55-.637609C1.78-.637609 1.88-.547945 2.13-.259029C2.3-.049813 2.48 .109589 2.77 .109589C3.76 .109589 4.33-1.16 4.33-1.42C4.33-1.47 4.29-1.52 4.21-1.52C4.12-1.52 4.1-1.46 4.07-1.39C3.85-.747198 3.21-.557908 2.88-.557908C2.68-.557908 2.5-.617684 2.29-.687422C1.95-.816936 1.8-.856787 1.59-.856787C1.57-.856787 1.41-.856787 1.33-.826899Z' fill='rgb(170,170,170)' stroke='rgb(255,255,255)' stroke-width='0' transform='translate(948.92,101.17) scale(4.36,4.36)' />
</g>
<line x1="956.3" y1="461.1" x2="963.7" y2="464.4" stroke="#888" stroke-width="1"/>
<text x="974.6" y="475.6" font-size="18" fill="#aaa" text-anchor="middle" font-family="sans-serif">0.5</text>
<line x1="960.0" y1="694.5" x2="960.0" y2="153.6" stroke="#888" stroke-width="2"/>
<polygon points="960.0,153.6 963.2,161.6 956.8,161.6" fill="#888" stroke="none"/>
<line x1="956.3" y1="383.8" x2="963.7" y2="387.1" stroke="#888" stroke-width="1"/>
<text x="974.6" y="398.3" font-size="18" fill="#aaa" text-anchor="middle" font-family="sans-serif">1</text>
<polyline points="1040.0,575.9 1048.5,572.9 1056.7,569.9 1064.5,566.7 1071.9,563.4 1078.9,560.0 1085.4,556.4 1091.4,552.8 1096.9,549.1 1101.8,545.3 1106.2,541.4 1110.0,537.4 1113.2,533.4 1115.8,529.4 1117.8,525.3 1119.1,521.1 1119.9,517.0 1120.0,512.9 1119.4,508.7 1118.3,504.6 1116.5,500.5 1114.1,496.4 1111.1,492.4 1107.5,488.4 1103.3,484.5 1098.6,480.7 1093.3,476.9 1087.4,473.2 1081.1,469.7 1074.3,466.2 1067.1,462.9 1059.4,459.6 1051.3,456.5 1042.9,453.6 1034.1,450.8 1025.1,448.1 1015.8,445.5 1006.2,443.2 996.5,441.0 986.7,438.9 976.7,437.0 966.7,435.3 956.6,433.7 946.6,432.3 936.6,431.0 926.7,429.9 917.0,429.0 907.4,428.3 898.0,427.6 888.9,427.2 880.0,426.9 871.5,426.7 863.3,426.6 855.5,426.7 848.1,427.0 841.1,427.3 834.6,427.7 828.6,428.3 823.1,428.9 818.2,429.6 813.8,430.4 810.0,431.3 806.8,432.2 804.2,433.2 802.2,434.2 800.9,435.2 800.1,436.3 800.0,437.3 800.6,438.4 801.7,439.4 803.5,440.4 805.9,441.4 808.9,442.3 812.5,443.2 816.7,444.0 821.4,444.8 826.7,445.5 832.6,446.0 838.9,446.5 845.7,446.9 852.9,447.1 860.6,447.3 868.7,447.3 877.1,447.1 885.9,446.9 894.9,446.5 904.2,445.9 913.8,445.2 923.5,444.3 933.3,443.3 943.3,442.1 953.3,440.7 963.4,439.2 973.4,437.5 983.4,435.7 993.3,433.7 1003.0,431.5 1012.6,429.2 1022.0,426.7 1031.1,424.1 1040.0,421.3 1048.5,418.4 1056.7,415.3 1064.5,412.2 1071.9,408.9 1078.9,405.4 1085.4,401.9 1091.4,398.3 1096.9,394.5 1101.8,390.7 1106.2,386.8 1110.0,382.9 1113.2,378.9 1115.8,374.8 1117.8,370.7 1119.1,366.6 1119.9,362.5 1120.0,358.3 1119.4,354.2 1118.3,350.0 1116.5,345.9 1114.1,341.9 1111.1,337.8 1107.5,333.9 1103.3,329.9 1098.6,326.1 1093.3,322.4 1087.4,318.7 1081.1,315.1 1074.3,311.7 1067.1,308.3 1059.4,305.1 1051.3,302.0 1042.9,299.0 1034.1,296.2 1025.1,293.5 1015.8,291.0 1006.2,288.6 996.5,286.4 986.7,284.3 976.7,282.4 966.7,280.7 956.6,279.1 946.6,277.7 936.6,276.5 926.7,275.4 917.0,274.5 907.4,273.7 898.0,273.1 888.9,272.6 880.0,272.3 871.5,272.1 863.3,272.1 855.5,272.2 848.1,272.4 841.1,272.7 834.6,273.2 828.6,273.7 823.1,274.4 818.2,275.1 813.8,275.9 810.0,276.7 806.8,277.7 804.2,278.6 802.2,279.6 800.9,280.7 800.1,281.7 800.0,282.8 800.6,283.8 801.7,284.9 803.5,285.9 805.9,286.9 808.9,287.8 812.5,288.7 816.7,289.5 821.4,290.2 826.7,290.9 832.6,291.5 838.9,292.0 845.7,292.3 852.9,292.6 860.6,292.7 868.7,292.7 877.1,292.6 885.9,292.3 894.9,291.9 904.2,291.4 913.8,290.6 923.5,289.8 933.3,288.7 943.3,287.5 953.3,286.2 963.4,284.7 973.4,283.0 983.4,281.1 993.3,279.1 1003.0,277.0 1012.6,274.6 1022.0,272.2 1031.1,269.5 1040.0,266.8" fill="none" stroke="#FFFF00" stroke-width="3"/>
<line x1="956.3" y1="306.5" x2="963.7" y2="309.8" stroke="#888" stroke-width="1"/>
<text x="974.6" y="321.0" font-size="18" fill="#aaa" text-anchor="middle" font-family="sans-serif">1.5</text>
<line x1="817.8" y1="559.1" x2="825.1" y2="562.3" stroke="#888" stroke-width="1"/>
<text x="836.0" y="573.6" font-size="18" fill="#aaa" text-anchor="middle" font-family="sans-serif">-1</text>
<line x1="956.3" y1="229.3" x2="963.7" y2="232.5" stroke="#888" stroke-width="1"/>
<text x="974.6" y="243.7" font-size="18" fill="#aaa" text-anchor="middle" font-family="sans-serif">2</text>
<line x1="956.3" y1="152.0" x2="963.7" y2="155.3" stroke="#888" stroke-width="1"/>
<text x="974.6" y="166.5" font-size="18" fill="#aaa" text-anchor="middle" font-family="sans-serif">2.5</text>
<line x1="1036.0" y1="576.5" x2="1044.0" y2="575.3" stroke="#888" stroke-width="1"/>
<text x="1055.8" y="579.8" font-size="18" fill="#aaa" text-anchor="middle" font-family="sans-serif">1</text>
<circle cx="1040.0" cy="575.9" r="6" fill="#FC6255" stroke="none"/>
<line x1="679.2" y1="579.8" x2="686.5" y2="583.0" stroke="#888" stroke-width="1"/>
<text x="697.5" y="594.3" font-size="18" fill="#aaa" text-anchor="middle" font-family="sans-serif">-2</text>
<line x1="1116.0" y1="612.3" x2="1124.0" y2="611.1" stroke="#888" stroke-width="1"/>
<text x="1135.8" y="615.7" font-size="18" fill="#aaa" text-anchor="middle" font-family="sans-serif">2</text>
</g></g>
</svg>